<svg xmlns="http://www.w3.org/2000/svg" viewBox="0 0 483.78 483.78"><defs><style>.cls-1{fill:#030404;}</style></defs><g id="Ebene_2" data-name="Ebene 2"><g id="Ebene_1-2" data-name="Ebene 1"><path d="M241.89,0C176.2,0,168,.28,142.16,1.46S98.83,6.72,83.44,12.7A118.58,118.58,0,0,0,40.6,40.6,118.58,118.58,0,0,0,12.7,83.44c-6,15.39-10.07,33-11.25,58.72S0,176.2,0,241.89s.28,73.93,1.45,99.73S6.72,385,12.7,400.34a118.58,118.58,0,0,0,27.9,42.84,118.58,118.58,0,0,0,42.84,27.9c15.39,6,33,10.07,58.72,11.24s34,1.46,99.73,1.46,73.93-.28,99.73-1.46,43.33-5.26,58.72-11.24a123.7,123.7,0,0,0,70.74-70.74c6-15.39,10.07-33,11.24-58.72s1.46-34,1.46-99.73-.28-73.93-1.46-99.73-5.26-43.33-11.24-58.72a118.58,118.58,0,0,0-27.9-42.84,118.58,118.58,0,0,0-42.84-27.9c-15.39-6-33-10.07-58.72-11.24S307.58,0,241.89,0Zm0,43.58c64.59,0,72.24.25,97.74,1.41,23.59,1.08,36.39,5,44.92,8.33a74.87,74.87,0,0,1,27.81,18.1,74.87,74.87,0,0,1,18.1,27.81c3.31,8.52,7.25,21.33,8.32,44.92,1.17,25.5,1.41,33.15,1.41,97.74s-.24,72.24-1.41,97.74c-1.07,23.59-5,36.39-8.32,44.92a80.18,80.18,0,0,1-45.91,45.91c-8.53,3.31-21.33,7.25-44.92,8.32-25.5,1.17-33.15,1.41-97.74,1.41s-72.24-.24-97.74-1.41c-23.59-1.07-36.4-5-44.92-8.32a74.87,74.87,0,0,1-27.81-18.1,74.87,74.87,0,0,1-18.1-27.81C50,376,46.07,363.22,45,339.63c-1.16-25.5-1.41-33.15-1.41-97.74s.25-72.24,1.41-97.74c1.08-23.59,5-36.4,8.33-44.92a74.87,74.87,0,0,1,18.1-27.81,74.87,74.87,0,0,1,27.81-18.1c8.52-3.31,21.33-7.25,44.92-8.33C169.65,43.83,177.3,43.58,241.89,43.58Z"/><path class="cls-1" d="M241.89,322.52a80.63,80.63,0,1,1,80.63-80.63A80.63,80.63,0,0,1,241.89,322.52Zm0-204.84A124.21,124.21,0,1,0,366.1,241.89,124.21,124.21,0,0,0,241.89,117.68Z"/><path class="cls-1" d="M400,112.77a29,29,0,1,1-29-29A29,29,0,0,1,400,112.77Z"/></g></g></svg>