<?xml version="1.0" encoding="utf-8"?>
<!-- Generator: Adobe Illustrator 26.0.2, SVG Export Plug-In . SVG Version: 6.00 Build 0)  -->
<svg version="1.1" id="Ebene_1" xmlns="http://www.w3.org/2000/svg" xmlns:xlink="http://www.w3.org/1999/xlink" x="0px" y="0px"
	 viewBox="0 0 198 177" style="enable-background:new 0 0 198 177;" xml:space="preserve">
<style type="text/css">
	.st0{filter:url(#Adobe_OpacityMaskFilter);}
	.st1{fill-rule:evenodd;clip-rule:evenodd;fill:#FFFFFF;}
	.st2{mask:url(#mask-2_00000074415544030507751680000001259953669587127702_);fill-rule:evenodd;clip-rule:evenodd;fill:#A4C254;}
	.st3{fill-rule:evenodd;clip-rule:evenodd;fill:#1A1919;}
	.st4{filter:url(#Adobe_OpacityMaskFilter_00000087393459089448006250000016403452719990850188_);}
	.st5{mask:url(#mask-4_00000013887472586519912490000012364118513953601454_);fill-rule:evenodd;clip-rule:evenodd;fill:#1A1919;}
</style>
<g id="Logo_cmyk" transform="translate(301.000000, 47.000000)">
	<g id="Group-3" transform="translate(79.000000, 59.000000)">
		<g id="Clip-2">
		</g>
		<defs>
			<filter id="Adobe_OpacityMaskFilter" filterUnits="userSpaceOnUse" x="-300.5" y="-46.9" width="118.4" height="117.9">
				<feColorMatrix  type="matrix" values="1 0 0 0 0  0 1 0 0 0  0 0 1 0 0  0 0 0 1 0"/>
			</filter>
		</defs>

			<mask maskUnits="userSpaceOnUse" x="-300.5" y="-46.9" width="118.4" height="117.9" id="mask-2_00000074415544030507751680000001259953669587127702_">
			<g class="st0">
				<polygon id="path-1_00000056401151076472736570000006071212474276599696_" class="st1" points="-300.5,-46.9 -182,-46.9
					-182,71 -300.5,71 				"/>
			</g>
		</mask>
		<path id="Fill-1" class="st2" d="M-241.2,71c32.7,0,59.2-26.4,59.2-58.9s-26.5-58.9-59.2-58.9s-59.2,26.4-59.2,58.9
			S-273.9,71-241.2,71"/>
	</g>
	<path id="Fill-4" class="st3" d="M-301-34v-11.8h1.6v1.6l0.1-0.1c1-1.1,2.3-1.7,3.4-1.7c1.5,0,2.6,0.8,3,1.9c1-1.1,2.3-1.9,3.7-1.9
		c1.6,0,3.2,0.7,3.2,3.6v8.4h-1.6v-8.4c0-1.6-0.8-2.2-1.8-2.2c-1.4,0-2.4,1-3.3,1.8v8.8h-1.6v-8.4c0-1.6-0.8-2.2-1.8-2.2
		c-1.4,0-2.4,1-3.3,1.8v8.8H-301z"/>
	<path id="Fill-6" class="st3" d="M-274.7-34.2v-1.6h0c-1,1-2.3,1.8-3.7,1.8c-1.8,0-3.6-0.9-3.6-3.4V-46h1.7v8.5
		c0,1.6,0.8,2.1,2,2.1c1.3,0,2.8-1,3.5-1.8V-46h1.7v11.8H-274.7z"/>
	<g id="Group-10" transform="translate(30.000000, 0.000000)">
		<g id="Clip-9">
		</g>
		<defs>

				<filter id="Adobe_OpacityMaskFilter_00000178175985985232214840000000182364124699985299_" filterUnits="userSpaceOnUse" x="-300.7" y="-46.1" width="9.4" height="12.1">
				<feColorMatrix  type="matrix" values="1 0 0 0 0  0 1 0 0 0  0 0 1 0 0  0 0 0 1 0"/>
			</filter>
		</defs>

			<mask maskUnits="userSpaceOnUse" x="-300.7" y="-46.1" width="9.4" height="12.1" id="mask-4_00000013887472586519912490000012364118513953601454_">
			<g style="filter:url(#Adobe_OpacityMaskFilter_00000178175985985232214840000000182364124699985299_);">
				<polygon id="path-3_00000129188489476038287360000006787654821421188995_" class="st1" points="-300.7,-46.1 -291.3,-46.1
					-291.3,-33.9 -300.7,-33.9 				"/>
			</g>
		</mask>
		<path id="Fill-8" class="st5" d="M-299.3-37.1c0.8,1.1,2,1.8,3.6,1.8c1.9,0,2.7-0.9,2.7-1.9c0-3-7.4-1.4-7.3-5.6
			c0.1-2,1.7-3.2,4.1-3.1c1.6,0,3.4,0.9,4.3,2l-1.2,1c-1-1.1-1.9-1.6-3.2-1.6c-1.5,0-2.3,0.7-2.3,1.7c0,2.5,7.3,1.2,7.3,5.6
			c0,2.3-2.1,3.4-4.4,3.4c-1.9,0-3.8-0.8-5-2.2L-299.3-37.1z"/>
	</g>
	<path id="Fill-11" class="st3" d="M-252.1-41.1c0-2.1-1.1-3.6-2.9-3.6c-2,0-3.1,1.4-3.3,3.6H-252.1z M-250-36.7
		c-0.8,1.3-1.9,2.7-4.7,2.7c-2.7,0-5.3-1.8-5.3-6c0-3.7,2-6,5-6c2.5,0,4.6,1.6,4.6,5.2v1.1h-7.9c0,2.5,1.6,4.3,3.6,4.3
		c1.5,0,2.7-0.8,3.4-2L-250-36.7z"/>
	<path id="Fill-13" class="st3" d="M-240.7-34.2v-1.6h0c-1,1-2.3,1.8-3.7,1.8c-1.8,0-3.6-0.9-3.6-3.4V-46h1.7v8.5
		c0,1.6,0.8,2.1,2,2.1c1.3,0,2.8-1,3.5-1.8V-46h1.7v11.8H-240.7z"/>
	<path id="Fill-15" class="st3" d="M-235-34v-11.8h1.6v1.6l0.1-0.1c1-1.1,2.3-1.7,3.4-1.7c1.5,0,2.6,0.8,3,1.9
		c1-1.1,2.3-1.9,3.7-1.9c1.6,0,3.2,0.7,3.2,3.6v8.4h-1.6v-8.4c0-1.6-0.8-2.2-1.8-2.2c-1.4,0-2.4,1-3.3,1.8v8.8h-1.6v-8.4
		c0-1.6-0.8-2.2-1.8-2.2c-1.4,0-2.4,1-3.3,1.8v8.8H-235z"/>
	<polygon id="Fill-17" class="st3" points="-300,4 -300,-27 -293.8,-27 -281.7,-5.9 -281.6,-5.9 -281.6,-27 -276,-27 -276,4
		-281.7,4 -294.3,-18.1 -294.4,-18.1 -294.4,4 	"/>
	<path id="Fill-19" class="st3" d="M-264-7.6h7.2l-3.5-13.5h-0.1L-264-7.6z M-264.1-27h7.4l8.8,31h-5.9l-1.7-6.7h-9.7l-1.8,6.7h-5.9
		L-264.1-27z"/>
	<polygon id="Fill-21" class="st3" points="-227,-27 -227,-22 -235.1,-22 -235.1,4 -240.9,4 -240.9,-22 -249,-22 -249,-27 	"/>
	<path id="Fill-23" class="st3" d="M-206-27h6v19.8C-200,2-205.6,5-212,5c-6.4,0-12-3-12-12.2V-27h6v20c0,5.1,2,6.9,6,6.9
		c4,0,6-1.8,6-6.9V-27z"/>
	<path id="Fill-25" class="st3" d="M-187.9-13.4h4.5c4.7,0,6.2-1.5,6.2-4.4s-1.8-4.4-5.1-4.4h-5.5V-13.4z M-194,4v-31h12.7
		c7.2,0,10.1,4.1,10.2,9.2c0,3.8-1.9,6.9-5.8,8l7,13.8h-6.7l-6-12.6h-5.2V4H-194z"/>
	<path id="Fill-27" class="st3" d="M-294.9,23.7h4.9c4.6,0,5.9-1.7,5.9-4.4c0-2.7-1.3-4.4-5.9-4.4h-4.9V23.7z M-301,41V10h11.7
		c6.9,0,11.3,2.8,11.3,9.2c0,6.4-4.4,9.2-11.3,9.2h-5.6V41H-301z"/>
	<path id="Fill-29" class="st3" d="M-257,10h6v19.8c0,9.2-5.6,12.2-12,12.2c-6.4,0-12-3-12-12.2V10h6v20c0,5.1,2,6.9,6,6.9
		c4,0,6-1.8,6-6.9V10z"/>
	<path id="Fill-31" class="st3" d="M-238.9,23.6h4.5c4.7,0,6.2-1.5,6.2-4.4c0-2.9-1.8-4.4-5.1-4.4h-5.5V23.6z M-245,41V10h12.7
		c7.2,0,10.1,4.1,10.2,9.2c0,3.8-1.9,6.9-5.8,8l7,13.8h-6.7l-6-12.6h-5.2V41H-245z"/>
	<path id="Fill-33" class="st3" d="M-110.2,81.9l-28.7-11.7l8.8-40.8c0-0.2,0-0.3-0.2-0.4c-0.2-0.1-0.3,0-0.4,0.1l-22.6,36.4
		l-46.8-28.7c-0.1-0.1-0.2-0.1-0.3,0c-0.1,0.1-0.2,0.2-0.2,0.3l2.5,31l0,0l-2.8,5.3c-0.1,0.1,0,0.3,0,0.4c0.1,0.1,0.2,0.2,0.3,0.1
		l3.3-0.9l7,18.6l0,0l1.2,20c0,0.1,0.1,0.2,0.2,0.3c0,0,0.1,0,0.1,0c0.1,0,0.2,0,0.3-0.1l5.5-6.6l1.2,6.4c0,0.1,0.1,0.2,0.2,0.2
		c0,0,0.1,0,0.2,0c0,0,0.1,0,0.1,0l3.7-1.7c0,0,0,0,0-0.1l21.5-9.4l15.3,4.8c0.1,0,0.2,0,0.3-0.1c0.1-0.1,0.1-0.2,0.1-0.3V92.5
		l30.2-10c0.1,0,0.2-0.2,0.2-0.3C-110,82.1-110.1,82-110.2,81.9L-110.2,81.9z M-139.6,70h-8.7c-0.1,0-0.2,0-0.2,0.1l-2.5,2.4
		l-3.9-3.3l23.7-38.1L-139.6,70z M-168.8,80L-168.8,80l10.8-12.6l6.7,5.7l-24,29.3l6.5-22.3C-168.8,80.1-168.8,80-168.8,80
		L-168.8,80z M-169.1,79.4l-6.1-10.1l16.4-2L-169.1,79.4z M-153.8,66.1l-1.6,2.6l-2.5-2.2c-0.1-0.1-0.2-0.1-0.2-0.1l-17.4,2.1
		l-6.9-11.3c-0.1-0.1-0.2-0.2-0.3-0.2l-2.8,0l-13.9-19.1L-153.8,66.1z M-200,38.6l13.6,18.6l-5.7,0h0c-0.1,0-0.2,0.1-0.3,0.2
		l-5.2,9.9L-200,38.6z M-191.9,57.8l8.2,0.1l-15.9,14.4L-191.9,57.8z M-189.4,63.9v6.5l-7.5,2l0,0l-0.2,0.1l-2.3,0.6L-189.4,63.9z
		 M-196.6,72.9l5.1-1.3l1.1,18L-196.6,72.9z M-188.5,110.8l-2.4-39.4l1.6-0.4l6.1,33.4L-188.5,110.8z M-178.1,109.6l-3.2,1.5
		c0,0-7.4-40.6-7.4-40.6v-7.1l5.9-5.3l13.4,22L-178.1,109.6z M-175.8,104.2l4.3-1.4l-5.6,5.7L-175.8,104.2z M-156.4,100.2l-20.1,8.7
		l6.3-6.5l0,0l13.8-4.6V100.2z M-141.1,104.7l-14.7-4.6v-2.6l14.7-4.8V104.7z M-175.3,103.4l17.1-20.9h45.9L-175.3,103.4z
		 M-157.7,81.9l7-8.6c0.1-0.1,0.1-0.2,0.1-0.2l2.4-2.4h8.7l27.4,11.2H-157.7z"/>
</g>
</svg>
