<svg id="Ebene_1" data-name="Ebene 1" xmlns="http://www.w3.org/2000/svg" viewBox="0 0 1200 440.985"><defs><style>.cls-1{fill:#faf0cc;}.cls-2{fill:#db2a2b;}.cls-3{fill:#cc1519;}.cls-4{fill:#448733;}.cls-5{fill:#518c41;}.cls-6{fill:#609250;}.cls-7{fill:#581112;}.cls-8{font-size:34.54px;}.cls-26,.cls-8{font-family:PumpkinCheesecakeRegular, Pumpkin Cheesecake;}.cls-9{fill:#ffd247;}.cls-10{fill:#ffd249;}.cls-11{fill:#fabc36;}.cls-12{fill:#35a8e0;}.cls-13{fill:#1d70b7;}.cls-14{fill:#045c2d;}.cls-15{fill:#41371f;}.cls-16{fill:#c99d66;}.cls-17{fill:#b17f49;}.cls-18{fill:#925f36;}.cls-19{fill:#00763a;}.cls-20{fill:#063;}.cls-21{fill:#008d36;}.cls-22{fill:#fabc42;}.cls-23,.cls-24{fill:#4d3534;}.cls-24{opacity:0.8;}.cls-25{fill:#e5e8ef;}.cls-26{font-size:40.814px;}.cls-27{fill:#a5c253;}.cls-28{fill:#594427;}.cls-29{fill:#f1ebd6;}.cls-30{fill:#49351f;}.cls-31{fill:#634b2f;}.cls-32{fill:#564624;}</style></defs><path class="cls-1" d="M87.853,4H1112.147A83.853,83.853,0,0,1,1196,87.853V353.132a83.854,83.854,0,0,1-83.854,83.854H87.853A83.853,83.853,0,0,1,4,353.132V87.853A83.853,83.853,0,0,1,87.853,4Z"/><path d="M1112.147,10.078A79.944,79.944,0,0,1,1192,89.931V355.21a79.944,79.944,0,0,1-79.853,79.853H87.853A79.944,79.944,0,0,1,8,355.21V89.931A79.944,79.944,0,0,1,87.853,10.078H1112.147m0-8H87.853A87.853,87.853,0,0,0,0,89.931V355.21a87.853,87.853,0,0,0,87.853,87.853H1112.147A87.853,87.853,0,0,0,1200,355.21V89.931a87.853,87.853,0,0,0-87.853-87.853Z" transform="translate(0 -2.078)"/><g id="erdbeere"><path class="cls-2" d="M630.671,96.5c0,10.974-4.909,26.227-12.723,36.778-5.313,7.175-11.973,12.174-19.346,12.174-18.219,0-33.9-30.513-33.9-48.952,0-7.715,2.761-12.73,7.313-15.954,6.32-4.482,16.09-5.5,26.684-5.5C616.913,75.044,630.671,78.063,630.671,96.5Z" transform="translate(0 -2.078)"/><path class="cls-3" d="M617.948,133.278c-5.313,7.175-11.973,12.174-19.346,12.174-18.219,0-33.9-30.513-33.9-48.952,0-7.715,2.761-12.73,7.313-15.954,2.183,6.564,5.4,30.728,27.145,45.7C610.149,133.819,614.529,132.4,617.948,133.278Z" transform="translate(0 -2.078)"/><ellipse class="cls-4" cx="585.097" cy="74.161" rx="4.548" ry="13.2" transform="translate(431.986 641.64) rotate(-82.177)"/><ellipse class="cls-5" cx="587.396" cy="68.745" rx="4.623" ry="12.983" transform="translate(206.078 518.725) rotate(-56.527)"/><ellipse class="cls-6" cx="591.815" cy="65.023" rx="4.736" ry="12.674" transform="translate(49.017 307.573) rotate(-30.53)"/><ellipse class="cls-4" cx="611.461" cy="74.161" rx="13.2" ry="4.548" transform="translate(-4.404 81.84) rotate(-7.823)"/><ellipse class="cls-5" cx="609.161" cy="68.745" rx="12.983" ry="4.623" transform="translate(63.117 345.304) rotate(-33.473)"/><ellipse class="cls-6" cx="604.743" cy="65.023" rx="12.674" ry="4.736" transform="translate(241.531 550.816) rotate(-59.47)"/><path class="cls-7" d="M598.169,136.191s-2.259,2.872-1.921,5.531c.19,1.5,2.244,1.25,2.844.434a1.036,1.036,0,0,0-.394-1.708,1.369,1.369,0,0,0-1.528.467A14.155,14.155,0,0,1,598.169,136.191Z" transform="translate(0 -2.078)"/><path class="cls-7" d="M611.964,129.225s-2.26,2.873-1.922,5.531c.19,1.5,2.244,1.25,2.844.435a1.037,1.037,0,0,0-.394-1.709,1.372,1.372,0,0,0-1.528.467A14.141,14.141,0,0,1,611.964,129.225Z" transform="translate(0 -2.078)"/><path class="cls-7" d="M619.715,117.151s-2.259,2.872-1.921,5.53c.19,1.5,2.244,1.251,2.844.435a1.036,1.036,0,0,0-.394-1.708,1.37,1.37,0,0,0-1.528.466A14.151,14.151,0,0,1,619.715,117.151Z" transform="translate(0 -2.078)"/><path class="cls-7" d="M622.878,103.43s-2.259,2.872-1.921,5.53c.19,1.5,2.243,1.25,2.844.435a1.036,1.036,0,0,0-.394-1.708,1.37,1.37,0,0,0-1.528.466A14.147,14.147,0,0,1,622.878,103.43Z" transform="translate(0 -2.078)"/><path class="cls-7" d="M621.3,86.887s-2.259,2.872-1.922,5.531c.19,1.5,2.244,1.25,2.844.434a1.036,1.036,0,0,0-.394-1.708,1.368,1.368,0,0,0-1.527.467A14.126,14.126,0,0,1,621.3,86.887Z" transform="translate(0 -2.078)"/><path class="cls-7" d="M609.317,80.546s-2.259,2.872-1.922,5.53c.19,1.5,2.244,1.251,2.844.435a1.036,1.036,0,0,0-.394-1.708,1.369,1.369,0,0,0-1.527.466A14.122,14.122,0,0,1,609.317,80.546Z" transform="translate(0 -2.078)"/><path class="cls-7" d="M599.751,120.585s-2.259,2.872-1.922,5.53c.19,1.5,2.244,1.251,2.844.435a1.036,1.036,0,0,0-.394-1.708,1.369,1.369,0,0,0-1.527.466A14.122,14.122,0,0,1,599.751,120.585Z" transform="translate(0 -2.078)"/><path class="cls-7" d="M608.8,112.261s-2.259,2.872-1.922,5.53c.19,1.5,2.244,1.251,2.844.435a1.036,1.036,0,0,0-.394-1.708,1.371,1.371,0,0,0-1.528.466A14.137,14.137,0,0,1,608.8,112.261Z" transform="translate(0 -2.078)"/><path class="cls-7" d="M610.524,96.219s-2.259,2.872-1.922,5.53c.19,1.5,2.244,1.251,2.844.435a1.036,1.036,0,0,0-.394-1.708,1.369,1.369,0,0,0-1.527.466A14.122,14.122,0,0,1,610.524,96.219Z" transform="translate(0 -2.078)"/><path class="cls-7" d="M587.177,127.2s-2.259,2.872-1.921,5.53c.19,1.5,2.243,1.251,2.844.435a1.036,1.036,0,0,0-.394-1.708,1.37,1.37,0,0,0-1.528.466A14.151,14.151,0,0,1,587.177,127.2Z" transform="translate(0 -2.078)"/><path class="cls-7" d="M578.619,114.885s-2.26,2.872-1.922,5.53c.19,1.5,2.244,1.25,2.844.435a1.036,1.036,0,0,0-.394-1.708,1.371,1.371,0,0,0-1.528.466A14.133,14.133,0,0,1,578.619,114.885Z" transform="translate(0 -2.078)"/><path class="cls-7" d="M590.015,110.534s-2.26,2.872-1.922,5.53c.19,1.5,2.244,1.251,2.844.435a1.036,1.036,0,0,0-.394-1.708,1.371,1.371,0,0,0-1.528.466A14.137,14.137,0,0,1,590.015,110.534Z" transform="translate(0 -2.078)"/><path class="cls-7" d="M587.78,96.219s-2.259,2.872-1.922,5.53c.191,1.5,2.244,1.251,2.844.435a1.036,1.036,0,0,0-.394-1.708,1.369,1.369,0,0,0-1.527.466A14.122,14.122,0,0,1,587.78,96.219Z" transform="translate(0 -2.078)"/><path class="cls-7" d="M599.751,87.78s-2.259,2.872-1.922,5.53c.19,1.5,2.244,1.25,2.844.435a1.036,1.036,0,0,0-.394-1.708,1.369,1.369,0,0,0-1.527.466A14.118,14.118,0,0,1,599.751,87.78Z" transform="translate(0 -2.078)"/><path class="cls-7" d="M587.177,80.878s-2.259,2.873-1.921,5.531c.19,1.5,2.243,1.25,2.844.435a1.037,1.037,0,0,0-.394-1.709,1.369,1.369,0,0,0-1.528.467A14.155,14.155,0,0,1,587.177,80.878Z" transform="translate(0 -2.078)"/><path class="cls-7" d="M600.235,103.43s-2.259,2.872-1.922,5.53c.19,1.5,2.244,1.25,2.844.435a1.036,1.036,0,0,0-.394-1.708,1.369,1.369,0,0,0-1.527.466A14.118,14.118,0,0,1,600.235,103.43Z" transform="translate(0 -2.078)"/><path class="cls-7" d="M573.965,99.527s-2.259,2.873-1.922,5.531c.191,1.5,2.244,1.25,2.844.435a1.037,1.037,0,0,0-.393-1.709,1.369,1.369,0,0,0-1.528.467A14.126,14.126,0,0,1,573.965,99.527Z" transform="translate(0 -2.078)"/><path class="cls-7" d="M575.547,85.585s-2.26,2.872-1.922,5.531c.19,1.5,2.244,1.25,2.844.434a1.036,1.036,0,0,0-.394-1.708,1.371,1.371,0,0,0-1.528.466A14.137,14.137,0,0,1,575.547,85.585Z" transform="translate(0 -2.078)"/></g><text class="cls-8" transform="translate(525.983 176.515)">Walderdbeere</text><g id="sonne"><circle class="cls-9" cx="806.764" cy="98.434" r="26.884"/><rect class="cls-10" x="805.31" y="50.915" width="2.908" height="15.844" rx="1.009" transform="translate(1613.529 115.596) rotate(-180)"/><rect class="cls-10" x="805.31" y="134.265" width="2.908" height="15.844" rx="1.009" transform="translate(1613.529 282.297) rotate(-180)"/><rect class="cls-10" x="846.985" y="92.59" width="2.908" height="15.844" rx="1.009" transform="translate(747.927 946.874) rotate(-90)"/><rect class="cls-10" x="763.635" y="92.59" width="2.908" height="15.844" rx="1.009" transform="matrix(0, -1, 1, 0, 664.577, 863.523)"/><rect class="cls-10" x="834.779" y="63.121" width="2.908" height="15.844" rx="1.009" transform="translate(1377.303 710.507) rotate(-135)"/><rect class="cls-10" x="775.842" y="122.059" width="2.908" height="15.844" rx="1.009" transform="translate(1235.016 769.444) rotate(-135)"/><rect class="cls-10" x="775.842" y="63.121" width="2.908" height="15.844" rx="1.009" transform="translate(1377.162 -430.43) rotate(135)"/><rect class="cls-10" x="834.779" y="122.059" width="2.908" height="15.844" rx="1.009" transform="translate(1519.45 -371.492) rotate(135)"/><path class="cls-11" d="M806.861,73.589a26.541,26.541,0,0,0-17.515,6.575.048.048,0,0,0,.053.08,26.506,26.506,0,0,1,11.238-2.484,26.893,26.893,0,0,1,18.024,46.7.048.048,0,0,0,.054.079,26.894,26.894,0,0,0-11.854-50.951Z" transform="translate(0 -2.078)"/></g><text class="cls-8" transform="translate(776.525 177.271)">Sonne</text><g id="splash"><path class="cls-12" d="M335.684,144.367s30.938-10.353,37.15-39.1,30.695-36.175,41.413-27.527,1.163,18.69-2.436,20.95c-7.856,4.933-13.885,5.864-20.95,10.667s-10.982,13.1-18.392,20.515C365.709,136.633,352.371,146.56,335.684,144.367Z" transform="translate(0 -2.078)"/><path class="cls-12" d="M340.556,136.694s14.5-10.488,18.271-28.5-1.614-19.842-3.167-20.707c-2.812-1.565-16.571-2.109-14.373,14.007C342.749,112.211,348.9,112.272,340.556,136.694Z" transform="translate(0 -2.078)"/><path class="cls-13" d="M365.891,102.873s-4.739-22.95-1.461-35c1.657-6.09,4.385-12.789,9.257-15.916,5.074-3.256,11.553,1.895,10.69,8.445-.824,6.253-3.786,9.758-6.305,12.749C369.18,83.709,366.947,95.484,365.891,102.873Z" transform="translate(0 -2.078)"/><path class="cls-12" d="M379.127,81.436s5.278-11.45,10.069-16.4,8.765-8.185,13.8-5.847c5.075,2.355,4.588,6.74.2,9.135C394.085,73.3,388.222,73.181,379.127,81.436Z" transform="translate(0 -2.078)"/><path class="cls-12" d="M419.035,99.527s5.5-7.453,9.68-10.305,7.52-4.587,10.8-2.156c3.3,2.447,2.3,5.53-1.211,6.6C431,95.9,426.8,94.939,419.035,99.527Z" transform="translate(0 -2.078)"/><path class="cls-13" d="M385.392,123.306s17.392-13.4,28.843-16.245c5.9-1.468,13.532-1.955,17.372.966,4.535,3.45,2.535,10.559-2.525,12.625-5.78,2.36-9.845,1.023-13.439.16C403.163,117.814,392.067,121.025,385.392,123.306Z" transform="translate(0 -2.078)"/><path class="cls-12" d="M366.087,143.174s12.974-12.321,31.375-12.718,19.207,5.235,19.771,6.921c1.022,3.052-.974,16.676-16.411,11.552C390.555,145.521,391.626,139.464,366.087,143.174Z" transform="translate(0 -2.078)"/></g><text class="cls-8" transform="translate(325.987 177.271)">Bachwasser</text><path class="cls-14" d="M204.235,82.85c1.277,8.582-10.737,13.314-26.113,15.412s-28.292.768-29.569-7.814,10.153-17.24,25.529-19.339S202.958,74.268,204.235,82.85Z" transform="translate(0 -2.078)"/><path class="cls-14" d="M157.7,87.846a14.868,14.868,0,0,1-4.839,1.47c-4.544.62-8.488-.634-8.811-2.8a2.044,2.044,0,0,1-.02-.35,19.7,19.7,0,0,1,3.464-.787C152.271,84.724,156.5,85.808,157.7,87.846Z" transform="translate(0 -2.078)"/><path class="cls-14" d="M158.451,86.34a23.008,23.008,0,0,1-5.032.15c-4.543-.327-8.054-1.717-7.845-3.1a.858.858,0,0,1,.064-.219,30.708,30.708,0,0,1,3.539.055C153.955,83.567,157.778,84.9,158.451,86.34Z" transform="translate(0 -2.078)"/><path class="cls-14" d="M159.377,86.09a20.415,20.415,0,0,1-4.926-.725c-4.307-1.15-7.3-3.255-6.684-4.7a1.215,1.215,0,0,1,.127-.223,26.889,26.889,0,0,1,3.415.683C155.841,82.333,159.154,84.427,159.377,86.09Z" transform="translate(0 -2.078)"/><path class="cls-14" d="M147.757,77.837a20.307,20.307,0,0,1,4.892.849c4.259,1.26,7.17,3.442,6.5,4.874a1.178,1.178,0,0,1-.136.22,26.447,26.447,0,0,1-3.384-.769C151.152,81.686,147.92,79.506,147.757,77.837Z" transform="translate(0 -2.078)"/><path class="cls-14" d="M152.538,74.513a16.457,16.457,0,0,1,3.8,2.637c3.024,2.768,4.369,5.86,3,6.906a1.51,1.51,0,0,1-.238.148,21.031,21.031,0,0,1-2.53-1.989C153.392,79.3,151.766,76.092,152.538,74.513Z" transform="translate(0 -2.078)"/><path class="cls-14" d="M157.144,72.382a13.585,13.585,0,0,1,2.39,3.623c1.619,3.519,1.555,6.852-.144,7.445a1.572,1.572,0,0,1-.282.07,17.553,17.553,0,0,1-1.493-2.634C155.911,77.184,155.767,73.654,157.144,72.382Z" transform="translate(0 -2.078)"/><path class="cls-14" d="M164.271,79.513a10.817,10.817,0,0,1-3.549-2.391c-2.625-2.634-3.236-5.843-1.364-7.166a2.732,2.732,0,0,1,.317-.193,13.426,13.426,0,0,1,2.294,1.847C164.73,74.382,165.625,77.685,164.271,79.513Z" transform="translate(0 -2.078)"/><path class="cls-14" d="M166.707,79.737a13.866,13.866,0,0,1-2.408-3.194c-1.743-3.121-2.033-6.118-.648-6.694a1.284,1.284,0,0,1,.233-.071,18.041,18.041,0,0,1,1.543,2.328C167.26,75.389,167.748,78.557,166.707,79.737Z" transform="translate(0 -2.078)"/><path class="cls-14" d="M167.357,80.21a11.729,11.729,0,0,1-1.546-3.574c-.871-3.391-.262-6.417,1.361-6.761a1.571,1.571,0,0,1,.265-.031,15.393,15.393,0,0,1,.9,2.57C169.258,75.981,168.8,79.211,167.357,80.21Z" transform="translate(0 -2.078)"/><path class="cls-14" d="M169.8,68.417a11.639,11.639,0,0,1,1.414,3.616c.748,3.416.031,6.429-1.6,6.732a1.586,1.586,0,0,1-.266.025,15.205,15.205,0,0,1-.81-2.6C167.747,72.6,168.318,69.381,169.8,68.417Z" transform="translate(0 -2.078)"/><path class="cls-14" d="M181.05,77.7a19.339,19.339,0,0,0,3.715-2.957c2.98-3,4.369-6.131,3.1-6.995a1.171,1.171,0,0,0-.222-.117,24.993,24.993,0,0,0-2.482,2.195C182.029,72.979,180.368,76.256,181.05,77.7Z" transform="translate(0 -2.078)"/><path class="cls-14" d="M180.189,78.083a15.963,15.963,0,0,0,2.933-3.518c2.15-3.444,2.593-6.77.989-7.428a1.594,1.594,0,0,0-.27-.082,20.588,20.588,0,0,0-1.89,2.568C179.69,73.246,179.009,76.76,180.189,78.083Z" transform="translate(0 -2.078)"/><path class="cls-14" d="M181.319,65.892a15.7,15.7,0,0,0-2.808,3.585c-2.028,3.494-2.351,6.825-.722,7.441a1.536,1.536,0,0,0,.274.075,20.239,20.239,0,0,0,1.8-2.61C181.993,70.708,182.547,67.183,181.319,65.892Z" transform="translate(0 -2.078)"/><path class="cls-14" d="M175.231,66.43a12.684,12.684,0,0,0-.59,4.2c.069,3.818,1.6,6.845,3.413,6.761a1.66,1.66,0,0,0,.289-.039,16.553,16.553,0,0,0,.206-2.961C178.476,70.371,177.052,67.088,175.231,66.43Z" transform="translate(0 -2.078)"/><path class="cls-14" d="M171.085,67.072a12.321,12.321,0,0,0,.12,4.2c.713,3.75,2.746,6.549,4.54,6.253a1.587,1.587,0,0,0,.281-.072,16.389,16.389,0,0,0-.3-2.939C174.981,70.569,173.009,67.5,171.085,67.072Z" transform="translate(0 -2.078)"/><path class="cls-14" d="M187.454,78.507a12.428,12.428,0,0,1-.09-4.2c.517-3.828,2.384-6.881,4.17-6.82a1.553,1.553,0,0,1,.282.035,16.815,16.815,0,0,1-.146,2.966C191.127,74.516,189.332,77.825,187.454,78.507Z" transform="translate(0 -2.078)"/><path class="cls-14" d="M187.757,79.262A12.31,12.31,0,0,1,188.8,75.08c1.574-3.7,4.353-6.377,6.208-5.981a1.684,1.684,0,0,1,.285.088,16.923,16.923,0,0,1-.952,2.914C192.68,75.993,189.908,78.938,187.757,79.262Z" transform="translate(0 -2.078)"/><path class="cls-14" d="M198.652,68.859a12.518,12.518,0,0,1-1.2,4.163c-1.715,3.667-4.591,6.284-6.427,5.844a1.661,1.661,0,0,1-.281-.1,17.388,17.388,0,0,1,1.063-2.895C193.613,72.016,196.493,69.132,198.652,68.859Z" transform="translate(0 -2.078)"/><path class="cls-14" d="M202.842,72.586a17.647,17.647,0,0,1-3.482,3.395c-3.636,2.758-7.654,4.138-8.977,3.083a1.174,1.174,0,0,1-.186-.187,24.579,24.579,0,0,1,2.62-2.281C196.642,73.695,200.821,72.07,202.842,72.586Z" transform="translate(0 -2.078)"/><path class="cls-14" d="M205.5,76.265a22.239,22.239,0,0,1-4.727,2.3c-4.576,1.645-8.877,1.865-9.607.492a.91.91,0,0,1-.085-.23,30.521,30.521,0,0,1,3.431-1.466C199.325,75.628,203.884,75.218,205.5,76.265Z" transform="translate(0 -2.078)"/><path class="cls-14" d="M160.547,92.037a13.066,13.066,0,0,1-.965,4.158c-1.46,3.685-4.035,6.37-5.751,6a1.453,1.453,0,0,1-.264-.085,17.877,17.877,0,0,1,.883-2.9C155.986,95.332,158.555,92.382,160.547,92.037Z" transform="translate(0 -2.078)"/><path class="cls-14" d="M160.442,91.24a13.5,13.5,0,0,1-2.054,3.943c-2.453,3.374-5.818,5.529-7.517,4.815a1.436,1.436,0,0,1-.254-.137,18.881,18.881,0,0,1,1.652-2.708C154.85,93.6,158.275,91.184,160.442,91.24Z" transform="translate(0 -2.078)"/><path class="cls-14" d="M147.273,99.6a13.8,13.8,0,0,1,2.2-3.9c2.581-3.318,6.025-5.4,7.694-4.641a1.414,1.414,0,0,1,.249.143,19.133,19.133,0,0,1-1.756,2.67C152.949,97.363,149.434,99.705,147.273,99.6Z" transform="translate(0 -2.078)"/><path class="cls-14" d="M144.143,95.19a19.591,19.591,0,0,1,4.227-2.741c4.216-2.085,8.458-2.744,9.476-1.472a1.114,1.114,0,0,1,.134.217,27.182,27.182,0,0,1-3.112,1.791C150.433,95.179,145.974,96.051,144.143,95.19Z" transform="translate(0 -2.078)"/><path class="cls-14" d="M142.49,91.1a23.565,23.565,0,0,1,5.157-1.44c4.849-.823,9.075-.289,9.439,1.193a.935.935,0,0,1,.025.242,32.2,32.2,0,0,1-3.694.846C148.316,92.8,143.792,92.412,142.49,91.1Z" transform="translate(0 -2.078)"/><path class="cls-14" d="M173.337,92.405a13.96,13.96,0,0,1,2.055,3.958c1.309,3.83.986,7.426-.723,8.032a1.533,1.533,0,0,1-.282.071,18.579,18.579,0,0,1-1.255-2.873C171.754,97.564,171.89,93.751,173.337,92.405Z" transform="translate(0 -2.078)"/><path class="cls-14" d="M172.7,91.8a12.879,12.879,0,0,1,.985,4.36c.255,4.1-1.1,7.679-3.033,7.992a1.709,1.709,0,0,1-.31.022,17.414,17.414,0,0,1-.472-3.123C169.6,96.737,170.826,92.908,172.7,91.8Z" transform="translate(0 -2.078)"/><path class="cls-14" d="M168.731,104.425a13.352,13.352,0,0,1-2.693-3.509c-1.893-3.485-2.039-6.958-.326-7.759a1.81,1.81,0,0,1,.286-.1A17.369,17.369,0,0,1,167.7,95.63C169.7,99.3,170.068,102.952,168.731,104.425Z" transform="translate(0 -2.078)"/><path class="cls-14" d="M162.488,104.427a12.88,12.88,0,0,1-.373-4.358c.285-4.022,2.03-7.348,3.9-7.43a1.619,1.619,0,0,1,.3.014,17.465,17.465,0,0,1,.046,3.095C166.053,99.979,164.4,103.566,162.488,104.427Z" transform="translate(0 -2.078)"/><path class="cls-14" d="M157.4,103.545a15.03,15.03,0,0,1,1.473-4.365c1.923-3.837,4.866-6.553,6.574-6.068a1.427,1.427,0,0,1,.259.1,20.68,20.68,0,0,1-1.243,3.033C162.443,100.285,159.475,103.284,157.4,103.545Z" transform="translate(0 -2.078)"/><path class="cls-14" d="M193.44,82.3a19.452,19.452,0,0,1,4.244-2.405c4.162-1.766,8.193-2.139,9-.833a.979.979,0,0,1,.1.221,26.706,26.706,0,0,1-3.1,1.55C199.313,82.691,195.056,83.258,193.44,82.3Z" transform="translate(0 -2.078)"/><path class="cls-14" d="M192.818,82.936a19.625,19.625,0,0,1,4.778-1.592c4.548-.941,8.642-.455,9.145,1.087a1.1,1.1,0,0,1,.05.252,26.643,26.643,0,0,1-3.442.947C198.565,84.62,194.2,84.288,192.818,82.936Z" transform="translate(0 -2.078)"/><path class="cls-14" d="M208.772,84.9a19.787,19.787,0,0,1-4.837,1.467c-4.584.824-8.663.234-9.112-1.318a1.043,1.043,0,0,1-.04-.253,27.035,27.035,0,0,1,3.477-.858C203.082,83.067,207.437,83.511,208.772,84.9Z" transform="translate(0 -2.078)"/><path class="cls-14" d="M207.018,89.958a21.641,21.641,0,0,1-5.172-.587c-4.595-1.051-7.971-3.144-7.54-4.674a1.066,1.066,0,0,1,.1-.237,28.839,28.839,0,0,1,3.611.594C202.851,86.16,206.555,88.231,207.018,89.958Z" transform="translate(0 -2.078)"/><path class="cls-14" d="M204.56,93.9a20.442,20.442,0,0,1-4.659-2.085c-3.919-2.342-6.249-5.282-5.2-6.567a1.286,1.286,0,0,1,.193-.19,26.8,26.8,0,0,1,3.177,1.627C202.189,89.149,204.84,92.167,204.56,93.9Z" transform="translate(0 -2.078)"/><path class="cls-14" d="M185.7,89.155a17.133,17.133,0,0,1,4,2.418c3.257,2.6,4.906,5.621,3.683,6.755a1.428,1.428,0,0,1-.218.164,22.4,22.4,0,0,1-2.69-1.845C187.053,93.915,185.117,90.787,185.7,89.155Z" transform="translate(0 -2.078)"/><path class="cls-14" d="M184.8,88.908a14.29,14.29,0,0,1,3.249,3.147c2.446,3.214,3.146,6.613,1.564,7.595a1.73,1.73,0,0,1-.269.134,18.508,18.508,0,0,1-2.115-2.343C184.652,94.061,183.7,90.508,184.8,88.908Z" transform="translate(0 -2.078)"/><path class="cls-14" d="M187.454,102.181a14.091,14.091,0,0,1-3.127-3.241c-2.325-3.287-2.9-6.714-1.293-7.656a1.621,1.621,0,0,1,.273-.128,18.446,18.446,0,0,1,2.025,2.4C187.778,97.018,188.606,100.606,187.454,102.181Z" transform="translate(0 -2.078)"/><path class="cls-14" d="M181.219,102.727a12.946,12.946,0,0,1-.915-4.285c-.217-4.008,1.11-7.454,2.964-7.7a1.645,1.645,0,0,1,.3-.012A17.363,17.363,0,0,1,184,93.8C184.225,98.011,183.023,101.707,181.219,102.727Z" transform="translate(0 -2.078)"/><path class="cls-14" d="M176.948,102.884a13.862,13.862,0,0,1-.149-4.48c.475-4.1,2.339-7.395,4.163-7.367a1.54,1.54,0,0,1,.288.033,18.887,18.887,0,0,1-.108,3.168C180.642,98.548,178.855,102.118,176.948,102.884Z" transform="translate(0 -2.078)"/><path class="cls-14" d="M201.773,96.394a17.116,17.116,0,0,1-4.343-2.061c-3.6-2.341-5.6-5.327-4.473-6.671a1.545,1.545,0,0,1,.205-.2,22.256,22.256,0,0,1,2.943,1.617C199.892,91.542,202.2,94.6,201.773,96.394Z" transform="translate(0 -2.078)"/><path class="cls-14" d="M196.085,98.739a14.543,14.543,0,0,1-2.686-3.676c-1.9-3.628-2.1-7.194-.447-7.967a1.627,1.627,0,0,1,.277-.1,19.111,19.111,0,0,1,1.707,2.693C196.94,93.507,197.365,97.267,196.085,98.739Z" transform="translate(0 -2.078)"/><path class="cls-15" d="M217.413,134.794,142.55,135V74.019l74.834.215c-7.412,1.834-13.155,14.687-13.155,30.28S209.986,132.988,217.413,134.794Z" transform="translate(0 -2.078)"/><path class="cls-16" d="M237.221,104.533c0,15.517-7.136,28.317-16.359,30.157h-.018a11.655,11.655,0,0,1-2.267.22,12.176,12.176,0,0,1-2.214-.207c-9.258-1.786-16.437-14.613-16.437-30.17s7.16-28.357,16.4-30.17a11.964,11.964,0,0,1,2.25-.214,11.316,11.316,0,0,1,2.285.227C230.085,76.21,237.221,89.01,237.221,104.533Z" transform="translate(0 -2.078)"/><path class="cls-15" d="M142.549,74.149v60.984c-8.865,0-16.11-12.736-16.594-28.773-.018-.566-.026-1.141-.026-1.716,0-.741.014-1.472.041-2.2,0-.006,0-.015,0-.021.009-.153.015-.306.023-.46q.045-1.017.13-2.014c.024-.259.047-.516.071-.772.068-.693.15-1.377.242-2.053l0-.011c.009-.053.015-.109.023-.165q.195-1.363.452-2.675c.011-.065.026-.127.038-.192s.029-.144.044-.215c.071-.339.142-.672.218-1,.053-.236.109-.469.165-.7v0c.015-.056.03-.109.045-.165.068-.283.141-.566.218-.843l.009-.036a1.032,1.032,0,0,1,.029-.1c.151-.563.316-1.118.487-1.66.032-.106.068-.209.1-.316.089-.265.177-.525.266-.784v0c.079-.227.159-.448.241-.669.1-.28.207-.558.316-.829.038-.1.077-.192.115-.289.077-.189.156-.377.233-.563l.15-.345c.089-.2.18-.4.275-.6.265-.584.548-1.15.843-1.7.024-.047.047-.091.074-.139.047-.088.094-.176.147-.265.165-.3.339-.6.516-.89q.474-.787.985-1.5a.7.7,0,0,1,.071-.1,19.983,19.983,0,0,1,1.979-2.377c.191-.195.386-.383.581-.566a13.9,13.9,0,0,1,2.341-1.772c.041-.024.08-.051.121-.071a10.093,10.093,0,0,1,4.182-1.383c.047,0,.094-.009.144-.012C142.08,74.157,142.313,74.149,142.549,74.149Z" transform="translate(0 -2.078)"/><ellipse class="cls-17" cx="219.637" cy="102.563" rx="13.302" ry="21.75"/><ellipse class="cls-18" cx="219.637" cy="102.563" rx="8.157" ry="13.338"/><path class="cls-14" d="M192.918,74.161s-6.888,3.427-7.083,10.675c0,0-11.2,3.522-11.448,3.015S157.8,76.375,157.8,76.375l8.776-3.806,18.5.094Z" transform="translate(0 -2.078)"/><path class="cls-19" d="M187.073,94a6.088,6.088,0,0,1-.289.684,8.829,8.829,0,0,1-1.761,2.4c-.056.059-.109.112-.168.168a15.749,15.749,0,0,1-2.716,2.044l-.2.124a28,28,0,0,1-3.441,1.707c-.047.02-.094.041-.142.059q-1.614.672-3.456,1.259c-.141.047-.286.091-.43.138q-1.514.47-3.162.891l-.51.127c-.949.236-1.931.46-2.937.669l-.428.089c-1.052.215-2.135.415-3.24.607l-.537.088h0c-1.124.189-2.268.36-3.436.522-.026,0-.05.009-.076.012-.811.112-1.634.215-2.463.316-.5.062-1.008.118-1.507.174-.315.035-.628.067-.94.1q-1.345.136-2.663.245-.69.057-1.372.106-1.485.106-2.922.165c-.28.015-.557.023-.835.032q-1.936.067-3.768.048-.336,0-.667-.009c-.15,0-.3-.006-.451-.012-.773-.021-1.522-.053-2.259-.1h0c-.23-.012-.457-.03-.681-.045q-1.809-.136-3.456-.386h0c-.272-.041-.537-.085-.8-.13-.985-.171-1.923-.377-2.8-.619-.318-.088-.631-.183-.935-.28a18.032,18.032,0,0,1-2.365-.932c-.118-.056-.236-.115-.351-.174a11.125,11.125,0,0,1-2.521-1.742c-.053-.051-.106-.1-.156-.154-.077-.07-.151-.147-.222-.224q.045-1.017.13-2.014c.024-.259.047-.516.071-.772.068-.693.15-1.377.242-2.053a8.92,8.92,0,0,1-2.48.068c0-.009,0-.017,0-.026,0-.068-.006-.139-.006-.207a7.206,7.206,0,0,1,.026-.87,21.456,21.456,0,0,1,2.941-1.816c.011-.065.026-.127.038-.192a18.718,18.718,0,0,1-2.5-.162c.056-.165.121-.333.189-.5.079-.192.165-.38.259-.572a23.054,23.054,0,0,1,2.312.012c.053-.236.109-.469.165-.7v0l-.008-.059-.018-.133c-.035-.268-.059-.533-.071-.8,0-.02,0-.041,0-.062,0-.047,0-.1,0-.147a10.2,10.2,0,0,1-1.061-.215,15.839,15.839,0,0,1,1.162-1.366c.076-.085.159-.168.244-.253.065-.068.133-.136.2-.2.227-.227.466-.448.711-.666v0c.215-.195.439-.389.669-.578.31-.259.634-.516.97-.767.047-.035.092-.07.142-.109h.006c.256-.191.525-.38.8-.566.4-.28.82-.551,1.253-.822h0c.212-.13.431-.26.652-.39l.091-.053c.313-.183.634-.365.962-.539.121-.068.241-.133.365-.2q.469-.248.956-.486.463-.231.946-.452l.112-.053.316-.141c.094-.044.189-.086.286-.127q.553-.248,1.124-.478.659-.27,1.338-.525c.375-.138.752-.274,1.139-.406q.282-.1.575-.195c.433-.147.87-.286,1.315-.422.086-.026.171-.053.26-.079.144-.045.289-.086.433-.127l.009,0,.492-.142c.322-.091.646-.177.973-.262.21-.056.422-.109.635-.162s.439-.109.663-.162c.13-.033.26-.062.389-.092.033-.009.065-.015.1-.023.283-.065.566-.127.855-.189l.548-.115q.853-.172,1.731-.324a.483.483,0,0,1,.062-.012c.059-.012.118-.024.18-.033,1.047-.18,2.118-.336,3.2-.466.088-.011.18-.02.268-.029.127-.018.254-.032.381-.044a.017.017,0,0,1,.017,0c.366-.045.729-.08,1.088-.112.319-.03.634-.059.95-.08.348-.029.7-.056,1.044-.077h.006c.02,0,.038,0,.056,0,.109-.005.218-.014.324-.017a1.25,1.25,0,0,1,.148-.009c.085-.006.168-.009.25-.012.295-.018.587-.029.879-.038.41-.015.817-.027,1.224-.033.168,0,.339-.006.507-.006.3,0,.6,0,.894,0h.227l.188,0c1.059.015,2.1.056,3.123.127.21.012.419.027.629.047.265.018.53.042.793.065s.548.053.817.083c.321.035.643.074.958.115q.274.03.54.071c.215.029.427.059.64.094.171.024.339.05.5.08.13.017.26.041.386.061s.257.045.387.068q.756.138,1.492.292l.171.039.4.088.407.1c.416.1.826.2,1.23.313.463.127.92.259,1.365.4l.372.121c.389.127.763.256,1.135.395h.006c.159.056.312.115.466.177h0c.557.212,1.1.436,1.616.672a.5.5,0,0,0,.062.03q.667.3,1.288.637c.3.156.59.321.873.486.319.186.622.378.92.575.083.053.163.109.245.168h0c.218.148.428.3.634.457.3.227.593.46.87.7.165.141.324.289.481.439.18.168.351.342.516.519.124.133.245.269.362.4a11.691,11.691,0,0,1,.755.991v0a9.231,9.231,0,0,1,.764,1.362v0a1.319,1.319,0,0,1,.056.127v0a8.006,8.006,0,0,1,.563,1.884c.033.192.057.38.074.569,0,.036.009.074.009.109A6.637,6.637,0,0,1,187.073,94Z" transform="translate(0 -2.078)"/><path class="cls-19" d="M134.451,95.488c-.186.086-.377.168-.575.251a18.8,18.8,0,0,1-4.061,1.1h0c-.23.038-.463.07-.7.1h0c-.054.009-.11.015-.163.02-.1.012-.2.024-.3.033h0a20.581,20.581,0,0,1-2.126.124h-.006a.7.7,0,0,1-.079,0c-.531,0-1.047-.015-1.54-.053h-.008c-.325-.024-.637-.059-.944-.1s-.593-.085-.876-.141c.274-.242.575-.484.9-.729a21.456,21.456,0,0,1,2.941-1.816c.011-.065.026-.127.038-.192a18.718,18.718,0,0,1-2.5-.162,7.554,7.554,0,0,1-2.619-.763q.5-.081,1.009-.142c.1-.012.192-.024.286-.032.6-.065,1.191-.11,1.772-.133a23.054,23.054,0,0,1,2.312.012c.107,0,.21.009.31.017.693.048,1.357.127,1.979.233h.006a13.8,13.8,0,0,1,2.25.578c.1.036.2.074.3.112a7.538,7.538,0,0,1,.822.378,5.042,5.042,0,0,1,.794.5,3.564,3.564,0,0,1,.663.643C134.374,95.379,134.416,95.435,134.451,95.488Z" transform="translate(0 -2.078)"/><path class="cls-19" d="M135.309,93.981c-.132.018-.271.036-.41.05-.628.074-1.306.124-2.02.151-.442.015-.9.023-1.371.017-.622,0-1.265-.026-1.923-.067-.377-.024-.746-.053-1.108-.089-.207-.02-.41-.041-.611-.065-.1-.009-.195-.02-.292-.035h0c-.194-.024-.386-.047-.575-.074-.846-.124-1.64-.274-2.353-.445-.552-.133-1.059-.28-1.513-.439.6-.065,1.191-.11,1.772-.133a23.054,23.054,0,0,1,2.312.012c.053-.236.109-.469.165-.7v0l-.008-.059-.018-.133c-.035-.268-.059-.533-.071-.8,0-.02,0-.041,0-.062.08.009.159.018.239.03l.124.018a25.85,25.85,0,0,1,4.822,1.079,10.609,10.609,0,0,1,1.436.6h0a5.318,5.318,0,0,1,.557.325,3.015,3.015,0,0,1,.634.525,1.775,1.775,0,0,1,.133.168A1.082,1.082,0,0,1,135.309,93.981Z" transform="translate(0 -2.078)"/><path class="cls-19" d="M136.362,93.731c-.2,0-.4-.006-.6-.015-.095,0-.192-.009-.289-.015-.124-.006-.248-.012-.375-.023-.637-.045-1.3-.118-1.991-.222H133.1l-.384-.062h0c-.637-.1-1.288-.232-1.949-.389-.192-.044-.383-.091-.569-.141h0a25.209,25.209,0,0,1-2.763-.87l-.071-.027c-.035-.268-.059-.533-.071-.8,0-.02,0-.041,0-.062,0-.047,0-.1,0-.147a10.2,10.2,0,0,1-1.061-.215,4.7,4.7,0,0,1-3.144-2,.865.865,0,0,1,.089-.436,1.013,1.013,0,0,1,.144-.224c1.05.124,2.153.3,3.279.548h0c.2.042.4.089.6.136.094.024.189.044.283.068.118.029.236.059.351.085.15.042.3.08.445.118a26.605,26.605,0,0,1,4.662,1.69h0c.16.077.313.156.46.233l0,0c.145.074.278.147.41.224h0a10.561,10.561,0,0,1,1.236.811,5.123,5.123,0,0,1,.711.643l0,0c.041.041.079.085.115.126a2.693,2.693,0,0,1,.238.334c.033.05.062.1.089.15A1.6,1.6,0,0,1,136.362,93.731Z" transform="translate(0 -2.078)"/><path class="cls-19" d="M136.129,91.148c-.006.017-.015.035-.023.053a1.258,1.258,0,0,1-.154.221c-.256-.036-.516-.074-.778-.118-.581-.094-1.177-.209-1.779-.342l0,0c-.247-.053-.5-.109-.749-.171q-.268-.066-.539-.136a30.236,30.236,0,0,1-3.937-1.3c-.186-.074-.369-.153-.546-.23-.065-.03-.126-.056-.188-.083q-.443-.2-.847-.41h0a12.348,12.348,0,0,1-2.132-1.338c.6-.142,1.218-.26,1.858-.348l.242-.033a4.206,4.206,0,0,1-2-1.338,26.715,26.715,0,0,1,3.805.669c.118.027.233.056.35.086.169.044.334.088.5.135.274.074.543.154.8.236l.3.1h.006a20.813,20.813,0,0,1,3.241,1.348c.309.162.595.33.858.5a5.783,5.783,0,0,1,1.377,1.165A1.269,1.269,0,0,1,136.129,91.148Z" transform="translate(0 -2.078)"/><path class="cls-19" d="M128.541,82.24a3.108,3.108,0,0,0,.292,2.589h0c.039.091.086.182.133.277.032.056.062.112.094.171.112.2.236.41.375.622.171.262.36.528.572.8.021.027.041.053.062.083h0c.029.041.062.082.1.123.28.351.593.708.935,1.065a21.484,21.484,0,0,0,2.064,1.887q.394.318.8.61c.4.3.8.575,1.207.838.292.189.584.371.875.542a1.976,1.976,0,0,0,.272-.15,1.329,1.329,0,0,0,.572-.858,4.03,4.03,0,0,0-.885-2.766c-.138-.209-.3-.427-.463-.646a14.642,14.642,0,0,0-1.35-1.5h0q-.5-.486-1.077-.964c-.041-.035-.082-.068-.127-.1v0l-.085-.068a20.025,20.025,0,0,0-2.2-1.536c-.094-.059-.189-.115-.283-.168-.478-.28-.956-.528-1.422-.746h0Z" transform="translate(0 -2.078)"/><path class="cls-19" d="M133.822,80.023a13.607,13.607,0,0,1,2.717,3.623c1.842,3.519,1.768,6.852-.163,7.445a2.133,2.133,0,0,1-.321.071,17.2,17.2,0,0,1-1.7-2.635C132.42,84.825,132.256,81.3,133.822,80.023Z" transform="translate(0 -2.078)"/><path class="cls-19" d="M141.926,87.154a12.531,12.531,0,0,1-4.036-2.39c-2.985-2.635-3.679-5.844-1.551-7.167a3.342,3.342,0,0,1,.36-.193,15.048,15.048,0,0,1,2.609,1.847C142.448,82.023,143.466,85.326,141.926,87.154Z" transform="translate(0 -2.078)"/><path class="cls-19" d="M144.7,87.378a14.212,14.212,0,0,1-2.739-3.194c-1.981-3.121-2.311-6.118-.736-6.694a1.627,1.627,0,0,1,.264-.071,17.946,17.946,0,0,1,1.755,2.329C145.325,83.03,145.879,86.2,144.7,87.378Z" transform="translate(0 -2.078)"/><path class="cls-19" d="M145.434,87.851a11.07,11.07,0,0,1-1.757-3.574c-.991-3.391-.3-6.417,1.548-6.761a1.994,1.994,0,0,1,.3-.031,14.249,14.249,0,0,1,1.028,2.57C147.6,83.622,147.079,86.852,145.434,87.851Z" transform="translate(0 -2.078)"/><path class="cls-19" d="M148.21,76.058a10.863,10.863,0,0,1,1.608,3.616c.851,3.416.035,6.429-1.822,6.732a2.017,2.017,0,0,1-.3.025,13.935,13.935,0,0,1-.921-2.6C145.878,80.243,146.527,77.022,148.21,76.058Z" transform="translate(0 -2.078)"/><path class="cls-19" d="M161.006,85.338a21.839,21.839,0,0,0,4.224-2.957c3.388-3,4.967-6.131,3.528-6.994a1.4,1.4,0,0,0-.253-.118,27.858,27.858,0,0,0-2.822,2.195C162.119,80.62,160.23,83.9,161.006,85.338Z" transform="translate(0 -2.078)"/><path class="cls-19" d="M160.026,85.724a16.664,16.664,0,0,0,3.335-3.518c2.445-3.444,2.948-6.77,1.125-7.428a2.017,2.017,0,0,0-.308-.082,21.034,21.034,0,0,0-2.148,2.568C159.458,80.887,158.685,84.4,160.026,85.724Z" transform="translate(0 -2.078)"/><path class="cls-19" d="M161.311,73.533a16.174,16.174,0,0,0-3.193,3.586c-2.306,3.493-2.673,6.824-.821,7.441a1.933,1.933,0,0,0,.311.074,20.341,20.341,0,0,0,2.045-2.61C162.078,78.349,162.707,74.824,161.311,73.533Z" transform="translate(0 -2.078)"/><path class="cls-19" d="M154.389,74.071a11.261,11.261,0,0,0-.671,4.2c.078,3.817,1.815,6.844,3.88,6.76a2.126,2.126,0,0,0,.329-.039,14.614,14.614,0,0,0,.234-2.961C158.079,78.012,156.459,74.729,154.389,74.071Z" transform="translate(0 -2.078)"/><path class="cls-19" d="M149.673,74.713a10.865,10.865,0,0,0,.138,4.2c.811,3.75,3.121,6.55,5.162,6.254a2.152,2.152,0,0,0,.32-.073,14.469,14.469,0,0,0-.336-2.939C154.1,78.21,151.861,75.146,149.673,74.713Z" transform="translate(0 -2.078)"/><path class="cls-19" d="M168.287,86.148a10.954,10.954,0,0,1-.1-4.2c.587-3.828,2.71-6.881,4.742-6.82a2.009,2.009,0,0,1,.32.036,14.858,14.858,0,0,1-.165,2.965C172.463,82.157,170.423,85.467,168.287,86.148Z" transform="translate(0 -2.078)"/><path class="cls-19" d="M168.631,86.9a11.125,11.125,0,0,1,1.181-4.182c1.79-3.7,4.95-6.377,7.059-5.981a2.083,2.083,0,0,1,.324.088,15.547,15.547,0,0,1-1.082,2.914C174.23,83.634,171.077,86.579,168.631,86.9Z" transform="translate(0 -2.078)"/><path class="cls-19" d="M181.02,76.5a11.4,11.4,0,0,1-1.362,4.163c-1.95,3.668-5.221,6.284-7.307,5.844a2.124,2.124,0,0,1-.32-.095,15.976,15.976,0,0,1,1.209-2.9C175.29,79.657,178.566,76.773,181.02,76.5Z" transform="translate(0 -2.078)"/><path class="cls-19" d="M185.785,80.227a19.117,19.117,0,0,1-3.96,3.4c-4.134,2.757-8.7,4.137-10.207,3.082a1.244,1.244,0,0,1-.212-.187,27.408,27.408,0,0,1,2.979-2.281C178.734,81.336,183.487,79.711,185.785,80.227Z" transform="translate(0 -2.078)"/><path class="cls-19" d="M188.806,83.906a26.9,26.9,0,0,1-5.374,2.3c-5.2,1.645-10.095,1.865-10.925.492a.841.841,0,0,1-.1-.23,37.529,37.529,0,0,1,3.9-1.466C181.786,83.269,186.97,82.859,188.806,83.906Z" transform="translate(0 -2.078)"/><path class="cls-19" d="M137.691,99.679a11.74,11.74,0,0,1-1.1,4.157c-1.66,3.685-4.588,6.37-6.54,6a1.89,1.89,0,0,1-.3-.084,16.225,16.225,0,0,1,1-2.9C132.505,102.973,135.426,100.023,137.691,99.679Z" transform="translate(0 -2.078)"/><path class="cls-19" d="M137.572,98.882a13.03,13.03,0,0,1-2.336,3.943c-2.789,3.373-6.615,5.529-8.547,4.814a1.758,1.758,0,0,1-.29-.137,18.574,18.574,0,0,1,1.88-2.708C131.213,101.245,135.108,98.825,137.572,98.882Z" transform="translate(0 -2.078)"/><path class="cls-19" d="M134.136,98.844c-.086.138-.174.28-.269.421-.026.042-.056.086-.085.127-.272.41-.575.823-.9,1.241l0,0c-.224.283-.46.566-.713.85l0,0a.218.218,0,0,1-.021.026,22.674,22.674,0,0,1-2.9,2.745c-.43.342-.867.658-1.3.947a16.5,16.5,0,0,1-1.991,1.153c-.018-.566-.026-1.141-.026-1.716,0-.741.014-1.472.041-2.2a.1.1,0,0,1-.027.009.27.27,0,0,1,.027-.03c.079-.079.162-.159.245-.236q.513-.5,1.044-.931l0,0a16.022,16.022,0,0,1,2.5-1.708,10.848,10.848,0,0,1,1.3-.6c.121-.047.242-.089.357-.124h0a5.706,5.706,0,0,1,.923-.227,2.958,2.958,0,0,1,1.434.082.441.441,0,0,1,.067.024A1.6,1.6,0,0,1,134.136,98.844Z" transform="translate(0 -2.078)"/><path class="cls-19" d="M134.773,98.835c-.236.138-.478.277-.726.413-.029.017-.062.035-.094.05-.056.032-.112.065-.171.094-.788.425-1.64.84-2.548,1.236-.534.232-1.071.451-1.6.651a33.915,33.915,0,0,1-3.262,1.065c-.136.035-.268.07-.4.1a.1.1,0,0,1-.027.009.27.27,0,0,1,.027-.03c.009-.153.015-.306.023-.46q.045-1.017.13-2.014c.024-.259.047-.516.071-.772.386-.13.77-.251,1.147-.363a20.582,20.582,0,0,1,3.99-.8h0c.159-.015.31-.027.46-.032.2-.009.386-.015.566-.012h0a5.958,5.958,0,0,1,1.147.112h0a2.266,2.266,0,0,1,.95.389,1.346,1.346,0,0,1,.156.145A1.169,1.169,0,0,1,134.773,98.835Z" transform="translate(0 -2.078)"/><path class="cls-19" d="M133.755,98.49a.972.972,0,0,0-.242-.407h0a2.253,2.253,0,0,0-.766-.493,4.7,4.7,0,0,0-.478-.177h0A10.813,10.813,0,0,0,129.992,97h0c-.28-.027-.572-.047-.876-.062h0c-.133-.006-.269-.012-.4-.015q-.544-.018-1.124-.009c-.363.006-.737.018-1.121.039-.507.023-1.029.061-1.563.112h-.008c-.307.032-.623.067-.938.106-.03,0-.062.009-.095.012a.661.661,0,0,0,.1.014,8.92,8.92,0,0,0,2.48-.068c-.092.676-.174,1.36-.242,2.053-.024.256-.047.513-.071.772.2-.012.395-.026.6-.044h0c.923-.074,1.881-.186,2.857-.33.062-.009.124-.018.183-.03.325-.047.646-.1.962-.156a.135.135,0,0,1,.035-.006c.787-.138,1.542-.3,2.265-.466.256-.062.51-.124.758-.188v-.054A.8.8,0,0,0,133.755,98.49Z" transform="translate(0 -2.078)"/><path class="cls-19" d="M152.234,100.047A13.42,13.42,0,0,1,154.571,104c1.489,3.83,1.121,7.426-.822,8.032a1.923,1.923,0,0,1-.32.071A17.4,17.4,0,0,1,152,109.234C150.435,105.205,150.589,101.392,152.234,100.047Z" transform="translate(0 -2.078)"/><path class="cls-19" d="M151.508,99.442a11.589,11.589,0,0,1,1.12,4.36c.29,4.1-1.254,7.679-3.449,7.992a2.2,2.2,0,0,1-.352.022,15.417,15.417,0,0,1-.537-3.123C147.985,104.379,149.38,100.549,151.508,99.442Z" transform="translate(0 -2.078)"/><path class="cls-19" d="M147,112.066a13.733,13.733,0,0,1-3.062-3.509c-2.152-3.485-2.318-6.958-.371-7.759a2.25,2.25,0,0,1,.326-.1,17.421,17.421,0,0,1,1.94,2.578C148.094,106.937,148.518,110.593,147,112.066Z" transform="translate(0 -2.078)"/><path class="cls-19" d="M139.9,112.068a11.409,11.409,0,0,1-.424-4.358c.325-4.022,2.308-7.348,4.431-7.43a2.2,2.2,0,0,1,.336.014,15.358,15.358,0,0,1,.052,3.095C143.952,107.62,142.074,111.207,139.9,112.068Z" transform="translate(0 -2.078)"/><path class="cls-19" d="M134.116,111.186a13.816,13.816,0,0,1,1.675-4.365c2.187-3.837,5.533-6.553,7.475-6.068a1.741,1.741,0,0,1,.3.1,19.408,19.408,0,0,1-1.413,3.033C139.847,107.926,136.472,110.925,134.116,111.186Z" transform="translate(0 -2.078)"/><path class="cls-19" d="M175.094,89.941a23.021,23.021,0,0,1,4.826-2.405c4.732-1.766,9.316-2.139,10.239-.832a.907.907,0,0,1,.115.22,32.086,32.086,0,0,1-3.524,1.55C181.772,90.332,176.931,90.9,175.094,89.941Z" transform="translate(0 -2.078)"/><path class="cls-19" d="M174.387,90.578a24.377,24.377,0,0,1,5.433-1.592c5.171-.942,9.826-.456,10.4,1.086a1.018,1.018,0,0,1,.056.252,33.629,33.629,0,0,1-3.913.947C180.922,92.262,175.96,91.929,174.387,90.578Z" transform="translate(0 -2.078)"/><path class="cls-19" d="M192.528,92.537a24.82,24.82,0,0,1-5.5,1.467c-5.213.824-9.851.234-10.361-1.318a.924.924,0,0,1-.046-.253,34.226,34.226,0,0,1,3.954-.858C186.058,90.709,191.01,91.152,192.528,92.537Z" transform="translate(0 -2.078)"/><path class="cls-19" d="M190.533,97.6a27.854,27.854,0,0,1-5.881-.587c-5.225-1.051-9.063-3.144-8.574-4.674a.993.993,0,0,1,.114-.237,36.946,36.946,0,0,1,4.106.594C185.794,93.8,190.007,95.872,190.533,97.6Z" transform="translate(0 -2.078)"/><path class="cls-19" d="M187.739,101.542a24.92,24.92,0,0,1-5.3-2.085c-4.457-2.342-7.106-5.282-5.918-6.567a1.35,1.35,0,0,1,.22-.189,32.1,32.1,0,0,1,3.612,1.626C185.043,96.791,188.057,99.809,187.739,101.542Z" transform="translate(0 -2.078)"/><path class="cls-19" d="M166.3,96.8a20.164,20.164,0,0,1,4.55,2.419c3.7,2.6,5.578,5.621,4.187,6.755a1.625,1.625,0,0,1-.247.163,25.865,25.865,0,0,1-3.059-1.845C167.831,101.556,165.63,98.428,166.3,96.8Z" transform="translate(0 -2.078)"/><path class="cls-19" d="M165.265,96.549a15.519,15.519,0,0,1,3.7,3.147c2.781,3.214,3.578,6.614,1.779,7.595a2.1,2.1,0,0,1-.306.134,19.52,19.52,0,0,1-2.405-2.342C165.1,101.7,164.014,98.149,165.265,96.549Z" transform="translate(0 -2.078)"/><path class="cls-19" d="M168.287,109.822a15.14,15.14,0,0,1-3.556-3.241c-2.644-3.286-3.3-6.714-1.47-7.656a2.019,2.019,0,0,1,.31-.128,19.137,19.137,0,0,1,2.3,2.405C168.655,104.659,169.6,108.247,168.287,109.822Z" transform="translate(0 -2.078)"/><path class="cls-19" d="M161.2,110.368a11.64,11.64,0,0,1-1.042-4.285c-.246-4.008,1.263-7.453,3.371-7.7a2.252,2.252,0,0,1,.338-.012,15.47,15.47,0,0,1,.491,3.062C164.615,105.652,163.248,109.348,161.2,110.368Z" transform="translate(0 -2.078)"/><path class="cls-19" d="M156.341,110.525a12.23,12.23,0,0,1-.17-4.48c.541-4.1,2.66-7.394,4.734-7.366a1.868,1.868,0,0,1,.327.032,16.538,16.538,0,0,1-.122,3.168C160.541,106.189,158.509,109.759,156.341,110.525Z" transform="translate(0 -2.078)"/><path class="cls-19" d="M184.57,104.035a20.746,20.746,0,0,1-4.939-2.061c-4.094-2.341-6.371-5.327-5.086-6.671a1.616,1.616,0,0,1,.233-.2,26.685,26.685,0,0,1,3.346,1.617C182.431,99.183,185.054,102.243,184.57,104.035Z" transform="translate(0 -2.078)"/><path class="cls-19" d="M178.1,106.381a14.818,14.818,0,0,1-3.053-3.676c-2.166-3.629-2.394-7.195-.51-7.968a1.964,1.964,0,0,1,.316-.1,18.945,18.945,0,0,1,1.941,2.692C179.074,101.148,179.557,104.908,178.1,106.381Z" transform="translate(0 -2.078)"/><path class="cls-14" d="M194.783,75.941a12.441,12.441,0,0,1-4.2.13c-3.833-.482-6.9-2.32-6.859-4.106a1.552,1.552,0,0,1,.033-.282,16.8,16.8,0,0,1,2.967.117C190.757,72.307,194.084,74.07,194.783,75.941Z" transform="translate(0 -2.078)"/><path class="cls-14" d="M194.175,79.48a19.45,19.45,0,0,1-5.25-.384c-4.752-.95-8.464-3.162-8.291-4.942a1.241,1.241,0,0,1,.06-.278,26.381,26.381,0,0,1,3.7.481C189.39,75.356,193.425,77.525,194.175,79.48Z" transform="translate(0 -2.078)"/><path class="cls-14" d="M181.962,76.935a12.439,12.439,0,0,1,4.017,1.232c3.473,1.691,5.787,4.421,5.169,6.1a1.582,1.582,0,0,1-.122.256,16.881,16.881,0,0,1-2.771-1.068C184.6,81.674,182.021,78.932,181.962,76.935Z" transform="translate(0 -2.078)"/><path class="cls-20" d="M183.118,86.3c-.006.083-.015.165-.027.248a7.383,7.383,0,0,1-.294,1.391c-.071.23-.154.455-.245.676a.1.1,0,0,1-.012.026,8.245,8.245,0,0,1-.666,1.262A9.939,9.939,0,0,1,181,91.077c-.05.059-.1.115-.154.174-.1.112-.206.224-.315.333-.086.088-.171.174-.26.259-.244.236-.507.472-.784.7q-.486.4-1.029.785c-.024.017-.042.032-.065.05h0c-.038.023-.074.05-.112.073-.13.092-.26.177-.392.263-.239.156-.484.31-.738.457-.212.13-.43.254-.654.374-.384.216-.782.422-1.195.623a.39.39,0,0,1-.047.02c-.041.021-.079.042-.121.059h0c-.262.127-.528.254-.8.375s-.578.253-.876.374c-.442.183-.9.363-1.362.534-.124.047-.251.091-.378.138-.887.319-1.816.62-2.78.906-.148.044-.3.085-.449.129-.026.009-.053.015-.079.024h0c-.363.1-.729.2-1.1.3h0c-.322.085-.643.171-.97.25l-.425.107-.374.088c-.248.059-.5.115-.747.171l-.8.177c-.1.021-.2.041-.3.065h0c-.177.035-.354.074-.531.109-.157.032-.316.065-.475.094s-.316.062-.472.1c-.068.011-.138.023-.206.038-.242.044-.484.091-.729.136-.684.123-1.383.241-2.088.353a.444.444,0,0,1-.067.012l-.331.053c-.6.095-1.215.183-1.831.269-.445.062-.888.121-1.327.174-.277.038-.552.07-.826.1-.719.085-1.436.165-2.141.23-.068.009-.135.015-.2.02-.148.015-.3.03-.445.042l-.292.026c-.157.015-.313.027-.469.039q-.6.052-1.189.091c-.463.03-.923.056-1.377.08-.248.011-.492.023-.737.032-1.136.044-2.244.062-3.318.047-.106,0-.209,0-.312,0-.071,0-.142,0-.21,0a.422.422,0,0,0-.062,0c-.165,0-.327-.008-.489-.014-.062,0-.121,0-.183-.006h0q-.406-.013-.808-.036c-.038,0-.077,0-.115,0-.159-.009-.318-.018-.478-.03-.1-.006-.206-.015-.309-.021-.2-.014-.4-.029-.6-.047-1.062-.091-2.079-.221-3.043-.4-.124-.018-.248-.041-.369-.065s-.227-.041-.339-.065-.192-.038-.286-.059c-.168-.035-.336-.073-.5-.112h0c-.581-.135-1.136-.289-1.67-.46a.635.635,0,0,1-.07-.023c-.26-.083-.514-.168-.758-.263a.314.314,0,0,1-.059-.02.73.73,0,0,1-.086-.033q-.433-.163-.84-.345c-.233-.1-.457-.212-.676-.324-.141-.071-.28-.145-.415-.221-.107-.059-.21-.118-.31-.18s-.195-.118-.292-.18h0A10.106,10.106,0,0,1,129.992,97h0c-.059-.053-.118-.106-.174-.162h0c-.141-.133-.274-.272-.4-.413-.047-.05-.094-.1-.138-.154a7.78,7.78,0,0,1-1.366-2.2c-.014-.03-.026-.059-.038-.092s-.038-.1-.056-.147a7.435,7.435,0,0,1-.286-.95c-.059-.233-.106-.474-.145-.719v0l-.008-.059-.018-.133c-.035-.268-.059-.533-.071-.8,0-.02,0-.041,0-.062,0-.047,0-.1,0-.147a9.11,9.11,0,0,1,.1-1.581c.014-.112.035-.224.056-.336.011-.068.023-.138.038-.206a10.391,10.391,0,0,1,.419-1.477c.067-.195.144-.387.227-.581.073-.177.153-.357.242-.534a11.8,11.8,0,0,1,.56-1.047c.015-.029.032-.059.05-.088.05-.083.1-.165.153-.248a16.277,16.277,0,0,1,1.3-1.772c.026-.035.056-.071.085-.106.059-.068.115-.136.177-.2.239-.277.493-.551.758-.819q.615-.628,1.31-1.23c.044-.038.085-.077.129-.112a26.454,26.454,0,0,1,2.377-1.808c.021-.014.036-.026.056-.038h0a.091.091,0,0,1,.021-.015q.849-.575,1.775-1.108c.348-.2.7-.4,1.065-.593a.774.774,0,0,1,.1-.053,38.079,38.079,0,0,1,3.695-1.707c.168-.068.336-.136.507-.2l.071-.026q.831-.32,1.7-.611c.144-.05.292-.1.439-.144q1.142-.372,2.336-.69c.032-.009.062-.018.091-.024q1.376-.367,2.81-.654c.053-.012.107-.021.16-.033q1.385-.27,2.816-.472c.192-.026.383-.053.572-.073l.012,0c1.07-.139,2.132-.236,3.179-.3.074-.009.15-.012.224-.015q1.663-.1,3.279-.077l.162,0q1.4.022,2.749.127c.186.015.371.03.554.047q1.4.129,2.734.339l.563.1c.888.153,1.749.339,2.583.548.242.062.478.124.714.189q1.181.327,2.28.725c.109.039.218.08.327.121a24.824,24.824,0,0,1,2.837,1.265c.018.009.035.021.053.03a19.013,19.013,0,0,1,2.71,1.725c.074.056.148.112.218.171a.114.114,0,0,1,.03.023A14.184,14.184,0,0,1,180.411,79v0c.156.171.3.339.442.513.109.136.215.274.316.413a8.762,8.762,0,0,1,.513.752,10.177,10.177,0,0,1,.826,1.642c.017.044.035.089.05.133.068.174.127.351.18.528s.106.357.15.536.08.351.112.528c.021.106.038.215.053.325.03.194.05.386.065.577l.009.115A7.911,7.911,0,0,1,183.118,86.3Z" transform="translate(0 -2.078)"/><path class="cls-20" d="M136.515,89.455c-.23.121-.468.239-.719.351-.177.08-.36.156-.549.23a13.4,13.4,0,0,1-1.279.43c-.334.1-.679.186-1.036.26h0c-.094.024-.188.041-.286.062q-.406.079-.831.141h0c-.044.009-.092.015-.136.021a15.857,15.857,0,0,1-3.533.109h-.009c-.153-.012-.3-.029-.451-.047s-.271-.032-.4-.056a10.2,10.2,0,0,1-1.061-.215,4.7,4.7,0,0,1-3.144-2,.865.865,0,0,1,.089-.436,1.013,1.013,0,0,1,.144-.224c1.05.124,2.153.3,3.279.548a12.348,12.348,0,0,1-2.132-1.338c.6-.142,1.218-.26,1.858-.348l.242-.033h0c.531-.067,1.053-.112,1.563-.135.33-.018.654-.024.973-.024s.66.012.982.03h0c.079.006.159.008.239.014h.006a12.88,12.88,0,0,1,3.553.726,6.979,6.979,0,0,1,1.256.607h.006A3.887,3.887,0,0,1,136.515,89.455Z" transform="translate(0 -2.078)"/><path class="cls-20" d="M137.267,87.925c-.395.062-.816.112-1.259.147-.283.024-.575.044-.873.056h-.006c-.315.012-.637.021-.967.021-.2,0-.4,0-.6-.006q-.647-.018-1.325-.065-.574-.043-1.129-.109c-.666-.077-1.306-.177-1.905-.3-.145-.029-.289-.059-.428-.091-.306-.068-.6-.145-.884-.224a11.867,11.867,0,0,1-1.336-.446h0a4.206,4.206,0,0,1-2-1.338.939.939,0,0,1-.162-.652.879.879,0,0,1,.062-.221,29.837,29.837,0,0,1,3.539.056c.088.006.177.015.262.021.195.014.387.032.578.053.1.008.195.02.289.029.251.03.5.059.741.092.89.12,1.731.274,2.506.457h0c.277.064.549.135.808.209.357.1.7.2,1.015.312a6.364,6.364,0,0,1,2.884,1.687A1.77,1.77,0,0,1,137.267,87.925Z" transform="translate(0 -2.078)"/><path class="cls-20" d="M128.541,82.24c-.625-.13-1.238-.233-1.831-.313a1.207,1.207,0,0,0-.127.227c-.321.77.345,1.722,1.672,2.622q.31.212.664.418c.047.027.094.053.144.083.168.091.342.186.525.277.469.236.979.463,1.528.675a20.913,20.913,0,0,0,2.153.7c.132.035.265.071.4.1.64.165,1.271.295,1.878.392.531.089,1.041.151,1.534.189v0c.259.021.513.035.758.044.12.006.238.009.356.009a2.337,2.337,0,0,0-.551-1.135,7.9,7.9,0,0,0-2.067-1.687c-.348-.212-.729-.421-1.133-.622-.513-.256-1.064-.5-1.657-.734s-1.206-.445-1.858-.643l-.242-.071c-.183-.056-.371-.109-.56-.159s-.351-.094-.528-.136c-.2-.053-.4-.1-.6-.144Z" transform="translate(0 -2.078)"/><path class="cls-20" d="M126.574,79.279a20.044,20.044,0,0,1,4.892.864c4.258,1.281,7.17,3.5,6.5,4.955a1.241,1.241,0,0,1-.136.224,26.446,26.446,0,0,1-3.385-.782C129.969,83.193,126.737,80.977,126.574,79.279Z" transform="translate(0 -2.078)"/><path class="cls-20" d="M131.355,75.9a16.389,16.389,0,0,1,3.8,2.681c3.024,2.814,4.369,5.956,3,7.02a1.489,1.489,0,0,1-.239.151,21.268,21.268,0,0,1-2.529-2.022C132.209,80.771,130.583,77.506,131.355,75.9Z" transform="translate(0 -2.078)"/><path class="cls-20" d="M135.961,73.734a13.854,13.854,0,0,1,2.39,3.683c1.619,3.578,1.555,6.966-.144,7.569a1.665,1.665,0,0,1-.282.072,18.02,18.02,0,0,1-1.493-2.678C134.728,78.616,134.584,75.028,135.961,73.734Z" transform="translate(0 -2.078)"/><path class="cls-20" d="M143.088,80.984a10.8,10.8,0,0,1-3.549-2.431c-2.625-2.678-3.236-5.94-1.364-7.285a2.627,2.627,0,0,1,.317-.2,13.54,13.54,0,0,1,2.294,1.878C143.547,75.767,144.442,79.125,143.088,80.984Z" transform="translate(0 -2.078)"/><path class="cls-20" d="M145.524,81.211a14.1,14.1,0,0,1-2.409-3.247c-1.742-3.173-2.032-6.219-.647-6.8a1.212,1.212,0,0,1,.233-.072,18.448,18.448,0,0,1,1.543,2.367C146.077,76.791,146.564,80.012,145.524,81.211Z" transform="translate(0 -2.078)"/><path class="cls-20" d="M146.174,81.693a12.033,12.033,0,0,1-1.546-3.634c-.872-3.447-.262-6.524,1.361-6.873a1.465,1.465,0,0,1,.265-.032,15.773,15.773,0,0,1,.9,2.613C148.075,77.393,147.62,80.677,146.174,81.693Z" transform="translate(0 -2.078)"/><path class="cls-20" d="M148.615,69.7a11.95,11.95,0,0,1,1.414,3.676c.748,3.473.03,6.536-1.6,6.844a1.565,1.565,0,0,1-.265.025,15.612,15.612,0,0,1-.81-2.638C146.564,73.957,147.135,70.683,148.615,69.7Z" transform="translate(0 -2.078)"/><path class="cls-20" d="M159.867,79.138a19.385,19.385,0,0,0,3.715-3.007c2.98-3.05,4.369-6.233,3.1-7.111a1.209,1.209,0,0,0-.222-.119,25.241,25.241,0,0,0-2.482,2.231C160.846,74.341,159.185,77.673,159.867,79.138Z" transform="translate(0 -2.078)"/><path class="cls-20" d="M159.005,79.53a16.153,16.153,0,0,0,2.934-3.576c2.15-3.5,2.593-6.883.989-7.552a1.5,1.5,0,0,0-.271-.083,20.919,20.919,0,0,0-1.889,2.61C158.507,74.613,157.826,78.185,159.005,79.53Z" transform="translate(0 -2.078)"/><path class="cls-20" d="M160.136,67.136a15.911,15.911,0,0,0-2.808,3.645c-2.028,3.551-2.351,6.938-.722,7.565a1.538,1.538,0,0,0,.274.076,20.585,20.585,0,0,0,1.8-2.654C160.81,72.032,161.364,68.449,160.136,67.136Z" transform="translate(0 -2.078)"/><path class="cls-20" d="M154.048,67.683a13.1,13.1,0,0,0-.59,4.266c.069,3.881,1.6,6.958,3.413,6.874a1.763,1.763,0,0,0,.289-.04,17.208,17.208,0,0,0,.206-3.011C157.293,71.69,155.869,68.352,154.048,67.683Z" transform="translate(0 -2.078)"/><path class="cls-20" d="M149.9,68.336a12.76,12.76,0,0,0,.121,4.27c.713,3.812,2.745,6.658,4.54,6.357a1.592,1.592,0,0,0,.281-.074,16.934,16.934,0,0,0-.295-2.988C153.8,71.891,151.825,68.775,149.9,68.336Z" transform="translate(0 -2.078)"/><path class="cls-20" d="M166.271,79.961a12.842,12.842,0,0,1-.09-4.269c.517-3.892,2.384-6.995,4.17-6.934a1.544,1.544,0,0,1,.281.037,17.274,17.274,0,0,1-.145,3.015C169.943,75.9,168.149,79.268,166.271,79.961Z" transform="translate(0 -2.078)"/><path class="cls-20" d="M166.574,80.728a12.683,12.683,0,0,1,1.038-4.251c1.574-3.761,4.353-6.483,6.208-6.081a1.689,1.689,0,0,1,.285.09,17.43,17.43,0,0,1-.952,2.963C171.5,77.405,168.725,80.4,166.574,80.728Z" transform="translate(0 -2.078)"/><path class="cls-20" d="M177.469,70.152a12.893,12.893,0,0,1-1.2,4.232c-1.714,3.729-4.59,6.389-6.426,5.941a1.577,1.577,0,0,1-.281-.1,17.865,17.865,0,0,1,1.063-2.944C172.43,73.362,175.31,70.43,177.469,70.152Z" transform="translate(0 -2.078)"/><path class="cls-20" d="M187.143,73.963a17.779,17.779,0,0,1-4.359,2.246c-4.311,1.581-8.565,1.71-9.5.289a1.148,1.148,0,0,1-.12-.237,24.8,24.8,0,0,1,3.2-1.424C180.89,73.174,185.373,72.856,187.143,73.963Z" transform="translate(0 -2.078)"/><path class="cls-20" d="M184.315,77.682a22.119,22.119,0,0,1-4.726,2.336c-4.576,1.672-8.877,1.9-9.607.5a.952.952,0,0,1-.085-.234,30.3,30.3,0,0,1,3.431-1.49C178.142,77.034,182.7,76.617,184.315,77.682Z" transform="translate(0 -2.078)"/><path class="cls-20" d="M139.363,93.716a13.436,13.436,0,0,1-.964,4.227c-1.46,3.746-4.035,6.476-5.752,6.1a1.567,1.567,0,0,1-.264-.086,18.4,18.4,0,0,1,.884-2.948C134.8,97.066,137.372,94.066,139.363,93.716Z" transform="translate(0 -2.078)"/><path class="cls-20" d="M139.259,92.906a13.836,13.836,0,0,1-2.054,4.009c-2.453,3.429-5.818,5.62-7.517,4.894a1.562,1.562,0,0,1-.255-.139,19.228,19.228,0,0,1,1.653-2.753C133.667,95.309,137.092,92.848,139.259,92.906Z" transform="translate(0 -2.078)"/><path class="cls-20" d="M126.09,101.4a14.1,14.1,0,0,1,2.2-3.962c2.581-3.373,6.025-5.485,7.694-4.718a1.427,1.427,0,0,1,.249.146,19.5,19.5,0,0,1-1.756,2.714C131.766,99.131,128.251,101.511,126.09,101.4Z" transform="translate(0 -2.078)"/><path class="cls-20" d="M136.8,92.858c-.192.132-.393.262-.6.395-.089.056-.177.112-.268.168-.151.094-.3.189-.463.28-.08.05-.16.1-.242.145-.109.062-.219.126-.328.185-.392.222-.8.437-1.215.649l-.011.006a28.588,28.588,0,0,1-4.265,1.737c-.126.041-.253.079-.377.118h0q-.747.221-1.445.371c-.366.083-.72.148-1.059.2h-.006c-.029.006-.053.009-.082.014a8.92,8.92,0,0,1-2.48.068.661.661,0,0,1-.1-.014,3.233,3.233,0,0,1-.9-.26c.035-.032.074-.065.112-.1.274-.242.575-.484.9-.729a21.456,21.456,0,0,1,2.941-1.816c.091-.05.182-.094.274-.141l.106-.053c.094-.048.186-.092.277-.139h0c.08-.038.159-.074.236-.112.569-.266,1.138-.507,1.693-.717h.006c.23-.091.454-.174.678-.25h0a18.484,18.484,0,0,1,2.274-.634,9.4,9.4,0,0,1,2.58-.233,3.753,3.753,0,0,1,.64.094,1.717,1.717,0,0,1,.979.546A1.223,1.223,0,0,1,136.8,92.858Z" transform="translate(0 -2.078)"/><path class="cls-20" d="M135.929,92.755a.417.417,0,0,1-.056.014c-.455.136-.926.266-1.413.384-.439.109-.894.209-1.357.3H133.1c-.233.045-.463.089-.7.13h0c-.05.012-.1.021-.156.03-.16.026-.319.053-.475.076a30.588,30.588,0,0,1-3.282.351c-.192.012-.384.021-.573.027-.206.006-.409.012-.61.012-.115,0-.23,0-.342,0a18.718,18.718,0,0,1-2.5-.162,7.554,7.554,0,0,1-2.619-.763q.5-.081,1.009-.142c.1-.012.192-.024.286-.032.6-.065,1.191-.11,1.772-.133a23.054,23.054,0,0,1,2.312.012c.053-.236.109-.469.165-.7v0l-.008-.059-.018-.133c-.035-.268-.059-.533-.071-.8.08-.012.156-.02.236-.032l.133-.018c.162-.02.321-.041.48-.056h.009a22.071,22.071,0,0,1,3.669-.13h0a12.265,12.265,0,0,1,1.993.257h0a3.451,3.451,0,0,1,1.876.9,1.008,1.008,0,0,1,.218.416.841.841,0,0,1,.024.192A.344.344,0,0,1,135.929,92.755Z" transform="translate(0 -2.078)"/><path class="cls-20" d="M152.154,94.09a14.265,14.265,0,0,1,2.055,4.024c1.309,3.894.986,7.549-.723,8.165a1.536,1.536,0,0,1-.282.072,19.041,19.041,0,0,1-1.255-2.92C150.571,99.334,150.707,95.459,152.154,94.09Z" transform="translate(0 -2.078)"/><path class="cls-20" d="M151.515,93.476a13.275,13.275,0,0,1,.985,4.433c.255,4.169-1.1,7.806-3.034,8.124a1.786,1.786,0,0,1-.309.023,17.878,17.878,0,0,1-.472-3.176C148.417,98.494,149.643,94.6,151.515,93.476Z" transform="translate(0 -2.078)"/><path class="cls-20" d="M147.548,106.309a13.517,13.517,0,0,1-2.693-3.567c-1.893-3.543-2.039-7.074-.326-7.888a1.782,1.782,0,0,1,.286-.106,17.65,17.65,0,0,1,1.706,2.621C148.512,101.1,148.885,104.812,147.548,106.309Z" transform="translate(0 -2.078)"/><path class="cls-20" d="M141.305,106.312a13.305,13.305,0,0,1-.373-4.431c.285-4.089,2.03-7.47,3.9-7.553a1.619,1.619,0,0,1,.3.014,18.054,18.054,0,0,1,.046,3.147C144.87,101.79,143.218,105.436,141.305,106.312Z" transform="translate(0 -2.078)"/><path class="cls-20" d="M136.22,105.415a15.454,15.454,0,0,1,1.473-4.437c1.923-3.9,4.866-6.663,6.574-6.17a1.367,1.367,0,0,1,.259.106A21.2,21.2,0,0,1,143.283,98C141.26,102.1,138.292,105.149,136.22,105.415Z" transform="translate(0 -2.078)"/><path class="cls-20" d="M172.257,83.817a19.343,19.343,0,0,1,4.244-2.445c4.162-1.8,8.193-2.174,9-.846a1,1,0,0,1,.1.224,26.7,26.7,0,0,1-3.1,1.576C178.13,84.214,173.873,84.791,172.257,83.817Z" transform="translate(0 -2.078)"/><path class="cls-20" d="M171.635,84.464a19.373,19.373,0,0,1,4.778-1.618c4.548-.958,8.642-.463,9.145,1.1a1.135,1.135,0,0,1,.05.257,26.6,26.6,0,0,1-3.442.962C177.382,86.176,173.018,85.838,171.635,84.464Z" transform="translate(0 -2.078)"/><path class="cls-20" d="M187.589,86.456a19.57,19.57,0,0,1-4.837,1.492c-4.584.838-8.663.238-9.112-1.34a1.083,1.083,0,0,1-.04-.258,26.822,26.822,0,0,1,3.477-.872C181.9,84.6,186.254,85.048,187.589,86.456Z" transform="translate(0 -2.078)"/><path class="cls-20" d="M185.835,91.6a21.285,21.285,0,0,1-5.172-.6c-4.595-1.069-7.971-3.2-7.54-4.753a1.135,1.135,0,0,1,.1-.24,28.362,28.362,0,0,1,3.611.6C181.667,87.741,185.372,89.847,185.835,91.6Z" transform="translate(0 -2.078)"/><path class="cls-20" d="M183.377,95.611a20.281,20.281,0,0,1-4.659-2.12c-3.919-2.381-6.249-5.37-5.2-6.676a1.3,1.3,0,0,1,.193-.193,26.524,26.524,0,0,1,3.177,1.654C181.006,90.78,183.657,93.848,183.377,95.611Z" transform="translate(0 -2.078)"/><path class="cls-20" d="M164.519,90.786a17.054,17.054,0,0,1,4,2.459c3.257,2.64,4.906,5.714,3.682,6.867a1.325,1.325,0,0,1-.217.166A22.332,22.332,0,0,1,169.3,98.4C165.87,95.625,163.934,92.445,164.519,90.786Z" transform="translate(0 -2.078)"/><path class="cls-20" d="M163.614,90.535a14.36,14.36,0,0,1,3.248,3.2c2.447,3.267,3.147,6.723,1.565,7.721a1.744,1.744,0,0,1-.269.137,18.652,18.652,0,0,1-2.115-2.382C163.469,95.773,162.513,92.161,163.614,90.535Z" transform="translate(0 -2.078)"/><path class="cls-20" d="M166.271,104.029a14.23,14.23,0,0,1-3.127-3.3c-2.325-3.342-2.9-6.826-1.293-7.784a1.743,1.743,0,0,1,.272-.13,18.5,18.5,0,0,1,2.026,2.445C166.6,98.78,167.423,102.427,166.271,104.029Z" transform="translate(0 -2.078)"/><path class="cls-20" d="M160.036,104.583a13.365,13.365,0,0,1-.916-4.355c-.216-4.075,1.111-7.578,2.965-7.826a1.737,1.737,0,0,1,.3-.012,17.935,17.935,0,0,1,.432,3.113C163.042,99.789,161.84,103.547,160.036,104.583Z" transform="translate(0 -2.078)"/><path class="cls-20" d="M155.765,104.743a14.326,14.326,0,0,1-.149-4.555c.475-4.164,2.339-7.517,4.163-7.488a1.529,1.529,0,0,1,.287.032,19.419,19.419,0,0,1-.107,3.222C159.458,100.335,157.672,103.964,155.765,104.743Z" transform="translate(0 -2.078)"/><path class="cls-20" d="M180.59,98.145a16.972,16.972,0,0,1-4.343-2.1c-3.6-2.379-5.6-5.415-4.473-6.781a1.567,1.567,0,0,1,.205-.2,22.217,22.217,0,0,1,2.942,1.643C178.709,93.212,181.017,96.324,180.59,98.145Z" transform="translate(0 -2.078)"/><path class="cls-20" d="M174.9,100.53a14.8,14.8,0,0,1-2.686-3.737c-1.9-3.689-2.105-7.315-.448-8.1a1.588,1.588,0,0,1,.278-.1,19.508,19.508,0,0,1,1.707,2.737C175.757,95.21,176.182,99.033,174.9,100.53Z" transform="translate(0 -2.078)"/><path class="cls-21" d="M164.044,72.307a7.525,7.525,0,0,1,3.021.078c2.656.585,4.54,2.3,4.206,3.822a1.538,1.538,0,0,1-.071.24,9.809,9.809,0,0,1-2.1-.234C166.306,75.6,164.227,73.94,164.044,72.307Z" transform="translate(0 -2.078)"/><path class="cls-21" d="M173.073,71.747a10.542,10.542,0,0,1-1.2,2.743c-1.414,2.326-3.307,3.758-4.229,3.2a.817.817,0,0,1-.137-.105,14.026,14.026,0,0,1,.961-1.876C169.951,73.26,171.882,71.642,173.073,71.747Z" transform="translate(0 -2.078)"/><path class="cls-21" d="M177.913,75.1a10.986,10.986,0,0,1-3.13,1.054c-2.972.558-5.628.025-5.934-1.191a.966.966,0,0,1-.029-.2,14.752,14.752,0,0,1,2.252-.6C174.2,73.572,177.032,74,177.913,75.1Z" transform="translate(0 -2.078)"/><path class="cls-21" d="M176.149,81.31a12.045,12.045,0,0,1-3.181-1.232c-2.746-1.5-4.563-3.609-4.06-4.712a.9.9,0,0,1,.1-.166,16.339,16.339,0,0,1,2.193,1C174.089,77.779,176.118,79.922,176.149,81.31Z" transform="translate(0 -2.078)"/><path class="cls-21" d="M171.8,84.836a12.946,12.946,0,0,1-1.981-2.876c-1.471-2.833-1.826-5.6-.795-6.191a.871.871,0,0,1,.175-.075,17.527,17.527,0,0,1,1.282,2.105C172.023,80.779,172.537,83.7,171.8,84.836Z" transform="translate(0 -2.078)"/><path class="cls-21" d="M162.766,79.557a7.507,7.507,0,0,0,3.022.007c2.672-.509,4.6-2.166,4.313-3.7a1.824,1.824,0,0,0-.065-.241,9.77,9.77,0,0,0-2.1.175C165.12,76.331,163,77.93,162.766,79.557Z" transform="translate(0 -2.078)"/><path class="cls-21" d="M138.051,86.772a7.525,7.525,0,0,1,3.021.078c2.657.584,4.54,2.3,4.207,3.822a1.82,1.82,0,0,1-.071.239,9.818,9.818,0,0,1-2.1-.234C140.313,90.063,138.235,88.4,138.051,86.772Z" transform="translate(0 -2.078)"/><path class="cls-21" d="M147.081,86.212a10.577,10.577,0,0,1-1.2,2.743c-1.414,2.326-3.306,3.757-4.228,3.2a.824.824,0,0,1-.138-.105,14.145,14.145,0,0,1,.961-1.876C143.958,87.725,145.889,86.106,147.081,86.212Z" transform="translate(0 -2.078)"/><path class="cls-21" d="M151.92,89.563a10.964,10.964,0,0,1-3.13,1.055c-2.971.558-5.627.024-5.934-1.192a1.016,1.016,0,0,1-.028-.2,14.823,14.823,0,0,1,2.251-.6C148.205,88.037,151.039,88.461,151.92,89.563Z" transform="translate(0 -2.078)"/><path class="cls-21" d="M150.157,95.775a12.066,12.066,0,0,1-3.181-1.232c-2.746-1.5-4.564-3.609-4.06-4.713a.855.855,0,0,1,.1-.165,16.292,16.292,0,0,1,2.194,1C148.1,92.243,150.125,94.386,150.157,95.775Z" transform="translate(0 -2.078)"/><path class="cls-21" d="M145.8,99.3a12.989,12.989,0,0,1-1.982-2.877c-1.47-2.832-1.826-5.6-.794-6.191a.835.835,0,0,1,.174-.074,17.324,17.324,0,0,1,1.283,2.1C146.03,95.244,146.544,98.167,145.8,99.3Z" transform="translate(0 -2.078)"/><path class="cls-21" d="M136.773,94.022a7.544,7.544,0,0,0,3.022.007c2.672-.51,4.6-2.167,4.313-3.7a1.834,1.834,0,0,0-.064-.242,9.848,9.848,0,0,0-2.106.175C139.127,90.8,137,92.4,136.773,94.022Z" transform="translate(0 -2.078)"/><text class="cls-8" transform="translate(153.278 177.271)">Moos</text><g id="biene"><rect class="cls-22" x="1012.438" y="126.919" width="5.36" height="14.263" rx="1.82"/><path class="cls-23" d="M1007.8,69.841V65.319a3.055,3.055,0,0,0-.459-1.759,3.948,3.948,0,0,0-2.7-1.6,2.008,2.008,0,0,1-.138-3.965,7.112,7.112,0,0,1,5.2,1.233,7.288,7.288,0,0,1,2.825,5.565v2.9" transform="translate(0 -2.078)"/><path class="cls-23" d="M1022.433,69.692V65.17a3.045,3.045,0,0,1,.459-1.759,3.948,3.948,0,0,1,2.7-1.6,2.008,2.008,0,0,0,.138-3.965,7.111,7.111,0,0,0-5.2,1.233,7.288,7.288,0,0,0-2.825,5.565v2.9" transform="translate(0 -2.078)"/><ellipse class="cls-22" cx="1015.118" cy="77.822" rx="12.24" ry="12.726"/><path class="cls-22" d="M1034.686,108.6a30.793,30.793,0,0,1-.707,6.6,27.573,27.573,0,0,1-3.344,8.461c-3.579,5.874-9.2,9.657-15.516,9.657s-11.94-3.783-15.519-9.657a27.573,27.573,0,0,1-3.344-8.461,30.793,30.793,0,0,1-.707-6.6,31.365,31.365,0,0,1,.372-4.827,28.579,28.579,0,0,1,2.694-8.461,25,25,0,0,1,1.412-2.446c3.589-5.484,9.017-8.98,15.092-8.98,6.052,0,11.463,3.47,15.053,8.922a25.425,25.425,0,0,1,1.449,2.5,28.607,28.607,0,0,1,2.693,8.461A31.28,31.28,0,0,1,1034.686,108.6Z" transform="translate(0 -2.078)"/><path class="cls-24" d="M1030.635,123.657c-3.579,5.874-9.2,9.657-15.516,9.657s-11.94-3.783-15.519-9.657Z" transform="translate(0 -2.078)"/><path class="cls-24" d="M1031.621,95.309H998.615a25,25,0,0,1,1.412-2.446c3.589-5.484,9.017-8.98,15.092-8.98,6.052,0,11.463,3.47,15.053,8.922A25.425,25.425,0,0,1,1031.621,95.309Z" transform="translate(0 -2.078)"/><path class="cls-24" d="M1034.686,108.6a30.793,30.793,0,0,1-.707,6.6H996.256a30.793,30.793,0,0,1-.707-6.6,31.365,31.365,0,0,1,.372-4.827h38.393A31.28,31.28,0,0,1,1034.686,108.6Z" transform="translate(0 -2.078)"/><path class="cls-25" d="M976.813,99.642a14.355,14.355,0,0,1,6.516-3.905,159.165,159.165,0,0,1,24.872-6.261s3.012-.643,3.961.777c.737,1.1-.172,2.866-.762,4.021-2.334,4.561-4.4,9.257-6.642,13.862-2.279,4.676-2.492,6.132-4.709,8.933a17.861,17.861,0,0,1-4.386,4.141,15.466,15.466,0,0,1-7.47,2.437,14.388,14.388,0,0,1-11.38-24.005Z" transform="translate(0 -2.078)"/><path class="cls-25" d="M1054.872,99.642a14.355,14.355,0,0,0-6.516-3.905,159.165,159.165,0,0,0-24.872-6.261s-3.012-.643-3.96.777c-.737,1.1.171,2.866.762,4.021,2.333,4.561,4.4,9.257,6.641,13.862,2.279,4.676,2.492,6.132,4.71,8.933a17.846,17.846,0,0,0,4.385,4.141,15.471,15.471,0,0,0,7.471,2.437,14.388,14.388,0,0,0,11.379-24.005Z" transform="translate(0 -2.078)"/></g><text class="cls-8" transform="translate(957.109 177.271)">Waldbienen</text><text class="cls-26" transform="translate(199.011 291.186)">Eingang</text><circle class="cls-27" cx="154.159" cy="281.749" r="25.513"/><text class="cls-26" transform="translate(146.586 291.186)">A</text><text class="cls-26" transform="translate(502.383 379.399)">Picknickwiese</text><circle class="cls-27" cx="455.064" cy="369.962" r="25.513"/><text class="cls-26" transform="translate(448.873 379.399)">D</text><text class="cls-26" transform="translate(907.237 291.776)">Shop + wc</text><circle class="cls-27" cx="860.977" cy="281.749" r="25.513"/><text class="cls-26" transform="translate(854.672 291.776)">E</text><text class="cls-26" transform="translate(196.006 379.049)">Spielplatz</text><circle class="cls-27" cx="151.073" cy="369.962" r="25.513"/><text class="cls-26" transform="translate(144.012 379.049)">B</text><text class="cls-26" transform="translate(501.098 291.114)">Waldmuseum + Wc</text><circle class="cls-27" cx="455.795" cy="281.749" r="25.513"/><text class="cls-26" transform="translate(448.437 291.114)">C</text><path class="cls-28" d="M882.971,387.481a1.172,1.172,0,0,1-.022.22v-.441A1.175,1.175,0,0,1,882.971,387.481Z" transform="translate(0 -2.078)"/><path class="cls-28" d="M840.288,387.7v-.221a1.191,1.191,0,0,0,.022.221Z" transform="translate(0 -2.078)"/><ellipse class="cls-29" cx="866.621" cy="327.73" rx="4.898" ry="4.768"/><ellipse class="cls-29" cx="863.515" cy="331.087" rx="5.159" ry="5.022"/><ellipse class="cls-29" cx="869.106" cy="332.796" rx="6.392" ry="6.223"/><ellipse class="cls-29" cx="862.714" cy="336.477" rx="4.087" ry="3.979"/><ellipse class="cls-29" cx="871.014" cy="326.064" rx="2.971" ry="2.892"/><ellipse class="cls-29" cx="869.713" cy="322.962" rx="1.981" ry="1.928"/><ellipse class="cls-29" cx="861.723" cy="340.176" rx="1.62" ry="1.577"/><path class="cls-15" d="M882.892,365.545V387.7h-.038c0,2.343-6.868,4.311-16.141,4.854v-6.676a4.685,4.685,0,0,0-9.366,0v6.73a61.979,61.979,0,0,1-10.91-1.37c-3.86-.906-6.248-2.157-6.249-3.538V365.545c0,2.763,9.552,5,21.334,5s21.333-2.241,21.333-5Z" transform="translate(0 -2.078)"/><polygon class="cls-30" points="859.802 354.383 861.64 354.499 857.307 354.383 857.307 346.43 859.802 346.43 859.802 354.383"/><polygon class="cls-30" points="865.974 354.614 863.479 354.547 863.448 346.43 865.902 346.43 865.974 354.614"/><path class="cls-31" d="M890.021,368.437a29.035,29.035,0,0,1-3.332,2.423c-.143.091-.289.18-.435.268-6.355,3.855-15.083,6.234-24.714,6.234-9.557,0-18.225-2.342-24.567-6.146-.2-.116-.391-.236-.583-.357a29.225,29.225,0,0,1-3.331-2.422L857.307,351.1a7.881,7.881,0,0,0,2.5.9,10.684,10.684,0,0,0,3.662.048,8.354,8.354,0,0,0,2.469-.784l.041-.021Z" transform="translate(0 -2.078)"/><path class="cls-28" d="M868.872,347.557a19.677,19.677,0,0,1-14.463,0l6.156-2.675a3.513,3.513,0,0,0,1.134.167,3.629,3.629,0,0,0,1.067-.145Z" transform="translate(0 -2.078)"/><polygon class="cls-32" points="863.479 352.211 863.479 352.278 861.64 352.162 863.479 352.211"/><path class="cls-15" d="M836.39,370.859l11.489-10.516c-3.124,2.881-9.4,8.758-10.906,10.873C836.776,371.1,836.582,370.98,836.39,370.859Z" transform="translate(0 -2.078)"/><path class="cls-15" d="M849.552,358.811l-1.462,1.338C848.81,359.486,849.334,359.009,849.552,358.811Z" transform="translate(0 -2.078)"/><path class="cls-15" d="M843.218,380.091l8.282-16.372s-7.808,15.241-7.46,16.736S843.218,380.091,843.218,380.091Z" transform="translate(0 -2.078)"/><path class="cls-15" d="M873.446,360.757l1.6,1.3C874.208,361.379,873.626,360.905,873.446,360.757Z" transform="translate(0 -2.078)"/><path class="cls-15" d="M886.689,370.86c-.143.091-.289.18-.435.268l-11.1-8.988C878.049,364.469,883.766,369,886.689,370.86Z" transform="translate(0 -2.078)"/><path class="cls-15" d="M877.792,384.182l-8.686-16.172s8.027,15.132,9.473,15.741S877.792,384.182,877.792,384.182Z" transform="translate(0 -2.078)"/><path class="cls-15" d="M860.244,378.173,861.921,360s-1.654,16.955-.776,18.228S860.244,378.173,860.244,378.173Z" transform="translate(0 -2.078)"/><text class="cls-26" transform="translate(913.226 378.957)">Grillhtte</text></svg>