<svg xmlns="http://www.w3.org/2000/svg" viewBox="0 0 1167.14 925.63"><defs><style>.cls-1{fill:#f2df8f;}.cls-2{fill:#ead788;}.cls-3{fill:#ead786;}.cls-4{fill:#e2d085;}.cls-5{opacity:0.5;}.cls-6{fill:#a5c253;}.cls-7{fill:#9faf72;}.cls-8{fill:#acad72;}.cls-9{fill:#afab61;}.cls-10{fill:#136c30;}.cls-11{fill:#179e38;}.cls-12{fill:#5fc2d0;}.cls-13{fill:#237278;}.cls-14{fill:#d7c57e;}.cls-15{fill:#5a4427;}.cls-16{fill:#f2ecd6;}.cls-17{fill:#41371f;}.cls-18{fill:#49351f;}.cls-19{fill:#634b2e;}.cls-20{fill:#564624;}.cls-21{fill:#fff;}.cls-22{fill:#169639;}.cls-23{fill:#12612d;}.cls-24{fill:#177132;}.cls-25{fill:#267d3d;}.cls-26{fill:#197834;}.cls-27{fill:#167332;}.cls-28{fill:#178e38;}.cls-29{fill:#f4e4ba;}.cls-30{fill:#faf0cc;}.cls-31{fill:#36a9e1;}.cls-32{fill:#1d71b8;}.cls-33{fill:#ffd348;}.cls-34{fill:#ffd349;}.cls-35{fill:#fbbd35;}.cls-36{fill:#fbbd43;}.cls-37,.cls-38{fill:#4d3535;}.cls-38{opacity:0.8;}.cls-39{fill:#e6e9f0;}.cls-40{fill:#dc2a2a;}.cls-41{fill:#cc1619;}.cls-42{fill:#448733;}.cls-43{fill:#518c41;}.cls-44{fill:#609351;}.cls-45{fill:#581112;}.cls-46{fill:#055c2d;}.cls-47{fill:#ca9e67;}.cls-48{fill:#b17f4a;}.cls-49{fill:#936037;}.cls-50{fill:#02763b;}.cls-51{fill:#063;}.cls-52{fill:#008d36;}</style></defs><g id="Ebene_2" data-name="Ebene 2"><g id="ralleyicons"><g id="gras-top-left"><path class="cls-1" d="M1141.81,374.51c-121.33,256.34-40.24,248.41-56.13,308.56-.43,1.62-.93,3.31-1.51,5a128.31,128.31,0,0,1-6.57,15.76c-11.85,23.94-37.86,60.25-91.2,87.71-32.31,16.64-74.65,30-129.94,35.45-101.31,10-200.17,119.52-319.62,95.05-73.22-15-82.55-72.3-157.28-89.36a181.59,181.59,0,0,0-22.1-3.6c-95.65-9.91-59.33,31.32-149.73-59.68q-6.07-6.13-11.88-12C10.64,568.33,40.52,532.21,87.24,387.45a356.45,356.45,0,0,1,15-38.95c74.83-163.62,233-145.78,320.63-206.74A140.39,140.39,0,0,0,446.79,121C510.45,51.14,578.35-1.63,668.87,1.23c63.83,2,85.49,22.6,97.35,45.88,10,19.69,13,41.32,28.69,55.27s43.42,20.16,102.9,9.53a247.09,247.09,0,0,1,32.05-3.62q10.8-.51,21.22,0C1101.57,115,1191.63,269.21,1141.81,374.51Z"/></g><path class="cls-2" d="M984.86,790.46C956,805.3,919.2,817.58,872.29,823.89l-.27,0q-8.34,1.13-17.1,2l-2.13.22c-1,.11-2,.25-3,.38-99.51,13-197,118.5-314.46,94.45-57.68-11.82-75.7-49.87-117.28-73.85a142.13,142.13,0,0,0-40-15.52c-12-25.32-21.79-47.09-21.61-50,.46-7.42-75.13-120.7-75.13-120.7s164.73-29.7,186.55-5.1-10.68,38.57-2.79,49.92,69.64,12.28,91,33.64-15.31,53.38-32.48,88.2,60.34,73.82,101.2,42.71,123-55.71,157.83-54.78,57.2,14.08,198.74-24.06Z"/><path class="cls-2" d="M394.72,649.73l-91,99.35-109.41,7.19c-20.41-20.83-38.21-39.8-53.65-57.27h0C15.89,557.93,44.14,515.14,85.7,386.33q2.08-6.46,4.31-12.62,5-13.89,10.73-26.33l101.55,48.88s-92.46-6.63-96.56,42.57S141.94,491,117.8,543.89C90.34,604.09,167.68,671.28,245,649,317.54,628.15,394.72,649.73,394.72,649.73Z"/><path class="cls-2" d="M1140.27,373.39C1018.94,629.72,1100,621.8,1084.14,682a80.54,80.54,0,0,0-16.29-46.29c-31.11-40.85-21.36-116.52-2.79-155s63.6-165.73,63.6-167.12,32.5-28.78-4.18-73.82-44.1-10.67-85.41-50.6c-38.29-37-5.16-62.83-89.53-81.94C1100,113.88,1190.1,268.09,1140.27,373.39Z"/><ellipse class="cls-2" cx="561.14" cy="845.17" rx="9.28" ry="19.96" transform="translate(-425.32 1082) rotate(-69.92)"/><ellipse class="cls-2" cx="654.86" cy="852.19" rx="3.67" ry="6.62" transform="translate(-307.87 1329.9) rotate(-78.85)"/><ellipse class="cls-2" cx="629.13" cy="816.72" rx="3.94" ry="2.03"/><ellipse class="cls-2" cx="675.85" cy="827.88" rx="3.94" ry="1.01"/><ellipse class="cls-3" cx="565.44" cy="793.47" rx="3.94" ry="1.01"/><ellipse class="cls-3" cx="594.1" cy="786.28" rx="3.94" ry="1.01"/><ellipse class="cls-3" cx="590.15" cy="873.15" rx="7.54" ry="1.49"/><ellipse class="cls-2" cx="185.62" cy="630.38" rx="10.03" ry="27.51" transform="translate(-471.25 649.31) rotate(-75.24)"/><ellipse class="cls-2" cx="227.02" cy="628.14" rx="5.09" ry="3.99" transform="translate(-377.67 344.51) rotate(-45)"/><ellipse class="cls-2" cx="229.17" cy="650.81" rx="11.45" ry="7.37" transform="translate(-393.07 352.66) rotate(-45)"/><ellipse class="cls-2" cx="149.96" cy="416.46" rx="10.58" ry="6.27"/><circle class="cls-2" cx="128.15" cy="428.3" r="3.83"/><path class="cls-2" d="M764.68,46C750.6,31.21,715.54,5.86,687.75,14c-70.33,20.55-81.27,4.3-99.73,15.44s-10.36,38.78-68.78,50c-42.88,8.25-98.18,74.16-98.18,74.16l.31-13a140.39,140.39,0,0,0,23.88-20.74C508.91,50,576.81-2.75,667.33.11,731.17,2.13,752.82,22.71,764.68,46Z"/><ellipse class="cls-2" cx="598.62" cy="39.04" rx="7.31" ry="3.83"/><path class="cls-4" d="M140.66,699h0C15.89,557.93,44.14,515.14,85.7,386.33q2.08-6.46,4.31-12.62l27.32-9.3S94.48,393.8,84,419.59C68.36,458.24,49.7,531.36,67.66,556s11.9,34.81,18.94,54.31,41.87,73.35,87.84,78C200,690.84,171.24,695.42,140.66,699Z"/><path class="cls-4" d="M757.39,843.66c19.17-6.69,63.05-13.42,92.37-17.15-99.51,13-197,118.5-314.46,94.45-57.68-11.82-75.7-49.87-117.28-73.85l-1.14-1.94L443,803.62s-6.86,52,41.08,83.55c32.53,21.4,55.4,21.76,81.13,21.25,18.51-.36,55.64.64,93.66-10.09C733.63,877.2,735.45,851.32,757.39,843.66Z"/><path class="cls-4" d="M872,823.92q-8.34,1.13-17.1,2l-2.13.22C863.22,824.83,870.56,824.07,872,823.92Z"/><ellipse class="cls-2" cx="519.91" cy="719.75" rx="47.01" ry="11.48"/><g class="cls-5"><path class="cls-6" d="M656.9,776.36c13-2,23.88.59,48.79.59s67.94-10.25,51.89,1.79-42.27,9.25-67,12.38S636,779.57,656.9,776.36Z"/></g><path class="cls-7" d="M1093,156.65c8.4,8.93,0,30.73,0,30.73h-3"/><path class="cls-7" d="M1078.79,164.77c-4.2,7.23,0,24.87,0,24.87h1.5"/><path class="cls-7" d="M1075.29,159.12c-4.21,7.24,0,24.87,0,24.87h1.49"/><path class="cls-7" d="M1065.71,162.34c1.74,6.43,14.53,20.95,14.53,20.95l.88-.12"/><path class="cls-7" d="M1068.07,170.79c-1.46,4.64,7.27,14.8,7.27,14.8l1.28-.12"/><path class="cls-7" d="M1098.29,164c.91,3.11-4.89,9.94-4.89,9.94l-.83-.08"/><path class="cls-7" d="M1098.29,171.5c.91,3.11-4.89,9.94-4.89,9.94l-.83-.08"/><path class="cls-7" d="M1097.33,181.48c1,2.88-9.14,6.49-9.14,6.49l-1.31-.36"/><path class="cls-7" d="M1100.67,176.29c1,2.88-9.14,6.49-9.14,6.49l-1.31-.35"/><path class="cls-7" d="M1070.19,179.31c-4.24,2,2.56,5.22,2.56,5.22l1.78-.16"/><path class="cls-7" d="M1096.92,176.92c4.24,2-2.57,5.23-2.57,5.23l-1.78-.17"/><path class="cls-7" d="M1065.66,179.15c.11,3.18,10.92,8.28,10.92,8.28l1.09-.28"/><path class="cls-7" d="M1082.29,159.21c-4.2,7.23,0,24.86,0,24.86h1.5"/><path class="cls-7" d="M1076.94,151.5c-2.76,10,8.86,33.58,8.86,33.58l1.9-.1"/><path class="cls-7" d="M1083.93,148.74c7.65,11,5.58,38.34,5.58,38.34l-2.15.06"/><path class="cls-7" d="M1090.36,152c3.41,8-.86,27.56-.86,27.56h-1.3"/><path class="cls-7" d="M573.35,818.75c8.41,8.93,0,30.73,0,30.73h-3"/><path class="cls-7" d="M559.17,826.87c-4.21,7.23,0,24.87,0,24.87h1.49"/><path class="cls-7" d="M555.66,821.23c-4.2,7.23,0,24.86,0,24.86h1.5"/><path class="cls-7" d="M546.09,824.44c1.74,6.43,14.53,20.95,14.53,20.95l.88-.12"/><path class="cls-7" d="M548.45,832.9c-1.46,4.64,7.27,14.79,7.27,14.79l1.27-.12"/><path class="cls-7" d="M578.66,826.11c.92,3.11-4.88,9.94-4.88,9.94L573,836"/><path class="cls-7" d="M578.66,833.6c.92,3.11-4.88,9.94-4.88,9.94l-.83-.08"/><path class="cls-7" d="M577.71,843.58c1,2.88-9.14,6.49-9.14,6.49l-1.31-.36"/><path class="cls-7" d="M581,838.39c1,2.88-9.14,6.49-9.14,6.49l-1.3-.35"/><path class="cls-7" d="M550.56,841.41c-4.24,2,2.57,5.22,2.57,5.22l1.78-.16"/><path class="cls-7" d="M577.29,839c4.24,2-2.56,5.23-2.56,5.23l-1.78-.17"/><path class="cls-7" d="M546,841.25c.11,3.18,10.91,8.28,10.91,8.28l1.09-.28"/><path class="cls-7" d="M562.67,821.31c-4.2,7.23,0,24.87,0,24.87h1.5"/><path class="cls-7" d="M557.31,813.6c-2.75,10,8.87,33.58,8.87,33.58l1.9-.1"/><path class="cls-7" d="M564.31,810.84c7.65,11,5.58,38.34,5.58,38.34l-2.15.06"/><path class="cls-7" d="M570.74,814.13c3.41,8-.86,27.56-.86,27.56h-1.3"/><path class="cls-8" d="M694.3,849.36c8.4,8.93,0,30.73,0,30.73h-3"/><path class="cls-8" d="M680.11,857.48c-4.2,7.23,0,24.87,0,24.87h1.5"/><path class="cls-8" d="M676.61,851.84c-4.21,7.23,0,24.86,0,24.86h1.49"/><path class="cls-8" d="M667,855.05c1.74,6.43,14.53,21,14.53,21l.89-.12"/><path class="cls-8" d="M669.4,863.51c-1.47,4.64,7.26,14.79,7.26,14.79l1.28-.12"/><path class="cls-8" d="M699.61,856.72c.91,3.11-4.89,9.94-4.89,9.94l-.83-.08"/><path class="cls-8" d="M699.61,864.21c.91,3.11-4.89,9.94-4.89,9.94l-.83-.08"/><path class="cls-8" d="M698.65,874.19c1,2.88-9.14,6.49-9.14,6.49l-1.31-.36"/><path class="cls-8" d="M702,869c1,2.88-9.14,6.49-9.14,6.49l-1.31-.35"/><path class="cls-8" d="M671.51,872c-4.24,2,2.56,5.22,2.56,5.22l1.78-.16"/><path class="cls-8" d="M698.24,869.63c4.24,2-2.57,5.23-2.57,5.23l-1.78-.17"/><path class="cls-8" d="M667,871.86c.12,3.18,10.92,8.28,10.92,8.28l1.09-.28"/><path class="cls-8" d="M683.62,851.92c-4.21,7.23,0,24.87,0,24.87h1.49"/><path class="cls-8" d="M678.26,844.21c-2.76,10,8.87,33.58,8.87,33.58l1.89-.1"/><path class="cls-8" d="M685.25,841.45c7.65,11,5.58,38.34,5.58,38.34l-2.15.06"/><path class="cls-8" d="M691.68,844.74c3.41,8-.86,27.56-.86,27.56h-1.3"/><path class="cls-7" d="M712.15,831.4c6.47,11.49,0,39.51,0,39.51h-2.3"/><path class="cls-7" d="M701.24,841.84c-3.23,9.3,0,32,0,32h1.15"/><path class="cls-7" d="M698.55,834.58c-3.24,9.3,0,32,0,32h1.15"/><path class="cls-7" d="M691.18,838.72c1.34,8.26,11.18,26.93,11.18,26.93l.68-.15"/><path class="cls-7" d="M693,849.59c-1.12,6,5.59,19,5.59,19l1-.15"/><path class="cls-7" d="M716.24,840.86c.7,4-3.76,12.79-3.76,12.79l-.64-.1"/><path class="cls-7" d="M716.24,850.49c.7,4-3.76,12.79-3.76,12.79l-.64-.11"/><path class="cls-7" d="M715.51,863.33c.77,3.7-7,8.34-7,8.34l-1-.46"/><path class="cls-7" d="M718.07,856.66c.78,3.7-7,8.34-7,8.34l-1-.46"/><path class="cls-7" d="M694.63,860.53c-3.27,2.56,2,6.72,2,6.72L698,867"/><path class="cls-7" d="M715.18,857.47c3.27,2.55-2,6.72-2,6.72l-1.37-.22"/><path class="cls-7" d="M691.14,860.33c.09,4.09,8.4,10.64,8.4,10.64l.84-.35"/><path class="cls-7" d="M703.94,834.69c-3.23,9.3,0,32,0,32h1.15"/><path class="cls-7" d="M699.82,824.78c-2.12,12.9,6.82,43.18,6.82,43.18l1.46-.13"/><path class="cls-7" d="M705.2,821.23c5.88,14.12,4.29,49.3,4.29,49.3l-1.65.07"/><path class="cls-7" d="M710.14,825.47c2.63,10.33-.66,35.42-.66,35.42h-1"/><path class="cls-7" d="M1034.18,123.54c5.07,5.16,0,17.72,0,17.72h-1.81"/><path class="cls-7" d="M1025.62,128.23c-2.53,4.16,0,14.33,0,14.33h.9"/><path class="cls-7" d="M1023.51,125c-2.54,4.17,0,14.34,0,14.34h.9"/><path class="cls-7" d="M1017.73,126.83c1,3.7,8.77,12.07,8.77,12.07l.53-.07"/><path class="cls-7" d="M1019.16,131.7c-.88,2.67,4.38,8.53,4.38,8.53l.77-.07"/><path class="cls-7" d="M1037.38,127.79c.55,1.79-2.94,5.73-2.94,5.73l-.51-.05"/><path class="cls-7" d="M1037.38,132.1c.55,1.8-2.94,5.73-2.94,5.73l-.51,0"/><path class="cls-7" d="M1036.81,137.86c.61,1.66-5.52,3.74-5.52,3.74l-.79-.21"/><path class="cls-7" d="M1038.82,134.87c.61,1.66-5.52,3.74-5.52,3.74l-.79-.21"/><path class="cls-7" d="M1020.43,136.6c-2.56,1.15,1.55,3,1.55,3l1.07-.1"/><path class="cls-7" d="M1036.55,135.23c2.56,1.15-1.54,3-1.54,3l-1.08-.09"/><path class="cls-7" d="M1017.7,136.52c.07,1.83,6.59,4.77,6.59,4.77l.65-.16"/><path class="cls-7" d="M1027.74,125c-2.54,4.17,0,14.33,0,14.33h.9"/><path class="cls-7" d="M1024.5,120.58c-1.66,5.78,5.35,19.35,5.35,19.35l1.15-.05"/><path class="cls-7" d="M1028.72,119c4.62,6.34,3.37,22.1,3.37,22.1l-1.3,0"/><path class="cls-7" d="M1032.6,120.89c2.06,4.63-.52,15.88-.52,15.88h-.78"/><path class="cls-7" d="M556.93,703.73c3.07,4.21,0,14.45,0,14.45h-1.09"/><path class="cls-7" d="M551.77,707.55c-1.54,3.4,0,11.69,0,11.69h.54"/><path class="cls-7" d="M550.49,704.9c-1.53,3.4,0,11.69,0,11.69H551"/><path class="cls-7" d="M547,706.41c.63,3,5.29,9.85,5.29,9.85l.33-.06"/><path class="cls-7" d="M547.86,710.38c-.53,2.19,2.65,7,2.65,7l.46-.06"/><path class="cls-7" d="M558.87,707.19c.33,1.47-1.78,4.68-1.78,4.68l-.3,0"/><path class="cls-7" d="M558.87,710.71c.33,1.47-1.78,4.68-1.78,4.68l-.3,0"/><path class="cls-7" d="M558.52,715.41c.37,1.35-3.33,3-3.33,3l-.48-.16"/><path class="cls-7" d="M559.74,713c.36,1.35-3.33,3-3.33,3l-.48-.17"/><path class="cls-7" d="M548.63,714.38c-1.54.94.94,2.46.94,2.46l.64-.08"/><path class="cls-7" d="M558.37,713.26c1.54.94-.94,2.46-.94,2.46l-.64-.08"/><path class="cls-7" d="M547,714.31c0,1.5,4,3.89,4,3.89l.4-.13"/><path class="cls-7" d="M553,704.94c-1.53,3.4,0,11.69,0,11.69h.55"/><path class="cls-7" d="M551.09,701.31c-1,4.72,3.23,15.79,3.23,15.79l.69-.05"/><path class="cls-7" d="M553.64,700c2.79,5.16,2,18,2,18l-.78,0"/><path class="cls-7" d="M556,701.57c1.24,3.77-.31,12.95-.31,12.95h-.48"/><path class="cls-9" d="M1048.28,124.2c5.07,10.31,0,35.43,0,35.43h-1.81"/><path class="cls-9" d="M1039.72,133.57c-2.53,8.34,0,28.67,0,28.67h.9"/><path class="cls-9" d="M1037.61,127.06c-2.54,8.34,0,28.67,0,28.67h.9"/><path class="cls-9" d="M1031.83,130.77c1.05,7.41,8.77,24.15,8.77,24.15l.53-.14"/><path class="cls-9" d="M1033.26,140.52c-.88,5.34,4.38,17,4.38,17l.77-.14"/><path class="cls-9" d="M1051.48,132.69c.55,3.59-2.94,11.46-2.94,11.46l-.51-.09"/><path class="cls-9" d="M1051.48,141.32c.55,3.59-2.94,11.47-2.94,11.47l-.51-.09"/><path class="cls-9" d="M1050.91,152.83c.61,3.32-5.52,7.48-5.52,7.48l-.79-.41"/><path class="cls-9" d="M1052.92,146.85c.61,3.32-5.52,7.48-5.52,7.48l-.78-.41"/><path class="cls-9" d="M1034.53,150.33c-2.56,2.29,1.55,6,1.55,6l1.07-.19"/><path class="cls-9" d="M1050.65,147.58c2.56,2.29-1.54,6-1.54,6l-1.08-.19"/><path class="cls-9" d="M1031.8,150.15c.07,3.66,6.59,9.54,6.59,9.54l.65-.32"/><path class="cls-9" d="M1041.84,127.16c-2.54,8.33,0,28.66,0,28.66h.9"/><path class="cls-9" d="M1038.6,118.27C1036.94,129.84,1044,157,1044,157l1.15-.11"/><path class="cls-9" d="M1042.82,115.09c4.62,12.66,3.37,44.2,3.37,44.2l-1.3.07"/><path class="cls-9" d="M1046.7,118.89c2.06,9.26-.52,31.76-.52,31.76h-.78"/><g id="gras-top-left-2" data-name="gras-top-left"><path class="cls-10" d="M523.59,375.08c-5.32,10.56-11.4,21.87-18.24,34.05-51.07,91-165.27,52.92-195,59.42S279.2,539,193.38,496.4c-71-35.28,9.75-72.88-80.77-105.84-64.76-23.58-106-42.4-98.73-76.37,2.89-13.5,13.45-29.42,33.27-49C139.87,173.73,101.54,154,120.5,119c14.7-27.15,75.78-40.3,118.06-28.52a82.46,82.46,0,0,1,16.11,6.24c40.84,21.36,107.69-24.6,149.94,10.22s5.57,71.49,45.49,89.13,46.88-11.61,81.25,33.88c12,15.91,18.68,31.47,20.1,48.89C553.55,304.54,544.18,334.28,523.59,375.08Z"/><path class="cls-11" d="M551.45,278.82c-2,25.55-13.84,55.73-35.42,96.2q-5,9.36-10.68,19.49c-51.07,91-165.27,52.91-195,59.42s-31.17,70.47-117,27.85c-71-35.29,9.75-72.88-80.77-105.84-54.83-20-92.8-36.52-98.73-61.75-3.89-16.41,5.81-36.5,33.27-63.6,92.72-91.48,45.94-117.36,73.35-146.22C144.59,79,202.59,62.76,244.83,77.82a77.36,77.36,0,0,1,9.84,4.25c40.84,21.36,107.69-24.59,149.94,10.22s5.57,71.49,45.49,89.13,46.88-11.6,81.25,33.9C546.62,235.53,553.26,255.21,551.45,278.82Z"/></g><g id="gras-bottom-left"><path class="cls-10" d="M309.69,649.49c-66.14,15.17-65.92,28.32-97,31.57s-93.77-6.5-79.38,38.53,65,62.67,70.56,117.91,138,67.79,175.48,54.32c30-10.77,147.16-88.2,72.42-139.27s-43.64-46.89-3.25-74.28C459.58,670.76,468.84,613,309.69,649.49Z"/><path class="cls-11" d="M309.69,640.12c-66.14,15.16-65.92,28.32-97,31.57s-93.77-6.5-79.38,38.53,65,62.67,70.56,117.91,138,67.18,175.48,54.32c30.13-10.34,147.16-88.21,72.42-139.27s-43.64-46.89-3.25-74.28C459.58,661.39,468.84,603.64,309.69,640.12Z"/></g><g id="fluss"><path class="cls-12" d="M817.51,382.39c-.08,3.23-.19,6.46-.47,9.68C817.13,388.84,817.23,385.61,817.51,382.39Z"/></g><g id="fluss-2" data-name="fluss"><path class="cls-13" d="M785.09,442.57c-53,27.53-71,27.11-79.66,44.84-22.86,46.49-41,78.44-94.42,66.62-12.67-2.81-28.51-21.2-38-24.85-1-.39-2-.76-2.92-1.16-.52-.2-1-.39-1.51-.62-1.4-.56-2.73-1.13-4-1.7-.9-.4-1.78-.79-2.64-1.19-1.28-.59-2.53-1.17-3.72-1.76h0l-2.33-1.15h0a35,35,0,0,0-6.45-2.49,36,36,0,0,0-18.88-.1,36.82,36.82,0,0,0-7.71,3l-1.26.69c-.9.53-1.83,1-2.79,1.58l-.1.08c-1.91,1-3.94,2.17-6.1,3.31-8.65,4.64-19.37,9.89-32.09,15.22-1.07.46-2.18.92-3.3,1.38l0,0c-1.12.44-2.24.9-3.39,1.37h0c-1.15.45-2.31.92-3.5,1.37-2.38.94-4.8,1.86-7.29,2.79-1.25.45-2.49.92-3.76,1.37h0l-3.85,1.36-4,1.37c-1.31.45-2.65.89-4,1.33h0l-4.1,1.34c-2.77.88-5.6,1.77-8.5,2.62-1.26.37-2.54.75-3.84,1.11q-6.87,2-14.12,3.87c-21.15,5.43-62.47,5.5-111.56,8.81a288.84,288.84,0,0,0-43.49,6.29L163,604.85a108.39,108.39,0,0,1-31.14,3.5,66.32,66.32,0,0,1-12.8-1.49,544.25,544.25,0,0,1-63.73-20.29L13.8,570.33a50.41,50.41,0,0,0-4.91-1.63h0a53.89,53.89,0,0,1-7.72-14.28,8.44,8.44,0,0,0,3.39,1.71l2.47.63,2.24.6,1.44.42c.82.25,1.63.51,2.43.79l1.2.45,41.5,16.27c2.6,1,5.2,2,7.83,3q5.86,2.18,11.81,4.21,11.88,4.06,23.92,7.57,10,2.93,20.17,5.52A65.18,65.18,0,0,0,131.41,597l1,0c2,.07,3.93.09,5.89.05s3.93-.14,5.89-.29a112.66,112.66,0,0,0,19.36-3.26L262.22,568a288.88,288.88,0,0,1,43.48-6.28c49.09-3.32,90.41-3.39,111.56-8.82q7.28-1.87,14.12-3.86l3.84-1.13q2.17-.63,4.29-1.29c1.42-.44,2.82-.88,4.21-1.34s2.74-.88,4.1-1.32h0c1.35-.44,2.68-.89,4-1.34.67-.22,1.33-.45,2-.69l2-.67,1.39-.49.56-.2,1.9-.68h0c1.27-.44,2.52-.9,3.76-1.37s2.47-.92,3.69-1.39,2.41-.91,3.6-1.39l3.5-1.38h0c1.15-.45,2.27-.92,3.39-1.37l0,0c1.12-.46,2.22-.91,3.3-1.37,2.11-.89,4.18-1.78,6.19-2.66s4-1.76,5.87-2.64q5-2.26,9.43-4.48l1.88-.93c1.25-.62,2.46-1.23,3.63-1.84,1.78-.91,3.47-1.8,5.1-2.66l1.59-.86,3.05-1.66,1.45-.8.11-.07,1.41-.81,1.37-.78c.41-.24.84-.48,1.26-.69a37.07,37.07,0,0,1,3.8-1.74c.65-.24,1.29-.48,1.94-.69.33-.11.65-.22,1-.31l1-.27a37.58,37.58,0,0,1,5.43-1h0c.91-.1,1.83-.16,2.74-.19h0c.91,0,1.82,0,2.73,0a35.86,35.86,0,0,1,6,.78c.66.15,1.31.31,2,.5s1.1.31,1.64.49c.28.08.55.18.82.28.53.19,1.08.4,1.61.61l.8.35c.53.23,1,.48,1.58.74l0,0c.77.39,1.53.77,2.33,1.15h0l1.83.87,1.89.86c.44.2.87.41,1.31.6l1.34.61c1.31.57,2.64,1.14,4,1.71l1.51.61c1,.39,1.92.78,2.91,1.15.31.12.61.25.92.39.51.24,1,.52,1.59.83a50.58,50.58,0,0,1,5.64,3.81c3.58,2.7,7.51,6.05,11.54,9.22l1.28,1h0l1.27,1c.64.48,1.28,1,1.94,1.43.42.31.85.62,1.27.91h0l1,.71c.37.26.76.51,1.13.74.55.37,1.12.72,1.67,1.05.85.52,1.71,1,2.55,1.43.41.21.83.42,1.24.61a23,23,0,0,0,4.89,1.74c26.85,5.93,44.78.82,58.88-11.62.78-.68,1.53-1.39,2.29-2.12a78.73,78.73,0,0,0,5.46-5.87q2.64-3.12,5.14-6.61c.67-.93,1.33-1.88,2-2.84,1.31-1.93,2.59-3.94,3.87-6,1.9-3.11,3.76-6.36,5.63-9.75q1.4-2.54,2.78-5.18c2.77-5.27,5.53-10.83,8.38-16.62a29.26,29.26,0,0,1,4.3-6.52,21.74,21.74,0,0,1,1.75-1.84c8.19-7.83,21.88-12,47.34-23.63,1.7-.77,3.43-1.59,5.23-2.44L766,441c1.13-.53,2.28-1.08,3.46-1.66q2.13-1,4.37-2.13t4.56-2.27c1.56-.78,3.15-1.58,4.77-2.42l2.45-1.27c.4-.2.78-.41,1.16-.61l.12-.07c1.1-.58,2.17-1.17,3.18-1.77l.45-.27c.39-.22.76-.45,1.14-.69,1.12-.68,2.19-1.36,3.22-2.07q1-.66,2-1.35l1-.74c1.56-1.16,3-2.33,4.3-3.53,1-.95,2-1.9,3-2.87.6-.62,1.16-1.24,1.69-1.87l.84-1c.4-.48.77-1,1.12-1.46.18-.24.35-.48.52-.73s.29-.39.42-.59c.37-.55.71-1.08,1-1.62.15-.24.29-.48.43-.72a38.79,38.79,0,0,0,2.09-4.11c.16-.36.31-.71.45-1.08a42.76,42.76,0,0,0,1.8-5.48c.11-.44.22-.87.31-1.31.06-.26.11-.51.16-.76.11-.46.2-.94.28-1.4.19-1,.35-2.1.49-3.17,0-.22.06-.44.08-.65.09-.76.17-1.52.24-2.29C816.52,407.64,816.45,426.26,785.09,442.57Z"/><path class="cls-13" d="M1157.71,231.1c-40.47,38.45-263.41,84.62-318.38,113.33-.5.24-1,.49-1.45.77-.67.35-1.31.72-1.92,1.07a30.55,30.55,0,0,0-6.85,5.11c-8.3,9-10.74,18.38-11.59,27.9,0-1.22.07-2.44.1-3.65.06-1.52.12-3,.2-4.55,0-.56.06-1.12.11-1.67s.08-1.09.14-1.62c.15-1.69.35-3.36.63-5,.06-.35.12-.69.19-1,0-.14,0-.29.07-.43.1-.54.22-1.09.35-1.63,0-.22.1-.46.15-.68s.13-.5.19-.75a41.27,41.27,0,0,1,1.25-4c.14-.37.27-.74.42-1.1s.4-1,.61-1.46.36-.8.56-1.19.43-.88.66-1.32.4-.73.61-1.1c.07-.14.15-.26.23-.4.21-.37.43-.74.68-1.12s.45-.72.7-1.08a43.25,43.25,0,0,1,4.27-5.37c.19-.21.39-.41.6-.61s.44-.43.68-.63.49-.42.76-.62c.51-.43,1.09-.85,1.7-1.28s1.28-.86,2-1.31l1.11-.66.94-.55c.31-.18.64-.35,1-.53s1-.53,1.45-.77l1.34-.68,1.33-.66c1.55-.75,3.21-1.52,5-2.29l1.71-.75c1-.42,2-.84,3-1.26.59-.25,1.19-.5,1.8-.74l1.84-.73c1.25-.5,2.55-1,3.88-1.51.66-.25,1.33-.51,2-.75,2.77-1,5.68-2.09,8.71-3.15.69-.25,1.37-.48,2.06-.71q6-2.08,12.53-4.22c2.24-.73,4.54-1.48,6.89-2.22l.25-.08,2.4-.76c.87-.29,1.76-.57,2.65-.83l2.67-.84q6.75-2.12,13.86-4.25c1.39-.43,2.78-.85,4.19-1.26l3-.92,4.37-1.29,5.95-1.76c2-.59,4-1.19,6-1.77l2.33-.69.72-.21,6.14-1.78q3.07-.92,6.2-1.81c3.11-.92,6.25-1.82,9.41-2.74l3.49-1,6-1.74,6.38-1.85,9.6-2.79,1.32-.38,5.11-1.5,4.94-1.45,4.7-1.37,3.21-.94,2.13-.64,3.33-1,3.34-1,3.33-1c8.86-2.66,17.64-5.32,26.23-8l4.13-1.29.8-.25q5.53-1.75,10.92-3.49l4.9-1.59,1.29-.42,6.08-2c8.8-2.95,17.24-5.89,25.19-8.83l3.37-1.26,2.6-1c.86-.33,1.72-.65,2.57-1q5.79-2.23,11.14-4.48c.72-.29,1.42-.59,2.12-.9,1.4-.59,2.78-1.18,4.12-1.78l2-.89c1.87-.84,3.7-1.68,5.46-2.52l1.9-.92c2.09-1,4.1-2,6-3.05l.24-.12,1.13-.62c1.77-.95,3.44-1.91,5-2.85.5-.3,1-.59,1.46-.9a63.94,63.94,0,0,0,10.77-8.07c.21-.19.4-.39.58-.57l0,0A90.81,90.81,0,0,1,1157.71,231.1Z"/></g><g id="fluss-3" data-name="fluss"><path class="cls-12" d="M1159.07,222h0l0,0-.58.56a64,64,0,0,1-10.77,8.08c-.47.3-1,.6-1.46.9q-2.37,1.41-5,2.85l-1.13.62-.24.11c-1.9,1-3.91,2-6,3.06l-1.9.92c-1.76.84-3.59,1.68-5.46,2.51l-2,.9c-1.34.59-2.72,1.19-4.12,1.78-.7.31-1.4.6-2.12.9q-5.34,2.24-11.14,4.48l-2.57,1-2.6,1-3.37,1.25c-8,2.94-16.39,5.89-25.19,8.83l-6.08,2-1.29.43-4.9,1.59q-5.38,1.74-10.92,3.48l-.8.25-4.13,1.3c-8.59,2.68-17.37,5.34-26.23,8l-3.33,1-3.33,1-3.34,1-2.13.63c-1.07.31-2.15.62-3.21,1l-4.7,1.37L994,286.23l-5.11,1.49-1.31.39c-3.21.93-6.41,1.85-9.61,2.79l-6.38,1.85-6,1.73-3.49,1c-3.16.92-6.3,1.82-9.41,2.74-2.08.59-4.15,1.2-6.2,1.8l-6.14,1.79c-.24.07-.48.13-.72.21l-2.32.69c-2,.58-4,1.18-6,1.76l-5.95,1.77L921,307.55l-3,.91c-1.41.41-2.8.84-4.19,1.26q-7.11,2.16-13.86,4.25l-2.67.84c-.89.27-1.78.55-2.65.84l-2.4.75-.25.09q-3.52,1.11-6.89,2.22-6.56,2.13-12.53,4.21l-2,.71c-3,1.06-6,2.12-8.72,3.15-.68.25-1.35.5-2,.76-1.33.5-2.63,1-3.88,1.51-.62.23-1.24.48-1.84.73s-1.21.48-1.8.73c-1,.42-2,.84-3,1.26l-1.71.75c-1.76.78-3.42,1.54-5,2.3-.45.22-.89.43-1.33.66l-1.34.68c-.5.24-1,.49-1.45.77s-.67.35-1,.53-.64.36-.94.54l-1.11.67c-.71.43-1.37.87-2,1.31s-1.19.84-1.7,1.27c-.27.2-.52.42-.76.63s-.46.41-.68.62l-.6.61a43.25,43.25,0,0,0-4.27,5.37c-.25.36-.49.72-.7,1.08s-.47.76-.68,1.13c-.08.13-.16.26-.23.39-.21.37-.42.74-.61,1.11s-.45.88-.66,1.31-.38.79-.56,1.2-.41,1-.61,1.46-.28.72-.42,1.1a40.43,40.43,0,0,0-1.25,4c-.06.25-.12.5-.19.75s-.11.45-.15.67c-.13.55-.25,1.09-.35,1.64,0,.14-.05.28-.07.42-.07.35-.13.69-.19,1-.28,1.68-.48,3.34-.63,5-.06.54-.11,1.09-.14,1.63s-.07,1.11-.11,1.67c-.08,1.51-.14,3-.2,4.54,0,1.22-.07,2.44-.1,3.66v.07c0,.86,0,1.71-.07,2.55-.06,1.67-.12,3.33-.23,5,0,.6-.09,1.2-.14,1.8a1.94,1.94,0,0,0,0,.24s0,.08,0,.11c-.07.77-.15,1.53-.24,2.29,0,.23,0,.44-.08.66-.14,1.06-.3,2.12-.49,3.17-.08.46-.18.92-.28,1.39-.05.26-.1.51-.16.76-.09.44-.2.87-.31,1.31a42.39,42.39,0,0,1-1.8,5.49q-.21.54-.45,1.08a38.66,38.66,0,0,1-2.09,4.1l-.43.73c-.33.53-.67,1.07-1,1.61q-.2.3-.42.6c-.17.25-.34.48-.52.73-.36.49-.73,1-1.12,1.45s-.56.69-.84,1c-.54.64-1.1,1.26-1.69,1.88s-1.41,1.44-2.17,2.15l-.78.71c-1.32,1.18-2.74,2.37-4.3,3.54l-1,.74c-.63.45-1.28.89-2,1.35-1,.7-2.1,1.38-3.22,2.07l-1.14.69-.45.26c-1,.59-2.08,1.18-3.18,1.78l-.12.07-1.15.6-2.46,1.28L778.39,438l-4.56,2.27-4.37,2.13L766,444.05l-1.43.67c-1.8.85-3.53,1.65-5.23,2.43C733.88,458.82,720.19,463,712,470.78c-.61.59-1.19,1.2-1.75,1.84a29.89,29.89,0,0,0-4.29,6.53c-2.85,5.79-5.61,11.34-8.39,16.61q-1.38,2.64-2.78,5.19c-.93,1.69-1.87,3.35-2.8,5s-1.88,3.22-2.83,4.77c-1.27,2.08-2.56,4.08-3.87,6-.65.95-1.31,1.91-2,2.83-.83,1.17-1.68,2.3-2.54,3.41s-1.72,2.17-2.6,3.21c-1.76,2.08-3.57,4-5.46,5.87-.76.73-1.51,1.43-2.29,2.12-14.1,12.44-32,17.55-58.88,11.61a23.16,23.16,0,0,1-4.89-1.73c-.41-.19-.83-.4-1.24-.61-.84-.44-1.7-.92-2.55-1.43-.55-.34-1.12-.68-1.67-1.06-.37-.22-.76-.48-1.13-.74s-.69-.46-1-.7h0l-1.27-.91c-.66-.47-1.3-1-1.94-1.44-.42-.31-.84-.64-1.27-1h0l-1.28-1c-4-3.18-8-6.52-11.54-9.22a50.58,50.58,0,0,0-5.64-3.81c-.55-.31-1.08-.59-1.59-.83-.31-.14-.61-.27-.92-.39-1-.38-1.95-.76-2.91-1.15l-1.51-.61c-1.39-.58-2.72-1.15-4-1.72l-1.34-.6-.66-.3-.66-.29-1.88-.87-1.83-.88,0,0-2.33-1.14,0,0c-.52-.25-1.05-.51-1.58-.74l-.8-.34c-.53-.23-1.08-.43-1.61-.62l-.82-.28c-.54-.18-1.08-.35-1.64-.5l-1-.26-1-.22a37,37,0,0,0-6-.79c-.91,0-1.82-.05-2.73,0h0c-.91,0-1.83.09-2.74.19h0a36.14,36.14,0,0,0-5.42,1h0c-.33.08-.65.17-1,.27s-.65.19-1,.3c-.66.22-1.29.44-1.94.7a37,37,0,0,0-3.8,1.73c-.42.22-.85.45-1.26.7l-1.37.77-1.41.81-.11.08-1.45.8-3.05,1.65-1.59.86c-1.63.87-3.32,1.76-5.1,2.66-1.17.62-2.38,1.23-3.63,1.85l-1.88.93c-3,1.47-6.11,3-9.43,4.48-1.9.87-3.85,1.76-5.87,2.63s-4.06,1.78-6.19,2.67l-3.3,1.37,0,0-3.39,1.37h0l-3.5,1.38c-1.19.47-2.39.93-3.6,1.39l-3.69,1.39-3.76,1.36h0l-1.9.68-.56.2-1.39.47c-.64.24-1.3.46-2,.69s-1.33.47-2,.69c-1.32.45-2.65.9-4,1.33h0c-1.36.45-2.72.9-4.1,1.33s-2.79.9-4.21,1.33-2.84.88-4.29,1.3l-3.84,1.13c-4.56,1.33-9.27,2.6-14.12,3.85-21.15,5.43-62.47,5.5-111.56,8.83a288.86,288.86,0,0,0-43.48,6.27L163.5,596.58a111.68,111.68,0,0,1-19.36,3.25c-.49,0-1,.08-1.47.11l-1.47.08-1.47.06c-.49,0-1,0-1.48,0-2,0-3.93,0-5.89,0l-1-.05a63.4,63.4,0,0,1-11.85-1.45q-10.12-2.6-20.17-5.52-12-3.51-23.92-7.56-5.94-2-11.81-4.22c-2.63-1-5.23-2-7.83-3l-41.5-16.26c-.39-.16-.79-.3-1.2-.45-.8-.28-1.61-.55-2.43-.79l-1.44-.43c-.75-.2-1.49-.41-2.24-.6l-2.47-.62a8.52,8.52,0,0,1-3.39-1.72C-2.31,546.76,3,543.05,3.54,542.72h0a8.68,8.68,0,0,1,4.09-.47L32,549.61c24.38,7.38,35.1,5.39,61.74,6.62,11.58.53,26.19,1.67,46.22,4.46,38,4.37,78.1,1.44,116.64-5.78L336,540l61.5-10.83a226.08,226.08,0,0,0,75.44-27.86l34.81-20.44h0c16.58-8.25,21.11-14.33,24-27.08,4.84-21.6,16.36-47.34,42.7-66.17,38.23-27.31,54.91-78,97.34-82.71s72.49-15.35,113.46-1.14c57,19.75,293-47.69,364.75-89l0,0,.13-.07c1.35-.78,2.62-1.55,3.85-2.31l.18-.1,0,0,.06,0,.09,0C1155.3,211.71,1159.42,210.51,1159.07,222Z"/></g><g id="gras-top-right"><path class="cls-10" d="M884.25,494.43c-25-33.19,12.62-61.29,12.62-94.19,0-35.82,6.88-51.42,47.73-56.06s57.1,7,111.88-35.74c32.65-25.46,75.26-22.83,87.28,59.88,7.89,54.32,50.78,24.42-4.18,108.83-66.77,102.53-132.31,25.33-167.59,20.69S910.71,529.56,884.25,494.43Z"/><path class="cls-11" d="M884.25,487.2c-25-33.19,19.5-57.87,7.9-91.76s11.6-53.85,52.45-58.49,57.1,7,111.88-35.74c32.65-25.46,75.26-22.83,87.28,59.88,7.89,54.32,47.81,39-4.18,108.83-73.07,98.14-132.31,25.33-167.59,20.69S910.71,522.33,884.25,487.2Z"/></g><path class="cls-10" d="M292.5,423.82a26.65,26.65,0,0,1-.78,3.29c-.07.24-.14.48-.23.71-1.95,6.17-5.86,11.83-10.93,17.41-24.94,27.51-49.47,33.06-72.47,14.06-11.11-9.17-23.27-4.11-27.72-26.24-.27-1.35-.52-2.81-.73-4.38l-.09-.71c-.11-.83-.21-1.7-.3-2.59C177,402.18,205,388.47,226.6,400s58.75-7.52,64.19,7.55A31.39,31.39,0,0,1,292.5,423.82Z"/><path class="cls-2" d="M291.49,427.82c-1.95,6.17-5.86,11.83-10.93,17.41-24.94,27.51-49.47,33.06-72.47,14.06-11.11-9.17-23.27-4.11-27.72-26.24,5.51-16.5,28.14-24.57,46.23-14.94,21.59,11.49,58.75-7.52,64.19,7.55C291.05,426.39,291.29,427.11,291.49,427.82Z"/><ellipse class="cls-14" cx="236.58" cy="446.85" rx="31.28" ry="10.36"/><path class="cls-15" d="M268,448.82a1.73,1.73,0,0,1,0,.32v-.65A1.84,1.84,0,0,1,268,448.82Z"/><path class="cls-15" d="M205.41,449.14v-.32a1.73,1.73,0,0,0,0,.32Z"/><ellipse class="cls-16" cx="244.03" cy="364.24" rx="7.18" ry="6.99"/><ellipse class="cls-16" cx="239.47" cy="369.16" rx="7.57" ry="7.37"/><ellipse class="cls-16" cx="247.67" cy="371.67" rx="9.37" ry="9.13"/><ellipse class="cls-16" cx="238.3" cy="377.07" rx="5.99" ry="5.84"/><ellipse class="cls-16" cx="250.47" cy="361.79" rx="4.36" ry="4.24"/><ellipse class="cls-16" cx="248.56" cy="357.24" rx="2.9" ry="2.83"/><ellipse class="cls-16" cx="236.85" cy="382.49" rx="2.38" ry="2.31"/><path class="cls-17" d="M267.89,416.65v32.49h-.05c0,3.43-10.08,6.32-23.68,7.12v-9.8a6.87,6.87,0,0,0-13.73,0v9.87a90.89,90.89,0,0,1-16-2c-5.66-1.33-9.16-3.17-9.17-5.19V416.65c0,4.05,14,7.34,31.29,7.34s31.29-3.29,31.29-7.34Z"/><polygon class="cls-18" points="234.03 403.33 236.72 403.5 230.37 403.33 230.37 391.66 234.03 391.66 234.03 403.33"/><polygon class="cls-18" points="243.08 403.67 239.42 403.57 239.38 391.66 242.97 391.66 243.08 403.67"/><path class="cls-19" d="M278.35,420.89a41.45,41.45,0,0,1-4.89,3.55l-.64.4c-9.32,5.65-22.12,9.14-36.24,9.14s-26.73-3.44-36-9l-.86-.53a43.37,43.37,0,0,1-4.88-3.55l35.56-25.43a11.7,11.7,0,0,0,3.66,1.32,15.73,15.73,0,0,0,2.88.27,15.31,15.31,0,0,0,2.49-.2A12.21,12.21,0,0,0,243,395.7l.06,0Z"/><path class="cls-15" d="M247.33,390.27a28.85,28.85,0,0,1-21.21,0l9-3.93a4.88,4.88,0,0,0,1.66.25,5.47,5.47,0,0,0,1.57-.21Z"/><polygon class="cls-20" points="239.42 400.14 239.42 400.24 236.72 400.07 239.42 400.14"/><path class="cls-17" d="M199.69,424.44,216.54,409c-4.58,4.22-13.78,12.84-16,16Z"/><path class="cls-17" d="M219,406.77l-2.15,2Z"/><path class="cls-17" d="M209.71,438l12.14-24s-11.45,22.35-10.94,24.54S209.71,438,209.71,438Z"/><path class="cls-17" d="M254,409.63l2.34,1.89Z"/><path class="cls-17" d="M273.46,424.44l-.64.4-16.28-13.19C260.79,415.07,269.17,421.72,273.46,424.44Z"/><path class="cls-17" d="M260.41,444l-12.74-23.72s11.78,22.2,13.9,23.09S260.41,444,260.41,444Z"/><path class="cls-17" d="M234.68,435.17l2.46-26.66s-2.43,24.87-1.14,26.73S234.68,435.17,234.68,435.17Z"/><ellipse class="cls-2" cx="919.65" cy="234.17" rx="47.01" ry="11.48"/><ellipse class="cls-14" cx="919.65" cy="229.22" rx="31.28" ry="10.36"/><path class="cls-7" d="M889.12,197.93c5.07,10.3,0,35.42,0,35.42h-1.81"/><path class="cls-7" d="M880.56,207.29c-2.53,8.34,0,28.67,0,28.67h.91"/><path class="cls-7" d="M878.45,200.79c-2.54,8.33,0,28.66,0,28.66h.9"/><path class="cls-7" d="M872.67,204.49c1.05,7.41,8.77,24.15,8.77,24.15l.53-.13"/><path class="cls-7" d="M874.1,214.24c-.88,5.35,4.38,17.06,4.38,17.06l.77-.14"/><path class="cls-7" d="M892.32,206.41c.56,3.59-2.94,11.47-2.94,11.47l-.5-.09"/><path class="cls-7" d="M892.32,215.05c.56,3.58-2.94,11.46-2.94,11.46l-.5-.09"/><path class="cls-7" d="M891.75,226.56c.61,3.31-5.52,7.47-5.52,7.47l-.78-.4"/><path class="cls-7" d="M893.76,220.58c.61,3.31-5.51,7.47-5.51,7.47l-.79-.4"/><path class="cls-7" d="M875.37,224.05c-2.55,2.29,1.55,6,1.55,6l1.07-.2"/><path class="cls-7" d="M891.5,221.3c2.55,2.29-1.55,6-1.55,6l-1.07-.2"/><path class="cls-7" d="M872.64,223.87c.07,3.67,6.59,9.54,6.59,9.54l.66-.32"/><path class="cls-7" d="M882.68,200.88c-2.54,8.34,0,28.67,0,28.67h.9"/><path class="cls-7" d="M879.45,192c-1.66,11.57,5.34,38.72,5.34,38.72l1.15-.12"/><path class="cls-7" d="M883.66,188.81C888.28,201.47,887,233,887,233l-1.3.07"/><path class="cls-7" d="M887.54,192.61c2.06,9.26-.51,31.76-.51,31.76h-.79"/><path class="cls-7" d="M954.77,219c2.69,3.81,0,13.09,0,13.09h-1"/><path class="cls-7" d="M950.24,222.49c-1.34,3.08,0,10.6,0,10.6h.48"/><path class="cls-7" d="M949.12,220.08c-1.34,3.09,0,10.6,0,10.6h.48"/><path class="cls-7" d="M946.07,221.46c.55,2.73,4.63,8.92,4.63,8.92l.29,0"/><path class="cls-7" d="M946.82,225.06c-.47,2,2.32,6.3,2.32,6.3l.41-.05"/><path class="cls-7" d="M956.47,222.17c.29,1.32-1.56,4.23-1.56,4.23l-.27,0"/><path class="cls-7" d="M956.47,225.36c.29,1.32-1.56,4.23-1.56,4.23l-.27,0"/><path class="cls-7" d="M956.16,229.61c.32,1.23-2.92,2.77-2.92,2.77l-.41-.15"/><path class="cls-7" d="M957.23,227.4c.32,1.23-2.92,2.77-2.92,2.77l-.42-.16"/><path class="cls-7" d="M947.49,228.69c-1.35.84.82,2.22.82,2.22l.57-.07"/><path class="cls-7" d="M956,227.67c1.35.85-.82,2.23-.82,2.23l-.57-.07"/><path class="cls-7" d="M946.05,228.62c0,1.35,3.48,3.53,3.48,3.53l.35-.12"/><path class="cls-7" d="M951.36,220.12c-1.34,3.08,0,10.6,0,10.6h.48"/><path class="cls-7" d="M949.65,216.83c-.88,4.28,2.83,14.32,2.83,14.32l.61-.05"/><path class="cls-7" d="M951.88,215.66c2.45,4.68,1.78,16.34,1.78,16.34l-.68,0"/><path class="cls-7" d="M953.94,217.06c1.08,3.43-.28,11.74-.28,11.74h-.41"/><path class="cls-15" d="M950.93,231.84a1.66,1.66,0,0,1,0,.32v-.64A1.73,1.73,0,0,1,950.93,231.84Z"/><path class="cls-15" d="M888.34,232.17v-.33a1.84,1.84,0,0,0,0,.33Z"/><ellipse class="cls-16" cx="926.96" cy="147.26" rx="7.18" ry="6.99"/><ellipse class="cls-16" cx="922.4" cy="152.18" rx="7.57" ry="7.37"/><ellipse class="cls-16" cx="930.6" cy="154.69" rx="9.37" ry="9.13"/><ellipse class="cls-16" cx="921.23" cy="160.09" rx="5.99" ry="5.84"/><ellipse class="cls-16" cx="933.4" cy="144.82" rx="4.36" ry="4.24"/><ellipse class="cls-16" cx="931.49" cy="140.27" rx="2.9" ry="2.83"/><ellipse class="cls-16" cx="919.77" cy="165.51" rx="2.38" ry="2.31"/><path class="cls-17" d="M950.82,199.67v32.49h-.06c0,3.44-10.07,6.32-23.67,7.12v-9.79a6.87,6.87,0,0,0-13.73,0v9.87a91.49,91.49,0,0,1-16-2c-5.67-1.33-9.17-3.16-9.17-5.19V199.67c0,4.05,14,7.34,31.29,7.34s31.28-3.29,31.28-7.34Z"/><polygon class="cls-18" points="916.96 186.35 919.65 186.52 913.3 186.35 913.3 174.69 916.96 174.69 916.96 186.35"/><polygon class="cls-18" points="926.01 186.69 922.35 186.59 922.3 174.69 925.9 174.69 926.01 186.69"/><path class="cls-19" d="M961.27,203.91a42.54,42.54,0,0,1-4.88,3.56l-.64.39c-9.32,5.65-22.12,9.14-36.25,9.14s-26.72-3.43-36-9l-.86-.53a41.32,41.32,0,0,1-4.88-3.55l35.56-25.43A11.45,11.45,0,0,0,917,179.8a14.75,14.75,0,0,0,2.88.27,15.41,15.41,0,0,0,2.49-.2,12.21,12.21,0,0,0,3.62-1.15l.06,0Z"/><path class="cls-15" d="M930.26,173.29a24.62,24.62,0,0,1-10.61,2c-4.36,0-8.22-.79-10.6-2l9-3.92a5.27,5.27,0,0,0,1.67.24,5.35,5.35,0,0,0,1.56-.21Z"/><polygon class="cls-20" points="922.35 183.16 922.35 183.26 919.65 183.09 922.35 183.16"/><path class="cls-17" d="M882.62,207.46,899.47,192c-4.58,4.23-13.78,12.85-16,16Z"/><path class="cls-17" d="M901.92,189.8l-2.14,2Z"/><path class="cls-17" d="M892.63,221l12.15-24s-11.45,22.35-10.94,24.55S892.63,221,892.63,221Z"/><path class="cls-17" d="M937,192.65l2.35,1.9Z"/><path class="cls-17" d="M956.39,207.47l-.64.39-16.28-13.18C943.72,198.09,952.1,204.74,956.39,207.47Z"/><path class="cls-17" d="M943.34,227,930.6,203.29s11.77,22.19,13.89,23.08S943.34,227,943.34,227Z"/><path class="cls-17" d="M917.6,218.19l2.46-26.66s-2.42,24.87-1.13,26.74S917.6,218.19,917.6,218.19Z"/><path class="cls-15" d="M553.24,717.72a1.24,1.24,0,0,1,0,.33v-.65A1.17,1.17,0,0,1,553.24,717.72Z"/><path class="cls-15" d="M490.64,718.05v-.33a1.84,1.84,0,0,0,0,.33Z"/><ellipse class="cls-16" cx="529.26" cy="633.14" rx="7.18" ry="6.99"/><ellipse class="cls-16" cx="524.7" cy="638.06" rx="7.57" ry="7.37"/><ellipse class="cls-16" cx="532.9" cy="640.57" rx="9.37" ry="9.13"/><ellipse class="cls-16" cx="523.53" cy="645.97" rx="5.99" ry="5.84"/><ellipse class="cls-16" cx="535.7" cy="630.7" rx="4.36" ry="4.24"/><ellipse class="cls-16" cx="533.79" cy="626.15" rx="2.9" ry="2.83"/><ellipse class="cls-16" cx="522.08" cy="651.39" rx="2.38" ry="2.31"/><path class="cls-17" d="M553.12,685.55V718h0c0,3.44-10.08,6.32-23.68,7.12v-9.79a6.87,6.87,0,0,0-13.73,0v9.87a90.8,90.8,0,0,1-16-2c-5.66-1.33-9.17-3.16-9.17-5.19V685.55c0,4.05,14,7.34,31.29,7.34s31.29-3.29,31.29-7.34Z"/><polygon class="cls-18" points="519.26 672.23 521.95 672.4 515.6 672.23 515.6 660.57 519.26 660.57 519.26 672.23"/><polygon class="cls-18" points="528.31 672.57 524.65 672.47 524.61 660.57 528.2 660.57 528.31 672.57"/><path class="cls-19" d="M563.58,689.79a42.67,42.67,0,0,1-4.89,3.56l-.64.39c-9.32,5.65-22.12,9.14-36.24,9.14s-26.73-3.43-36-9l-.86-.52a43.43,43.43,0,0,1-4.88-3.56l35.56-25.43a11.45,11.45,0,0,0,3.66,1.32,14.9,14.9,0,0,0,2.88.27,15.31,15.31,0,0,0,2.49-.2,12.21,12.21,0,0,0,3.62-1.15l.06,0Z"/><path class="cls-15" d="M532.56,659.17c-2.38,1.23-6.25,2-10.61,2s-8.22-.79-10.6-2l9-3.92a5.16,5.16,0,0,0,1.66.24,5.47,5.47,0,0,0,1.57-.21Z"/><polygon class="cls-20" points="524.65 669.04 524.65 669.14 521.95 668.97 524.65 669.04"/><path class="cls-17" d="M484.92,693.35l16.85-15.43c-4.58,4.23-13.78,12.85-16,16Z"/><path class="cls-17" d="M504.23,675.68l-2.15,2Z"/><path class="cls-17" d="M494.94,706.88l12.14-24s-11.45,22.36-10.94,24.55S494.94,706.88,494.94,706.88Z"/><path class="cls-17" d="M539.27,678.53l2.34,1.9Z"/><path class="cls-17" d="M558.69,693.35l-.64.39-16.28-13.18C546,684,554.4,690.62,558.69,693.35Z"/><path class="cls-17" d="M545.64,712.89,532.9,689.17s11.78,22.19,13.9,23.08S545.64,712.89,545.64,712.89Z"/><path class="cls-17" d="M519.91,704.07l2.46-26.66s-2.43,24.87-1.14,26.74S519.91,704.07,519.91,704.07Z"/><rect class="cls-13" x="982.63" y="725.24" width="53.37" height="53.37" rx="5.35"/><path class="cls-21" d="M1009.35,735.67a13.18,13.18,0,0,1,7.37,1.81,9.74,9.74,0,0,1,4.19,8.18,9.41,9.41,0,0,1-3.28,7.37,12.19,12.19,0,0,1-8.23,2.63h-2.32v13.67h-5.15V735.67Zm-2.27,15.24h2.32c4.44,0,6.56-2.17,6.56-5.3,0-1.87-.75-5.2-6.61-5.2h-2.27Z"/><ellipse class="cls-22" cx="229.44" cy="763.85" rx="23.29" ry="8.94" transform="translate(-11.31 3.49) rotate(-0.85)"/><ellipse class="cls-22" cx="199.27" cy="737.91" rx="23.29" ry="8.94" transform="translate(-10.93 3.04) rotate(-0.85)"/><rect class="cls-19" x="192.79" y="716.88" width="8.5" height="20.29" rx="3.66"/><circle class="cls-10" cx="197.04" cy="711.5" r="16.07"/><rect class="cls-19" x="229.55" y="747.75" width="8.5" height="20.29" rx="3.66"/><path class="cls-10" d="M249.87,742.37a16.07,16.07,0,0,1-32.13,0c0-8.87,7.19-36.07,16.06-36.07S249.87,733.5,249.87,742.37Z"/><path class="cls-22" d="M32.42,322.85c1.35-16.07,34-20.75,71.39-17.61s65.32,12.89,64,29-26.9,51.77-68.63,29C66.24,345.18,31.07,338.92,32.42,322.85Z"/><path class="cls-22" d="M382.92,432.13c-61.31-39.2,29.07-24.86,59-47.5s60.76-51.64,70.5-38.78S498,400.07,458.84,430.49C429.22,453.5,396.51,440.81,382.92,432.13Z"/><rect class="cls-19" x="59.77" y="299.78" width="8.5" height="20.29" rx="3.66"/><path class="cls-10" d="M81.64,294.4c0,8.87-7.89,16.07-17.62,16.07S46.4,303.27,46.4,294.4,54.29,258.33,64,258.33,81.64,285.53,81.64,294.4Z"/><rect class="cls-19" x="92.25" y="319.34" width="8.5" height="23.51" rx="3.93"/><ellipse class="cls-10" cx="96.5" cy="316.11" rx="16.07" ry="18.61"/><path class="cls-22" d="M332.38,845.17c23.27-30.37,29.85-11.39,59.75-34s53.75-77.81,69.62-41c7.4,17.21-8,61.76-53.56,81.3C376.39,865.13,321.16,859.81,332.38,845.17Z"/><rect class="cls-19" x="376.26" y="821.71" width="9.37" height="22.37" rx="4.03"/><circle class="cls-10" cx="380.95" cy="815.77" r="20.1"/><circle class="cls-23" cx="424.94" cy="763.16" r="13.98"/><rect class="cls-19" x="408.27" y="779.2" width="7.4" height="17.65" rx="3.18"/><circle class="cls-24" cx="411.97" cy="774.52" r="13.98"/><rect class="cls-19" x="423.96" y="784.8" width="7.4" height="17.65" rx="3.18"/><circle class="cls-10" cx="427.66" cy="780.11" r="13.98"/><circle class="cls-10" cx="431.58" cy="387.25" r="13.98"/><rect class="cls-19" x="437.6" y="405.88" width="7.4" height="17.65" rx="3.18"/><circle class="cls-25" cx="441.3" cy="401.2" r="13.98"/><rect class="cls-19" x="414.91" y="403.28" width="7.4" height="17.65" rx="3.18"/><circle class="cls-26" cx="418.61" cy="398.6" r="13.98"/><path class="cls-25" d="M490.84,347.76c0,9-6.26,16.36-14,16.36s-14-7.32-14-16.36,6.26-14.37,14-14.37S490.84,338.72,490.84,347.76Z"/><rect class="cls-19" x="487.74" y="359.98" width="7.4" height="20.67" rx="3.44"/><path class="cls-27" d="M505.42,354.5c0,9-6.26,16.36-14,16.36s-14-7.32-14-16.36,6.25-15.37,14-15.37S505.42,345.46,505.42,354.5Z"/><rect class="cls-19" x="469.12" y="366.02" width="7.4" height="20.67" rx="3.44"/><path class="cls-27" d="M486.79,360.54c0,9-6.26,16.36-14,16.36s-14-7.32-14-16.36,6.26-15.37,14-15.37S486.79,351.5,486.79,360.54Z"/><ellipse class="cls-22" cx="921.5" cy="474.9" rx="30.8" ry="10.84" transform="translate(-6.95 13.73) rotate(-0.85)"/><ellipse class="cls-22" cx="924.97" cy="410.11" rx="23.58" ry="7.82" transform="translate(-5.99 13.77) rotate(-0.85)"/><circle class="cls-23" cx="921.52" cy="442.8" r="13.98"/><rect class="cls-19" x="904.85" y="458.83" width="7.4" height="17.65" rx="3.18"/><circle class="cls-24" cx="908.55" cy="454.15" r="13.98"/><rect class="cls-19" x="927.97" y="464.32" width="7.4" height="17.65" rx="3.18"/><circle class="cls-10" cx="931.67" cy="459.63" r="13.98"/><ellipse class="cls-22" cx="372.12" cy="170.17" rx="30.8" ry="10.84" transform="translate(-2.48 5.54) rotate(-0.85)"/><ellipse class="cls-22" cx="437.1" cy="202.49" rx="30.8" ry="10.84" transform="translate(-2.96 6.51) rotate(-0.85)"/><circle class="cls-23" cx="374.46" cy="136.52" r="13.98"/><rect class="cls-19" x="355.96" y="150.5" width="7.4" height="17.65" rx="3.18"/><circle class="cls-24" cx="359.66" cy="147.54" r="13.98"/><rect class="cls-19" x="378.91" y="159.87" width="7.4" height="17.65" rx="3.7"/><circle class="cls-10" cx="382.61" cy="153.36" r="13.98"/><rect class="cls-19" x="917.89" y="390.69" width="8.26" height="20.29" rx="3.6"/><ellipse class="cls-10" cx="922.02" cy="388.3" rx="17.11" ry="16.07"/><ellipse class="cls-22" cx="1067.23" cy="320.96" rx="25.44" ry="8.37" transform="translate(-4.65 15.88) rotate(-0.85)"/><ellipse class="cls-28" cx="1067.26" cy="323.29" rx="18.96" ry="6" transform="translate(-4.68 15.88) rotate(-0.85)"/><rect class="cls-19" x="1063.83" y="308.76" width="6.78" height="17.62" rx="3.39"/><ellipse class="cls-10" cx="1067.23" cy="300.73" rx="14.06" ry="13.95"/><rect class="cls-19" x="431.45" y="186.04" width="8.26" height="20.29" rx="4.13"/><path class="cls-10" d="M452.69,182.66c0,8.87-7.66,16.06-17.11,16.06s-17.12-7.19-17.12-16.06,7.67-29.07,17.12-29.07S452.69,173.78,452.69,182.66Z"/><g class="cls-5"><path class="cls-21" d="M736.36,405.49c18.56-13.08,28.58,3,49.53-9.16a27.63,27.63,0,0,1-18.08,7.23c-6.45.13-12.94-1.86-19.21-1.4-4.14.34-8.2,1.78-12.24,3.33Z"/><path class="cls-21" d="M767.83,413.54c-1.17-.52-2.23-1.22-3.43-1.68a21.61,21.61,0,0,0-6.09-1.32c-11.11-.77-21.5,3.42-32.38,5.49-10.86,1.76-23.19,2.59-32.82-3.68a15,15,0,0,1-3.61-3.67,18.51,18.51,0,0,0,8.61,5c11.4,3.13,23.47,1,34.79-1.63,8.27-2.06,17-4,25.55-2.67a20.68,20.68,0,0,1,6.18,2c1.15.6,2.12,1.47,3.2,2.15Z"/><path class="cls-21" d="M602.18,467.23c18.05-13.06,27.82,3,48.2-9.16a26.49,26.49,0,0,1-17.56,7.22c-6.3.13-12.63-1.87-18.73-1.4-4,.34-8,1.79-11.91,3.34Z"/><path class="cls-21" d="M560.3,475.39c7.67-4.79,17.1-5.11,25.89-4.53s17.6,2.56,26.19,3.91c12.83,2,26.14,3.28,39,.81,4.23-.89,8.49-2.22,11.91-5.05-3,3.3-7.36,5.14-11.57,6.39-12.94,3.55-26.65,2.6-39.76.61-9.88-1.68-19.34-4-29.19-4.84-7.57-.62-15.44-.52-22.45,2.7Z"/><path class="cls-21" d="M553.09,487.7c4.1,3.83,9.7,2.46,14.34.41,7.15-3,15.31-6.29,23.35-4.52,5.14,1.16,10,3.23,15.14,4.25a17.34,17.34,0,0,0,7.68-.14,15.46,15.46,0,0,1-7.83,1.23,82.19,82.19,0,0,1-11.63-2.4,27.1,27.1,0,0,0-11.24-1c-5,.62-9.87,2.57-14.88,4.21-4.7,1.85-11.57,2.63-14.93-2.05Z"/><path class="cls-21" d="M658.36,337.28c18.57-13.09,28.58,3,49.54-9.16a27.7,27.7,0,0,1-18.08,7.23c-6.45.12-13-1.87-19.21-1.4-4.14.33-8.2,1.77-12.25,3.33Z"/><path class="cls-21" d="M639.37,345.43c1.08-.67,2-1.55,3.2-2.15a21,21,0,0,1,6.17-2c10.31-1.65,20.53,1.63,30.49,3.78,11.31,2.18,23.82,3.91,34.49-1.35a17.21,17.21,0,0,0,4-3.1,15.19,15.19,0,0,1-3.62,3.67c-9.62,6.26-22,5.43-32.81,3.68-10.89-2.07-21.27-6.27-32.38-5.5a22.4,22.4,0,0,0-6.1,1.32c-1.19.46-2.25,1.16-3.42,1.68Z"/></g><path class="cls-17" d="M1047.09,127.35l.74.73c-.42.23-.85.45-1.29.67C1046.73,128.29,1046.91,127.82,1047.09,127.35Z"/><path class="cls-29" d="M1008.35,399.6c-26.43-8.64-49-25.84-65.54-48.18-5-6.7-15.24-14.06-38.82-25-55-25.54-40.36-65.93-114.17-81.25s-242.56,23-294.09,54.43c-62.21,38-137.7,18.43-135.61,36s-1.39,47.76,16,65.38,15.6,19.56,26.51,43.38c20.32,44.32,1.63,97.95,1.63,97.95s68.47,15.22,91.45,16.62,115.36,54.48,178.73,67,53.15,11.89,55.24,13.86,23.21,27.41,23.21,27.41l-.93,14.6c-6.26-8.35-172.51-61.68-226.13-84.45s-151.11-8.16-153.2-45.76,18.81-57.13-7.66-115.61S291.88,313.4,320.43,307.13s75.2-3.48,155.28-20.19S638,229.84,660.24,227.05s55-2.08,70.33-5.57,45.79-38.53,67.37-20.42,58.06,70.41,92.85,97.49c0,0,123.48,75,148.09,75.1s-26.47,27.28-26.47,27.28Z"/><path class="cls-30" d="M1008.35,393.33c-26.43-8.64-49-25.84-65.54-48.18-5-6.7-15.24-14.06-38.82-25-55-25.54-40.36-65.93-114.17-81.25s-242.56,23-294.09,54.44c-62.21,37.94-137.7,18.42-135.61,36s-1.39,47.75,16,65.37,15.6,19.56,26.51,43.39,10.57,50.63,7.87,70.09a30.76,30.76,0,0,0,23.77,34.14c18,4.06,42.85,10.13,71.19,18.32,49,14.15,105.61,52.76,169,65.29s53.15,5.62,55.24,7.59,23.21,27.42,23.21,27.42l-3.25,15.76C743.4,668.3,579.47,613.82,525.85,591s-151.11-8.16-153.2-45.76,18.81-57.13-7.66-115.61-73.11-122.54-44.56-128.8,75.2-3.49,155.28-20.2S638,223.57,660.24,220.79s55-2.09,70.33-5.57,45.79-38.53,67.37-20.43,58.06,70.42,92.85,97.49c0,0,123.48,75,148.09,75.1s-26.47,27.28-26.47,27.28Z"/><path class="cls-17" d="M949.49,716.18a2.65,2.65,0,0,1-3.54.69,3.15,3.15,0,0,1-1.4-1.57c-.36-.87-.67-2.12-.95-3-.71-2.29-1.38-5.85-2.07-8.14-.57-1.91-.61-1.69-2.54-1.66s-4.09.13-6.14.22c-1,0-1.05.1-1.28.91-.28,1-.5,3.32-.76,4.34l-1.62,6.35a6.71,6.71,0,0,1-.4,1.14,2.88,2.88,0,0,1-3.39,1.65,2.32,2.32,0,0,1-2-2.69,6.08,6.08,0,0,1,.13-.65c1.74-6.92,3.15-15.16,4.33-19.66a72.15,72.15,0,0,1,3.35-10.25c.32-.74.66-1.48,1.05-2.2a6,6,0,0,1,.95-1.37,3.78,3.78,0,0,1,5.13-.25A5.83,5.83,0,0,1,940,682.4c.84,1.91,1.7,3.82,2.43,5.77,2.32,6.11,4.59,16,7.11,24.58a16.59,16.59,0,0,1,.3,2.1A2,2,0,0,1,949.49,716.18Zm-10.25-18.31c-.18-1.84-2.16-8.65-3.33-10.44A39.69,39.69,0,0,0,933.25,698,38.65,38.65,0,0,0,939.24,697.87Z"/><path class="cls-17" d="M845.54,686.05a13,13,0,0,1-7.81,4.78c-2.6.59-5.26.26-8,.29h-1.48c-1.53,0-2.46-.56-2.86-1.76a10.3,10.3,0,0,1-.48-2.52c-.57-7.32-1.09-15.55-1.66-22.87-.18-2.22-.34-4.46-.73-6.66-.44-2.48,1.25-4.38,5-4.2,6.14.3,10.76,2.64,13.8,6.82,2.33,3.22,2.21,6.51-.71,9.57l-.3.31c-.51.57-.53.69.18,1.11a13.87,13.87,0,0,1,4.45,4.14,13.38,13.38,0,0,1,1.86,5.57A8.46,8.46,0,0,1,845.54,686.05ZM830,669.24a13,13,0,0,0,5.85-2.32,3,3,0,0,0,1.29-2.65,4.5,4.5,0,0,0-.08-.6c-.53-2.49-4.71-5.55-7.91-5.8-.45,0-.76.2-.77.58,0,.19,0,.39,0,.59q.39,4.41.79,8.81c0,.33,0,.66.1,1A.55.55,0,0,0,830,669.24Zm11.08,12.51c-.16-1.49.33-2.92-2-5.57a6.55,6.55,0,0,0-5.64-2.24c-.65,0-1.3.07-2,.15-1.68.2-1.77.3-1.67,1.61.16,2.22.32,5.33.49,7.55.07.85.17,1.69.28,2.54s0,.7.94.7c1.72,0,3.43.27,5.06-.17a8.06,8.06,0,0,0,3.24-1.71A3.17,3.17,0,0,0,841.1,681.75Z"/><path class="cls-17" d="M631.65,196.81a5.38,5.38,0,0,1-1.47.7,26,26,0,0,1-6.92,1.21,17.51,17.51,0,0,1-8-1.76,14.41,14.41,0,0,1-7-6.62,15.52,15.52,0,0,1-1.32-3.77A31.69,31.69,0,0,1,608.41,169a14.79,14.79,0,0,1,3.13-4.87c4.53-4.68,10.82-3.77,14.62-.51a12.49,12.49,0,0,1,2.31,2.53c1.87,2.82,2.85,7.11,3.12,10.28a3.78,3.78,0,0,1-.21,1.56,2.79,2.79,0,0,1-2.78,1.58,2.64,2.64,0,0,1-2.46-1.66,6.46,6.46,0,0,1-.16-1.17,27,27,0,0,0-1.66-7,9.06,9.06,0,0,0-2.12-2.86,5.68,5.68,0,0,0-1.72-1.09,3.35,3.35,0,0,0-3.41.28,9.41,9.41,0,0,0-1.59,1.49,10,10,0,0,0-1.74,3,22.74,22.74,0,0,0-1.64,9.1,27.82,27.82,0,0,0,.69,7A9.51,9.51,0,0,0,616.5,192a11.1,11.1,0,0,0,8.88,1.84c.87-.18,1.75-.35,2.63-.48a7.1,7.1,0,0,1,2.68,0,2.16,2.16,0,0,1,1.81,1.46A1.69,1.69,0,0,1,631.65,196.81Z"/><path class="cls-17" d="M717.51,768.55a16.34,16.34,0,0,1-1.17,6.53,14.76,14.76,0,0,1-8.68,7.63,40.65,40.65,0,0,1-7.95,1.93,8.48,8.48,0,0,1-2.93.05,2.05,2.05,0,0,1-1.9-1.59c-.24-1.62-.48-3.25-.63-4.87-.63-6.45-.65-13.48-.89-20-.1-2.68-.12-5.36-.23-8a2.83,2.83,0,0,1,1.33-2.61,4.2,4.2,0,0,1,3.62-.72,51.82,51.82,0,0,1,6.24,1.75,18.21,18.21,0,0,1,9.07,6.93A23.52,23.52,0,0,1,717.51,768.55Zm-9.76-11.68a13.43,13.43,0,0,0-7.14-4.56,2.12,2.12,0,0,0-1.41-.14,1.38,1.38,0,0,0-.24,1.13c.26,8.62.16,17.79,1.2,26.52a23.52,23.52,0,0,0,4.76-1.1,9.83,9.83,0,0,0,6.12-5.31,11.73,11.73,0,0,0,.75-3.41A19.19,19.19,0,0,0,707.75,756.87Z"/><path class="cls-17" d="M1013.07,602.88a5.11,5.11,0,0,1-2.47.78,23.62,23.62,0,0,1-3.4.06l-7.53-.07-1.26,0c-2.09,0-3.22-.62-3.48-2.28s-.46-3.52-.57-5.28c-.27-4.19-.48-8.56-.81-14.42-.31-3-.14-7.77-.3-12.48a5.21,5.21,0,0,1,0-.79,3.24,3.24,0,0,1,3.37-2.62c.81,0,1.64,0,2.45,0,2.95,0,5.9.07,8.85.14,1.06,0,2.12.11,3.18.23a4.47,4.47,0,0,1,1.36.41c1.68.8,1.67,2.58,0,3.38a6.85,6.85,0,0,1-3.07.55c-2.62,0-5.25,0-7.87-.09s-2.53-.08-2.49,2q.09,4.51.23,9c0,.86.25,1,1.35,1l5.16-.15a6.19,6.19,0,0,1,2.61.44c1.74.76,1.85,2.48.22,3.38a5,5,0,0,1-2.07.58l-4.16.28c-.65,0-1.31,0-2,.09a.71.71,0,0,0-.76.64,5.08,5.08,0,0,0,0,.78c.19,3.08.36,6.34.57,9.41.06.88.23,1.69,1.39,1.59,2.37-.2,4.72-.08,7.09-.25a18.58,18.58,0,0,1,2.69,0,2.72,2.72,0,0,1,1.65.62C1014.13,600.81,1014.24,602,1013.07,602.88Z"/><path class="cls-30" d="M734,706.76a50.09,50.09,0,1,1,50.09-50.09A50.14,50.14,0,0,1,734,706.76Z"/><path class="cls-6" d="M734,609.42a47.26,47.26,0,1,1-47.25,47.25A47.31,47.31,0,0,1,734,609.42m0-5.67a52.93,52.93,0,1,0,52.93,52.92A52.93,52.93,0,0,0,734,603.75Z"/><circle class="cls-30" cx="394.72" cy="549.91" r="50.09"/><path class="cls-6" d="M394.72,502.66a47.25,47.25,0,1,1-47.25,47.25,47.3,47.3,0,0,1,47.25-47.25m0-5.67a52.92,52.92,0,1,0,52.93,52.92A52.92,52.92,0,0,0,394.72,497Z"/><circle class="cls-6" cx="334.21" cy="312.87" r="50.09" transform="translate(-94.29 151.71) rotate(-22.5)"/><path class="cls-30" d="M334.21,265.62A47.26,47.26,0,1,1,287,312.87a47.3,47.3,0,0,1,47.25-47.25m0-5.67a52.92,52.92,0,1,0,52.92,52.92A52.92,52.92,0,0,0,334.21,260Z"/><path class="cls-30" d="M783.09,266.83a50.09,50.09,0,1,1,50.09-50.08A50.14,50.14,0,0,1,783.09,266.83Z"/><path class="cls-6" d="M783.09,169.49a47.26,47.26,0,1,1-47.25,47.26,47.3,47.3,0,0,1,47.25-47.26m0-5.67A52.93,52.93,0,1,0,836,216.75a52.92,52.92,0,0,0-52.92-52.93Z"/><circle class="cls-6" cx="1045.58" cy="400.24" r="50.09"/><path class="cls-30" d="M1045.58,353a47.25,47.25,0,1,1-47.26,47.25A47.3,47.3,0,0,1,1045.58,353m0-5.67a52.92,52.92,0,1,0,52.92,52.92,52.92,52.92,0,0,0-52.92-52.92Z"/><g id="splash"><path class="cls-31" d="M364.42,574s18.95-6.35,22.75-24,18.81-22.16,25.37-16.87.71,11.45-1.49,12.84c-4.81,3-8.51,3.59-12.83,6.53s-6.73,8-11.27,12.57C382.81,569.24,374.64,575.32,364.42,574Z"/><path class="cls-31" d="M367.4,569.28s8.88-6.43,11.19-17.46-1-12.16-1.94-12.69c-1.72-1-10.15-1.29-8.8,8.58C368.74,554.28,372.51,554.32,367.4,569.28Z"/><path class="cls-32" d="M382.92,548.56S380,534.5,382,527.12c1-3.73,2.68-7.84,5.67-9.75s7.07,1.16,6.54,5.17a14,14,0,0,1-3.86,7.81C384.94,536.82,383.57,544,382.92,548.56Z"/><path class="cls-31" d="M391,535.43s3.23-7,6.17-10,5.37-5,8.45-3.58,2.81,4.13.13,5.59C400.19,530.44,396.6,530.37,391,535.43Z"/><path class="cls-31" d="M415.48,546.51s3.36-4.57,5.92-6.31,4.61-2.81,6.62-1.33,1.41,3.39-.74,4C422.81,544.28,420.23,543.7,415.48,546.51Z"/><path class="cls-32" d="M394.87,561.07s10.65-8.2,17.66-10c3.62-.9,8.29-1.19,10.65.6,2.77,2.11,1.55,6.46-1.55,7.73-3.54,1.44-6,.63-8.23.1C405.75,557.71,399,559.68,394.87,561.07Z"/><path class="cls-31" d="M383,573.25s7.95-7.55,19.22-7.8,11.77,3.21,12.11,4.24c.63,1.87-.6,10.22-10.05,7.08C398,574.68,398.68,571,383,573.25Z"/></g><g id="sonne"><circle class="cls-33" cx="783.09" cy="216.75" r="18.66"/><rect class="cls-34" x="782.08" y="182.32" width="2.02" height="11" rx="1.01" transform="translate(1566.18 375.64) rotate(-180)"/><rect class="cls-34" x="782.08" y="240.17" width="2.02" height="11" rx="1.01" transform="translate(1566.18 491.34) rotate(-180)"/><rect class="cls-34" x="811.01" y="211.25" width="2.02" height="11" rx="1.01" transform="translate(595.27 1028.76) rotate(-90)"/><rect class="cls-34" x="753.16" y="211.25" width="2.02" height="11" rx="1.01" transform="matrix(0, -1, 1, 0, 537.42, 970.91)"/><rect class="cls-34" x="802.54" y="190.79" width="2.02" height="11" rx="1.01" transform="translate(1232.94 903.29) rotate(-135)"/><rect class="cls-34" x="761.63" y="231.7" width="2.02" height="11" rx="1.01" transform="translate(1134.18 944.19) rotate(-135)"/><rect class="cls-34" x="761.63" y="190.79" width="2.02" height="11" rx="1.01" transform="translate(1440.71 -204.17) rotate(135)"/><rect class="cls-34" x="802.54" y="231.7" width="2.02" height="11" rx="1.01" transform="translate(1539.46 -163.27) rotate(135)"/><path class="cls-35" d="M783.16,198.06A18.45,18.45,0,0,0,771,202.62s0,.07,0,.06a18.33,18.33,0,0,1,7.8-1.73,18.67,18.67,0,0,1,12.51,32.42s0,.07,0,0a18.66,18.66,0,0,0-8.23-35.36Z"/></g><g id="biene"><rect class="cls-36" x="1043.02" y="422.43" width="4.02" height="10.71" rx="1.82"/><path class="cls-37" d="M1039.53,378v-3.39a2.26,2.26,0,0,0-.34-1.32,3,3,0,0,0-2-1.2,1.51,1.51,0,0,1-.1-3,5.32,5.32,0,0,1,3.9.93,5.45,5.45,0,0,1,2.12,4.17v2.18"/><path class="cls-37" d="M1050.53,377.9v-3.39a2.26,2.26,0,0,1,.34-1.32,2.9,2.9,0,0,1,2-1.2,1.51,1.51,0,0,0,.1-3,5.35,5.35,0,0,0-3.9.92,5.48,5.48,0,0,0-2.12,4.18v2.18"/><ellipse class="cls-36" cx="1045.03" cy="385.57" rx="9.19" ry="9.56"/><path class="cls-36" d="M1059.73,407.12a22.89,22.89,0,0,1-.54,4.95,20.62,20.62,0,0,1-2.51,6.35c-2.68,4.41-6.9,7.25-11.65,7.25s-9-2.84-11.65-7.25a20.62,20.62,0,0,1-2.51-6.35,22.89,22.89,0,0,1-.53-4.95,23.83,23.83,0,0,1,.28-3.63,21.57,21.57,0,0,1,2-6.35,18.36,18.36,0,0,1,1.06-1.84c2.7-4.12,6.77-6.74,11.33-6.74s8.61,2.6,11.31,6.7a18,18,0,0,1,1.08,1.88,21.29,21.29,0,0,1,2,6.35A23.93,23.93,0,0,1,1059.73,407.12Z"/><path class="cls-38" d="M1056.68,418.42c-2.68,4.41-6.9,7.25-11.65,7.25s-9-2.84-11.65-7.25Z"/><path class="cls-38" d="M1057.42,397.14h-24.78a18.36,18.36,0,0,1,1.06-1.84c2.7-4.12,6.77-6.74,11.33-6.74s8.61,2.6,11.31,6.7A18,18,0,0,1,1057.42,397.14Z"/><path class="cls-38" d="M1059.73,407.12a22.89,22.89,0,0,1-.54,4.95h-28.32a22.89,22.89,0,0,1-.53-4.95,23.83,23.83,0,0,1,.28-3.63h28.83A23.93,23.93,0,0,1,1059.73,407.12Z"/><path class="cls-39" d="M1016.27,400.39a10.79,10.79,0,0,1,4.89-2.93,119.45,119.45,0,0,1,18.68-4.7s2.26-.48,3,.58c.56.83-.13,2.15-.57,3-1.75,3.43-3.3,6.95-5,10.41s-1.87,4.6-3.53,6.71a13.82,13.82,0,0,1-3.29,3.11,11.71,11.71,0,0,1-5.61,1.83,10.81,10.81,0,0,1-8.55-18Z"/><path class="cls-39" d="M1074.88,400.39a10.79,10.79,0,0,0-4.89-2.93,119.45,119.45,0,0,0-18.68-4.7s-2.26-.48-3,.58c-.55.83.13,2.15.57,3,1.76,3.43,3.3,6.95,5,10.41s1.87,4.6,3.54,6.71a13.63,13.63,0,0,0,3.29,3.11,11.67,11.67,0,0,0,5.61,1.83,10.8,10.8,0,0,0,8.54-18Z"/></g><g id="erdbeere"><path class="cls-40" d="M358.84,310.34c0,7.74-3.81,18.49-9.89,25.93-4.13,5.06-9.3,8.58-15,8.58-14.16,0-26.35-21.51-26.35-34.51,0-5.44,2.15-9,5.69-11.25,4.91-3.16,12.5-3.88,20.74-3.88C348.15,295.21,358.84,297.34,358.84,310.34Z"/><path class="cls-41" d="M349,336.27c-4.13,5.06-9.3,8.58-15,8.58-14.16,0-26.35-21.51-26.35-34.51,0-5.44,2.15-9,5.69-11.25,1.69,4.63,4.19,21.67,21.1,32.23C342.89,336.65,346.3,335.65,349,336.27Z"/><ellipse class="cls-42" cx="323.42" cy="294.59" rx="3.21" ry="10.24" transform="translate(-8.09 580.05) rotate(-83.06)"/><ellipse class="cls-43" cx="325.2" cy="290.77" rx="3.35" ry="9.82" transform="translate(-89.86 425.05) rotate(-59.73)"/><ellipse class="cls-44" cx="328.64" cy="288.15" rx="3.58" ry="9.19" transform="translate(-104.86 232.38) rotate(-33.91)"/><ellipse class="cls-42" cx="343.91" cy="294.59" rx="10.24" ry="3.21" transform="translate(-33.07 43.7) rotate(-6.94)"/><ellipse class="cls-43" cx="342.12" cy="290.77" rx="9.82" ry="3.35" transform="translate(-99.93 212.11) rotate(-30.27)"/><ellipse class="cls-44" cx="338.69" cy="288.15" rx="9.19" ry="3.58" transform="translate(-89.41 408.45) rotate(-56.09)"/><path class="cls-45" d="M333.58,338.33s-1.76,2-1.49,3.89c.14,1.06,1.74.89,2.21.31a.71.71,0,0,0-.31-1.2,1.11,1.11,0,0,0-1.19.33A9,9,0,0,1,333.58,338.33Z"/><path class="cls-45" d="M344.3,333.41s-1.75,2-1.49,3.9c.15,1.06,1.74.88,2.21.31a.7.7,0,0,0-.31-1.2,1.12,1.12,0,0,0-1.19.32A9.32,9.32,0,0,1,344.3,333.41Z"/><path class="cls-45" d="M350.33,324.9s-1.76,2-1.5,3.9c.15,1.06,1.75.88,2.21.31a.71.71,0,0,0-.3-1.21,1.12,1.12,0,0,0-1.19.33A9.08,9.08,0,0,1,350.33,324.9Z"/><path class="cls-45" d="M352.79,315.23s-1.76,2-1.5,3.9c.15,1.05,1.75.88,2.21.3a.7.7,0,0,0-.3-1.2,1.12,1.12,0,0,0-1.19.33A9,9,0,0,1,352.79,315.23Z"/><path class="cls-45" d="M351.56,303.56s-1.76,2-1.5,3.9c.15,1.06,1.75.89,2.21.31a.7.7,0,0,0-.3-1.2,1.1,1.1,0,0,0-1.19.33A9.11,9.11,0,0,1,351.56,303.56Z"/><path class="cls-45" d="M342.24,299.09s-1.75,2-1.49,3.9c.15,1.06,1.74.88,2.21.31a.7.7,0,0,0-.31-1.2,1.09,1.09,0,0,0-1.18.32A9.19,9.19,0,0,1,342.24,299.09Z"/><path class="cls-45" d="M334.81,327.32s-1.76,2-1.5,3.9c.15,1.06,1.75.88,2.22.31a.71.71,0,0,0-.31-1.21,1.12,1.12,0,0,0-1.19.33A9.08,9.08,0,0,1,334.81,327.32Z"/><path class="cls-45" d="M341.84,321.45s-1.75,2-1.49,3.9c.15,1.06,1.74.88,2.21.31a.7.7,0,0,0-.31-1.2,1.09,1.09,0,0,0-1.18.32A9.19,9.19,0,0,1,341.84,321.45Z"/><path class="cls-45" d="M343.18,310.14s-1.75,2-1.49,3.9c.15,1.06,1.74.88,2.21.31a.7.7,0,0,0-.31-1.2,1.09,1.09,0,0,0-1.18.32A9.19,9.19,0,0,1,343.18,310.14Z"/><path class="cls-45" d="M325,332s-1.75,2-1.49,3.9c.15,1.05,1.74.88,2.21.3a.7.7,0,0,0-.3-1.2,1.12,1.12,0,0,0-1.19.33A9.15,9.15,0,0,1,325,332Z"/><path class="cls-45" d="M318.38,323.3s-1.75,2-1.49,3.9c.15,1.06,1.74.88,2.21.31a.71.71,0,0,0-.31-1.21,1.13,1.13,0,0,0-1.19.33A9.32,9.32,0,0,1,318.38,323.3Z"/><path class="cls-45" d="M327.24,320.24s-1.76,2-1.49,3.9c.14,1.05,1.74.88,2.21.3a.71.71,0,0,0-.31-1.2,1.13,1.13,0,0,0-1.19.33A9.28,9.28,0,0,1,327.24,320.24Z"/><path class="cls-45" d="M325.5,310.14s-1.75,2-1.49,3.9c.15,1.06,1.74.88,2.21.31a.7.7,0,0,0-.31-1.2,1.09,1.09,0,0,0-1.18.32A9.19,9.19,0,0,1,325.5,310.14Z"/><path class="cls-45" d="M334.81,304.19s-1.76,2-1.5,3.9c.15,1.06,1.75.88,2.22.31a.7.7,0,0,0-.31-1.2,1.11,1.11,0,0,0-1.19.32A9.08,9.08,0,0,1,334.81,304.19Z"/><path class="cls-45" d="M325,299.33s-1.75,2-1.49,3.9c.15,1,1.74.88,2.21.3a.7.7,0,0,0-.3-1.2,1.12,1.12,0,0,0-1.19.33A9.15,9.15,0,0,1,325,299.33Z"/><path class="cls-45" d="M335.18,315.23s-1.75,2-1.49,3.9c.15,1.05,1.74.88,2.21.3a.7.7,0,0,0-.3-1.2,1.12,1.12,0,0,0-1.19.33A9.15,9.15,0,0,1,335.18,315.23Z"/><path class="cls-45" d="M314.76,312.48s-1.75,2-1.49,3.9c.15,1.05,1.74.88,2.21.3a.7.7,0,0,0-.31-1.2,1.11,1.11,0,0,0-1.18.33A9.15,9.15,0,0,1,314.76,312.48Z"/><path class="cls-45" d="M316,302.65s-1.75,2-1.49,3.9c.15,1.05,1.74.88,2.21.3a.7.7,0,0,0-.31-1.2,1.11,1.11,0,0,0-1.18.33A9.15,9.15,0,0,1,316,302.65Z"/></g><path class="cls-46" d="M749.39,643.81c.8,5.4-6.75,8.37-16.4,9.69s-17.78.48-18.58-4.91,6.38-10.83,16-12.15S748.59,638.42,749.39,643.81Z"/><path class="cls-46" d="M720.15,647a9.3,9.3,0,0,1-3,.93c-2.85.39-5.33-.4-5.53-1.76a1.7,1.7,0,0,1,0-.22,12.55,12.55,0,0,1,2.17-.5C716.75,645,719.4,645.67,720.15,647Z"/><path class="cls-46" d="M720.63,646a14.62,14.62,0,0,1-3.16.09c-2.86-.2-5.06-1.08-4.93-2a.74.74,0,0,1,0-.14,18.53,18.53,0,0,1,2.22,0C717.8,644.27,720.21,645.1,720.63,646Z"/><path class="cls-46" d="M721.21,645.85a12.58,12.58,0,0,1-3.09-.46c-2.71-.72-4.59-2-4.2-2.95a.5.5,0,0,1,.08-.14,16.22,16.22,0,0,1,2.14.43C719,643.49,721.07,644.81,721.21,645.85Z"/><path class="cls-46" d="M713.91,640.67a12.22,12.22,0,0,1,3.07.53c2.68.79,4.51,2.16,4.09,3.06a.55.55,0,0,1-.09.14,18.21,18.21,0,0,1-2.12-.48C716,643.08,714,641.71,713.91,640.67Z"/><path class="cls-46" d="M716.91,638.58a10.08,10.08,0,0,1,2.39,1.65c1.9,1.74,2.74,3.68,1.89,4.34l-.15.1a13.81,13.81,0,0,1-1.59-1.25C717.45,641.59,716.43,639.57,716.91,638.58Z"/><path class="cls-46" d="M719.81,637.24a8.69,8.69,0,0,1,1.5,2.27c1,2.22,1,4.31-.09,4.68l-.18,0a12,12,0,0,1-.94-1.66C719,640.26,718.94,638,719.81,637.24Z"/><path class="cls-46" d="M724.28,641.72a6.8,6.8,0,0,1-2.23-1.5c-1.64-1.66-2-3.67-.85-4.51l.2-.12a8.62,8.62,0,0,1,1.44,1.16C724.57,638.49,725.14,640.57,724.28,641.72Z"/><path class="cls-46" d="M725.81,641.86a8.65,8.65,0,0,1-1.51-2c-1.09-2-1.28-3.84-.41-4.2l.15,0a11.7,11.7,0,0,1,1,1.47C726.16,639.13,726.47,641.12,725.81,641.86Z"/><path class="cls-46" d="M726.22,642.16a7.64,7.64,0,0,1-1-2.25c-.55-2.13-.16-4,.86-4.25l.16,0a9.65,9.65,0,0,1,.57,1.62C727.42,639.5,727.13,641.53,726.22,642.16Z"/><path class="cls-46" d="M727.76,634.75a7.47,7.47,0,0,1,.88,2.27c.47,2.15,0,4-1,4.23h-.17a9.17,9.17,0,0,1-.51-1.63C726.47,637.38,726.83,635.35,727.76,634.75Z"/><path class="cls-46" d="M734.82,640.58a12.21,12.21,0,0,0,2.34-1.86c1.87-1.88,2.74-3.85,2-4.39l-.14-.08a16.25,16.25,0,0,0-1.56,1.38C735.44,637.61,734.4,639.67,734.82,640.58Z"/><path class="cls-46" d="M734.28,640.82a10.16,10.16,0,0,0,1.85-2.21c1.35-2.16,1.62-4.25.62-4.67l-.17-.05a12.79,12.79,0,0,0-1.19,1.62C734,637.78,733.54,640,734.28,640.82Z"/><path class="cls-46" d="M735,633.16a10.11,10.11,0,0,0-1.76,2.25c-1.27,2.2-1.48,4.29-.45,4.68l.17,0a14.35,14.35,0,0,0,1.13-1.64C735.42,636.19,735.76,634,735,633.16Z"/><path class="cls-46" d="M731.17,633.5a7.87,7.87,0,0,0-.37,2.64c0,2.39,1,4.3,2.14,4.24l.18,0a9.32,9.32,0,0,0,.13-1.86C733.21,636,732.31,633.91,731.17,633.5Z"/><path class="cls-46" d="M728.56,633.9a7.94,7.94,0,0,0,.08,2.64c.45,2.36,1.72,4.12,2.85,3.93l.18-.05a9.28,9.28,0,0,0-.19-1.84C731,636.1,729.77,634.17,728.56,633.9Z"/><path class="cls-46" d="M738.85,641.09a7.89,7.89,0,0,1-.06-2.64c.33-2.41,1.5-4.32,2.62-4.29a1.13,1.13,0,0,1,.18,0,12,12,0,0,1-.09,1.86C741.15,638.58,740,640.66,738.85,641.09Z"/><path class="cls-46" d="M739,641.56a7.64,7.64,0,0,1,.65-2.63c1-2.32,2.73-4,3.9-3.75l.18.05a10.53,10.53,0,0,1-.6,1.83C742.13,639.51,740.39,641.36,739,641.56Z"/><path class="cls-46" d="M745.88,635a7.81,7.81,0,0,1-.75,2.61c-1.08,2.3-2.88,4-4,3.67a.49.49,0,0,1-.17-.06,10.91,10.91,0,0,1,.66-1.82C742.72,637,744.53,635.2,745.88,635Z"/><path class="cls-46" d="M748.51,637.37a11.36,11.36,0,0,1-2.18,2.13c-2.29,1.73-4.81,2.6-5.64,1.94l-.12-.12a14.14,14.14,0,0,1,1.65-1.43C744.62,638.06,747.24,637,748.51,637.37Z"/><path class="cls-46" d="M750.18,639.68a13.71,13.71,0,0,1-3,1.44c-2.87,1-5.57,1.17-6,.31a.39.39,0,0,1,0-.14,18,18,0,0,1,2.15-.92C746.3,639.28,749.17,639,750.18,639.68Z"/><path class="cls-46" d="M721.94,649.59a8.35,8.35,0,0,1-.6,2.61c-.92,2.31-2.54,4-3.61,3.77l-.17-.06a11.34,11.34,0,0,1,.56-1.82C719.08,651.66,720.69,649.8,721.94,649.59Z"/><path class="cls-46" d="M721.88,649.09a8.54,8.54,0,0,1-1.29,2.47c-1.54,2.12-3.66,3.48-4.72,3l-.16-.09a11.79,11.79,0,0,1,1-1.7C718.37,650.57,720.52,649.05,721.88,649.09Z"/><path class="cls-46" d="M713.61,654.34a8.56,8.56,0,0,1,1.38-2.45c1.62-2.09,3.79-3.39,4.83-2.92l.16.09a11.74,11.74,0,0,1-1.1,1.68C717.17,652.93,715,654.4,713.61,654.34Z"/><path class="cls-46" d="M711.64,651.57a12.12,12.12,0,0,1,2.66-1.73c2.64-1.31,5.31-1.72,6-.92a.64.64,0,0,1,.08.14,18.3,18.3,0,0,1-2,1.12C715.59,651.56,712.79,652.11,711.64,651.57Z"/><path class="cls-46" d="M710.6,649a14.7,14.7,0,0,1,3.24-.9c3-.52,5.7-.18,5.93.75a.77.77,0,0,1,0,.15,19.88,19.88,0,0,1-2.32.53C714.26,650.07,711.42,649.82,710.6,649Z"/><path class="cls-46" d="M730,649.82a8.74,8.74,0,0,1,1.29,2.48c.82,2.41.62,4.67-.45,5.05l-.18,0a11,11,0,0,1-.79-1.8C729,653.06,729.07,650.66,730,649.82Z"/><path class="cls-46" d="M729.58,649.44a8.08,8.08,0,0,1,.62,2.74c.16,2.57-.7,4.82-1.91,5h-.19a10.59,10.59,0,0,1-.3-2C727.63,652.54,728.4,650.13,729.58,649.44Z"/><path class="cls-46" d="M727.09,657.37a8.43,8.43,0,0,1-1.7-2.21c-1.18-2.19-1.28-4.37-.2-4.87l.18-.07a11.37,11.37,0,0,1,1.07,1.62C727.69,654.15,727.93,656.44,727.09,657.37Z"/><path class="cls-46" d="M723.16,657.37a8.35,8.35,0,0,1-.23-2.74c.18-2.53,1.27-4.61,2.45-4.67h.18a10.46,10.46,0,0,1,0,1.95C725.4,654.57,724.37,656.83,723.16,657.37Z"/><path class="cls-46" d="M720,656.81a9.34,9.34,0,0,1,.93-2.74c1.2-2.41,3.05-4.11,4.12-3.81l.17.07a13.17,13.17,0,0,1-.78,1.9C723.14,654.77,721.27,656.65,720,656.81Z"/><path class="cls-46" d="M742.61,643.47a11.66,11.66,0,0,1,2.66-1.51c2.62-1.11,5.15-1.35,5.66-.52a.38.38,0,0,1,.06.13,15.26,15.26,0,0,1-1.94,1C746.3,643.71,743.62,644.07,742.61,643.47Z"/><path class="cls-46" d="M742.22,643.87a12.24,12.24,0,0,1,3-1c2.86-.59,5.43-.29,5.74.68a.45.45,0,0,1,0,.16,16.42,16.42,0,0,1-2.16.59C745.83,644.93,743.09,644.72,742.22,643.87Z"/><path class="cls-46" d="M752.24,645.1a12.45,12.45,0,0,1-3,.92c-2.88.52-5.44.15-5.72-.83a.41.41,0,0,1,0-.16,17.58,17.58,0,0,1,2.19-.53C748.66,644,751.4,644.23,752.24,645.1Z"/><path class="cls-46" d="M751.14,648.28a13.66,13.66,0,0,1-3.25-.37c-2.89-.66-5-2-4.74-2.94l.06-.14a17.83,17.83,0,0,1,2.27.37C748.52,645.89,750.85,647.19,751.14,648.28Z"/><path class="cls-46" d="M749.59,650.76a13.08,13.08,0,0,1-2.92-1.31c-2.47-1.47-3.93-3.32-3.27-4.13a.68.68,0,0,1,.12-.12,17.07,17.07,0,0,1,2,1C748.1,647.77,749.77,649.67,749.59,650.76Z"/><path class="cls-46" d="M737.75,647.78a11.14,11.14,0,0,1,2.51,1.51c2,1.64,3.08,3.54,2.31,4.25l-.13.1a13.4,13.4,0,0,1-1.69-1.16C738.6,650.77,737.38,648.8,737.75,647.78Z"/><path class="cls-46" d="M737.18,647.62a9,9,0,0,1,2,2c1.54,2,2,4.15,1,4.77l-.17.08A11.9,11.9,0,0,1,738.7,653C737.09,650.86,736.49,648.63,737.18,647.62Z"/><path class="cls-46" d="M738.85,656a8.75,8.75,0,0,1-2-2c-1.46-2.06-1.82-4.22-.81-4.81l.17-.08a10.56,10.56,0,0,1,1.27,1.51C739.05,652.71,739.57,655,738.85,656Z"/><path class="cls-46" d="M734.93,656.3a8,8,0,0,1-.57-2.69c-.14-2.52.69-4.68,1.86-4.84h.18a11.08,11.08,0,0,1,.28,1.92C736.82,653.34,736.06,655.66,734.93,656.3Z"/><path class="cls-46" d="M732.25,656.4a8.83,8.83,0,0,1-.1-2.81c.3-2.58,1.47-4.65,2.62-4.63l.18,0a12.35,12.35,0,0,1-.07,2C734.57,653.68,733.45,655.92,732.25,656.4Z"/><path class="cls-46" d="M747.84,652.32a10.79,10.79,0,0,1-2.73-1.29c-2.26-1.47-3.52-3.35-2.81-4.19l.13-.13a14.17,14.17,0,0,1,1.85,1C746.66,649.27,748.11,651.2,747.84,652.32Z"/><path class="cls-46" d="M744.27,653.8a9.27,9.27,0,0,1-1.69-2.31c-1.19-2.28-1.32-4.52-.28-5l.18-.06a12.54,12.54,0,0,1,1.07,1.69C744.81,650.51,745.07,652.87,744.27,653.8Z"/><path class="cls-17" d="M757.67,676.45l-47,.13V638.27l47,.13c-4.66,1.15-8.26,9.23-8.26,19S753,675.31,757.67,676.45Z"/><path class="cls-47" d="M770.11,657.44c0,9.74-4.48,17.78-10.28,18.94h0a7.43,7.43,0,0,1-1.42.14,8,8,0,0,1-1.39-.13c-5.82-1.12-10.33-9.18-10.33-18.95s4.5-17.82,10.3-19a7.5,7.5,0,0,1,1.42-.13,6.87,6.87,0,0,1,1.43.14C765.63,639.64,770.11,647.68,770.11,657.44Z"/><path class="cls-17" d="M710.64,638.35v38.31c-5.57,0-10.12-8-10.42-18.08,0-.35,0-.71,0-1.08s0-.92,0-1.37v0c0-.09,0-.19,0-.29,0-.42,0-.85.08-1.26,0-.17,0-.33,0-.49q.06-.65.15-1.29h0s0-.07,0-.11c.09-.57.18-1.13.29-1.68a.5.5,0,0,1,0-.12l0-.13c0-.22.09-.43.14-.63s.06-.3.1-.45h0l0-.1c0-.18.09-.36.13-.53v0a.64.64,0,0,1,0-.07c.09-.35.2-.7.3-1,0-.07,0-.13.07-.2s.11-.33.16-.49h0a4.09,4.09,0,0,1,.16-.42c.06-.18.13-.35.19-.52s.05-.13.08-.19.09-.23.14-.35l.1-.22.17-.38c.17-.36.34-.72.53-1.06a.41.41,0,0,1,0-.09l.09-.17c.1-.19.21-.37.32-.55s.41-.65.62-1l.05-.06a12.36,12.36,0,0,1,1.24-1.5l.36-.35a8.73,8.73,0,0,1,1.47-1.11l.08,0a6.44,6.44,0,0,1,2.63-.87h.09A3.17,3.17,0,0,1,710.64,638.35Z"/><ellipse class="cls-48" cx="759.06" cy="657.5" rx="8.36" ry="13.66"/><ellipse class="cls-49" cx="759.06" cy="657.5" rx="5.12" ry="8.38"/><path class="cls-46" d="M742.28,638.36s-4.33,2.15-4.45,6.7c0,0-7,2.21-7.19,1.9s-10.42-7.21-10.42-7.21l5.51-2.39,11.62.06Z"/><path class="cls-50" d="M738.61,650.82a3.93,3.93,0,0,1-.18.43,5.75,5.75,0,0,1-1.11,1.51l-.11.1a9.32,9.32,0,0,1-1.7,1.28l-.13.08a18.89,18.89,0,0,1-2.16,1.08l-.09,0c-.68.28-1.4.55-2.17.79l-.27.09c-.64.2-1.3.38-2,.56l-.32.08c-.59.15-1.21.29-1.84.42l-.27.06c-.66.13-1.34.26-2,.38l-.33,0h0c-.7.12-1.42.23-2.15.33h0l-1.55.2-.95.11-.59.06-1.67.15-.86.07c-.62,0-1.24.08-1.84.1l-.52,0q-1.22,0-2.37,0h-.7c-.49,0-1,0-1.42-.06h0l-.43,0c-.76-.06-1.48-.14-2.17-.24h0l-.51-.09a17.57,17.57,0,0,1-1.76-.38l-.58-.18a11.28,11.28,0,0,1-1.49-.59l-.22-.11a6.59,6.59,0,0,1-1.58-1.09l-.1-.1-.14-.14c0-.42,0-.85.08-1.26,0-.17,0-.33,0-.49q.06-.65.15-1.29a5.61,5.61,0,0,1-1.56.05v0s0-.09,0-.13a5.06,5.06,0,0,1,0-.55,13.11,13.11,0,0,1,1.85-1.14.5.5,0,0,1,0-.12,12.44,12.44,0,0,1-1.57-.1l.12-.31c.05-.12.1-.24.16-.36a14.14,14.14,0,0,1,1.46,0c0-.15.06-.3.1-.45h0v-.12c0-.17,0-.33,0-.5v-.13a6.07,6.07,0,0,1-.67-.14,11.13,11.13,0,0,1,.73-.86l.15-.16.13-.12c.14-.15.29-.28.44-.42h0l.42-.37.61-.48.09-.07h0l.5-.35c.25-.18.51-.35.78-.52h0l.41-.24.05,0,.61-.34.23-.12.6-.31.59-.28.07,0,.2-.09.18-.08.71-.3.84-.33.71-.26.36-.12.83-.26.16,0,.27-.08h0l.31-.08.61-.17.4-.1.42-.1.24-.06h.06c.18-.05.36-.08.54-.12l.35-.08,1.08-.2h0l.11,0c.66-.11,1.33-.21,2-.29l.16,0,.24,0h0l.69-.07.59,0,.66,0h.49l.56,0,.76,0h1.15c.66,0,1.32,0,2,.08l.39,0,.5,0,.51,0,.61.08.33,0,.41.06.31,0,.25,0,.24,0,.94.19.1,0,.26.06.25.06.77.19.86.25.23.08.72.25h0l.29.11h0c.35.13.68.27,1,.42l0,0c.28.13.55.26.81.4l.55.3.58.37.15.1h0c.14.09.27.19.4.29s.37.29.55.44l.3.28.32.32c.08.09.16.17.23.26a6.74,6.74,0,0,1,.47.62h0a5.21,5.21,0,0,1,.48.86h0a.2.2,0,0,1,0,.08h0a5,5,0,0,1,.35,1.18c0,.12,0,.24.05.36V649A4.07,4.07,0,0,1,738.61,650.82Z"/><path class="cls-50" d="M705.55,651.75a3,3,0,0,1-.36.16,11.51,11.51,0,0,1-2.55.69h0l-.44.06h0l-.1,0-.19,0h0a12.41,12.41,0,0,1-1.34.07h-.05c-.33,0-.66,0-1,0h0a5.8,5.8,0,0,1-.6-.06,4.85,4.85,0,0,1-.55-.09l.57-.46a13.11,13.11,0,0,1,1.85-1.14.5.5,0,0,1,0-.12,12.44,12.44,0,0,1-1.57-.1,4.79,4.79,0,0,1-1.64-.48l.63-.09.18,0c.38,0,.75-.07,1.11-.08a14.14,14.14,0,0,1,1.46,0h.19c.44,0,.85.08,1.24.14h0a8.49,8.49,0,0,1,1.41.37l.19.07a4.86,4.86,0,0,1,.51.23,2.69,2.69,0,0,1,.5.32,2,2,0,0,1,.42.4A.86.86,0,0,0,705.55,651.75Z"/><path class="cls-50" d="M706.09,650.81l-.26,0c-.39,0-.82.08-1.27.09-.27,0-.56,0-.86,0s-.79,0-1.2,0l-.7,0-.38,0-.19,0h0l-.36,0c-.53-.08-1-.18-1.48-.28s-.66-.18-.95-.28c.38,0,.75-.07,1.11-.08a14.14,14.14,0,0,1,1.46,0c0-.15.06-.3.1-.45h0v-.12c0-.17,0-.33,0-.5v0l.15,0h.07a16.16,16.16,0,0,1,3,.68,6.13,6.13,0,0,1,.91.37h0l.35.21a1.68,1.68,0,0,1,.4.33l.08.1A.41.41,0,0,1,706.09,650.81Z"/><path class="cls-50" d="M706.75,650.65H706c-.4,0-.82-.08-1.25-.14h0l-.24,0h0c-.4-.07-.81-.15-1.23-.25l-.35-.08h0a16,16,0,0,1-1.73-.55l0,0c0-.17,0-.33,0-.5v-.13a6.07,6.07,0,0,1-.67-.14,3,3,0,0,1-2-1.25.67.67,0,0,1,.06-.28.55.55,0,0,1,.09-.14,20.65,20.65,0,0,1,2.06.35h0l.38.08.18,0,.22.06.28.07a17,17,0,0,1,2.93,1.06h0l.29.15h0l.26.14h0a7.35,7.35,0,0,1,.77.51,3.72,3.72,0,0,1,.45.4h0l.08.08.15.21,0,.09A.88.88,0,0,1,706.75,650.65Z"/><path class="cls-50" d="M706.61,649l0,0a1.1,1.1,0,0,1-.09.14l-.49-.07c-.37-.06-.74-.14-1.12-.22h0l-.47-.11-.34-.08a20.6,20.6,0,0,1-2.48-.82l-.34-.15-.12,0-.53-.25h0a7.6,7.6,0,0,1-1.34-.85c.37-.08.77-.16,1.17-.21l.15,0a2.6,2.6,0,0,1-1.25-.85,18.67,18.67,0,0,1,2.38.42l.23.06.31.08.5.15.19.06h0a13.65,13.65,0,0,1,2,.85c.2.1.38.21.54.31a4,4,0,0,1,.87.73A.83.83,0,0,1,706.61,649Z"/><path class="cls-50" d="M701.84,643.43a2,2,0,0,0,.18,1.63h0a1.3,1.3,0,0,0,.08.17l.06.11c.07.13.15.26.23.39s.23.33.36.5l0,0h0l.06.08c.18.22.38.45.59.67a13.94,13.94,0,0,0,1.3,1.19l.5.38c.25.19.5.36.76.53l.55.34.17-.1a.85.85,0,0,0,.36-.54,2.5,2.5,0,0,0-.56-1.73c-.09-.14-.18-.27-.29-.41a8.91,8.91,0,0,0-.85-.94h0a8.15,8.15,0,0,0-.68-.61l-.08-.06h0l0-.05a13.21,13.21,0,0,0-1.38-1L703,644c-.3-.17-.6-.33-.89-.47h0Z"/><path class="cls-50" d="M705.16,642a8.43,8.43,0,0,1,1.7,2.27c1.16,2.22,1.11,4.31-.1,4.68l-.2,0a11.52,11.52,0,0,1-1.07-1.66C704.28,645.06,704.17,642.84,705.16,642Z"/><path class="cls-50" d="M710.25,646.52a7.81,7.81,0,0,1-2.54-1.5c-1.87-1.66-2.31-3.67-1-4.51l.22-.12a9.2,9.2,0,0,1,1.64,1.16C710.58,643.29,711.21,645.37,710.25,646.52Z"/><path class="cls-50" d="M712,646.66a8.64,8.64,0,0,1-1.72-2c-1.25-2-1.45-3.84-.47-4.2l.17-.05a11.26,11.26,0,0,1,1.1,1.47C712.38,643.93,712.73,645.92,712,646.66Z"/><path class="cls-50" d="M712.45,647a7.05,7.05,0,0,1-1.1-2.25c-.62-2.13-.19-4,1-4.25l.19,0a9,9,0,0,1,.65,1.62C713.81,644.3,713.48,646.33,712.45,647Z"/><path class="cls-50" d="M714.2,639.55a6.86,6.86,0,0,1,1,2.27c.53,2.15,0,4-1.15,4.23h-.19a9.18,9.18,0,0,1-.58-1.63C712.73,642.18,713.14,640.15,714.2,639.55Z"/><path class="cls-50" d="M722.23,645.38a14,14,0,0,0,2.66-1.86c2.12-1.88,3.12-3.85,2.21-4.39l-.16-.08a18.08,18.08,0,0,0-1.77,1.38C722.93,642.41,721.75,644.47,722.23,645.38Z"/><path class="cls-50" d="M721.62,645.62a10.34,10.34,0,0,0,2.09-2.21c1.54-2.16,1.85-4.25.71-4.67l-.19,0a12,12,0,0,0-1.35,1.62C721.26,642.58,720.78,644.79,721.62,645.62Z"/><path class="cls-50" d="M722.43,638a10.29,10.29,0,0,0-2,2.25c-1.45,2.2-1.68,4.29-.52,4.68l.2.05a14.07,14.07,0,0,0,1.28-1.64C722.91,641,723.3,638.77,722.43,638Z"/><path class="cls-50" d="M718.08,638.3a6.93,6.93,0,0,0-.43,2.64c.05,2.39,1.15,4.3,2.44,4.24l.21,0a9.29,9.29,0,0,0,.15-1.86C720.39,640.78,719.38,638.71,718.08,638.3Z"/><path class="cls-50" d="M715.11,638.7a6.82,6.82,0,0,0,.09,2.64c.51,2.36,2,4.12,3.24,3.93l.2,0a8.66,8.66,0,0,0-.21-1.84C717.9,640.9,716.49,639,715.11,638.7Z"/><path class="cls-50" d="M726.81,645.89a7,7,0,0,1-.07-2.64c.37-2.41,1.71-4.32,3-4.29a1.2,1.2,0,0,1,.2,0,9.19,9.19,0,0,1-.1,1.86C729.43,643.38,728.15,645.46,726.81,645.89Z"/><path class="cls-50" d="M727,646.36a7,7,0,0,1,.75-2.63c1.12-2.32,3.1-4,4.43-3.75l.2,0a9,9,0,0,1-.68,1.83C730.54,644.31,728.56,646.16,727,646.36Z"/><path class="cls-50" d="M734.81,639.83a7.17,7.17,0,0,1-.86,2.61c-1.22,2.3-3.28,3.95-4.59,3.67a.66.66,0,0,1-.2-.06,9.43,9.43,0,0,1,.76-1.82C731.21,641.81,733.26,640,734.81,639.83Z"/><path class="cls-50" d="M737.8,642.17a12.1,12.1,0,0,1-2.49,2.13c-2.6,1.73-5.47,2.6-6.41,1.94a.77.77,0,0,1-.13-.12,15.74,15.74,0,0,1,1.87-1.43C733.37,642.86,736.36,641.84,737.8,642.17Z"/><path class="cls-50" d="M739.7,644.48a17,17,0,0,1-3.38,1.44c-3.27,1-6.34,1.17-6.86.31a.42.42,0,0,1-.06-.14,22.14,22.14,0,0,1,2.45-.92C735.29,644.08,738.54,643.82,739.7,644.48Z"/><path class="cls-50" d="M707.59,654.39a7.47,7.47,0,0,1-.69,2.61c-1,2.31-2.88,4-4.11,3.77l-.19-.06a11,11,0,0,1,.63-1.82C704.33,656.46,706.16,654.6,707.59,654.39Z"/><path class="cls-50" d="M707.51,653.89a8.31,8.31,0,0,1-1.46,2.47c-1.76,2.12-4.16,3.48-5.37,3l-.19-.09a12.48,12.48,0,0,1,1.18-1.7C703.52,655.37,706,653.85,707.51,653.89Z"/><path class="cls-50" d="M705.35,653.86l-.16.27-.06.08q-.25.38-.57.78h0c-.14.18-.29.35-.45.53h0v0a13.94,13.94,0,0,1-1.82,1.72q-.4.33-.81.6a11,11,0,0,1-1.25.72c0-.35,0-.71,0-1.08s0-.92,0-1.37h0v0l.16-.15c.21-.2.43-.4.65-.58h0a9.81,9.81,0,0,1,1.57-1.08,6.51,6.51,0,0,1,.82-.37l.22-.08h0a2.86,2.86,0,0,1,.58-.14,1.76,1.76,0,0,1,.9,0h0Z"/><path class="cls-50" d="M705.75,653.86l-.45.26-.06,0-.11.06c-.49.26-1,.52-1.6.77-.33.15-.67.29-1,.41a21.21,21.21,0,0,1-2,.67l-.26.07h0v0c0-.09,0-.19,0-.29,0-.42,0-.85.08-1.26,0-.17,0-.33,0-.49l.72-.23a12.68,12.68,0,0,1,2.5-.5h0l.29,0h.36a4.88,4.88,0,0,1,.72.07h0a1.51,1.51,0,0,1,.6.25l.1.09A.42.42,0,0,1,705.75,653.86Z"/><path class="cls-50" d="M705.11,653.64a.54.54,0,0,0-.15-.26h0a1.53,1.53,0,0,0-.48-.31l-.3-.11h0a7.07,7.07,0,0,0-1.43-.26h0l-.55,0h-1l-.71,0-1,.07h0l-.59.07h0a5.61,5.61,0,0,0,1.56-.05q-.09.65-.15,1.29c0,.16,0,.32,0,.49l.38,0h0c.58,0,1.18-.12,1.79-.21l.12,0,.6-.09h0c.5-.08,1-.18,1.43-.29l.47-.12v0A.25.25,0,0,0,705.11,653.64Z"/><path class="cls-50" d="M716.72,654.62a8.27,8.27,0,0,1,1.47,2.48c.94,2.41.71,4.67-.52,5l-.2,0a11.17,11.17,0,0,1-.89-1.8C715.59,657.86,715.69,655.46,716.72,654.62Z"/><path class="cls-50" d="M716.27,654.24A7.2,7.2,0,0,1,717,657c.18,2.57-.79,4.82-2.17,5h-.22a9.78,9.78,0,0,1-.33-2C714.05,657.34,714.93,654.93,716.27,654.24Z"/><path class="cls-50" d="M713.43,662.17a8.57,8.57,0,0,1-1.92-2.21c-1.35-2.19-1.46-4.37-.23-4.87l.2-.07a11.25,11.25,0,0,1,1.22,1.62C714.12,659,714.39,661.24,713.43,662.17Z"/><path class="cls-50" d="M709,662.17a7.15,7.15,0,0,1-.26-2.74c.2-2.53,1.45-4.61,2.78-4.67h.21a9,9,0,0,1,0,2C711.52,659.37,710.34,661.63,709,662.17Z"/><path class="cls-50" d="M705.34,661.61a8.85,8.85,0,0,1,1-2.74c1.38-2.41,3.48-4.11,4.7-3.81a1,1,0,0,1,.18.07,12.18,12.18,0,0,1-.88,1.9C708.94,659.57,706.82,661.45,705.34,661.61Z"/><path class="cls-50" d="M731.08,648.27a14.22,14.22,0,0,1,3-1.51c3-1.11,5.86-1.35,6.44-.52a.83.83,0,0,1,.07.13,19,19,0,0,1-2.21,1C735.28,648.51,732.24,648.87,731.08,648.27Z"/><path class="cls-50" d="M730.64,648.67a15.29,15.29,0,0,1,3.41-1c3.25-.59,6.17-.29,6.53.68a.94.94,0,0,1,0,.16,21.17,21.17,0,0,1-2.46.59C734.74,649.73,731.63,649.52,730.64,648.67Z"/><path class="cls-50" d="M742,649.9a15.66,15.66,0,0,1-3.46.92c-3.27.52-6.19.15-6.51-.83a.41.41,0,0,1,0-.16,22.12,22.12,0,0,1,2.49-.53C738,648.75,741.08,649,742,649.9Z"/><path class="cls-50" d="M740.78,653.08a17.51,17.51,0,0,1-3.69-.37c-3.28-.66-5.7-2-5.39-2.94a.61.61,0,0,1,.07-.14,22.89,22.89,0,0,1,2.58.37C737.8,650.69,740.45,652,740.78,653.08Z"/><path class="cls-50" d="M739,655.56a15.89,15.89,0,0,1-3.33-1.31c-2.8-1.47-4.47-3.32-3.72-4.13l.14-.12a20.4,20.4,0,0,1,2.27,1C737.33,652.57,739.23,654.47,739,655.56Z"/><path class="cls-50" d="M725.56,652.58a13,13,0,0,1,2.85,1.51c2.33,1.64,3.51,3.54,2.63,4.25a.56.56,0,0,1-.15.1,15.56,15.56,0,0,1-1.92-1.16C726.52,655.57,725.14,653.6,725.56,652.58Z"/><path class="cls-50" d="M724.91,652.42a9.75,9.75,0,0,1,2.32,2c1.75,2,2.25,4.15,1.12,4.77l-.19.08a12.33,12.33,0,0,1-1.52-1.47C724.81,655.66,724.12,653.43,724.91,652.42Z"/><path class="cls-50" d="M726.81,660.76a9.41,9.41,0,0,1-2.24-2c-1.66-2.06-2.07-4.22-.92-4.81l.19-.08a11.58,11.58,0,0,1,1.45,1.51C727,657.51,727.63,659.77,726.81,660.76Z"/><path class="cls-50" d="M722.35,661.1a7.29,7.29,0,0,1-.65-2.69c-.16-2.52.79-4.68,2.12-4.84a1.47,1.47,0,0,1,.21,0,9.4,9.4,0,0,1,.31,1.92C724.5,658.14,723.64,660.46,722.35,661.1Z"/><path class="cls-50" d="M719.3,661.2a7.8,7.8,0,0,1-.1-2.81c.34-2.58,1.67-4.65,3-4.63l.21,0a11.34,11.34,0,0,1-.08,2C721.94,658.48,720.67,660.72,719.3,661.2Z"/><path class="cls-50" d="M737,657.12a13.11,13.11,0,0,1-3.11-1.29c-2.57-1.47-4-3.35-3.19-4.19a.86.86,0,0,1,.14-.13,17,17,0,0,1,2.11,1C735.69,654.07,737.34,656,737,657.12Z"/><path class="cls-50" d="M733,658.6a9.55,9.55,0,0,1-1.92-2.31c-1.36-2.28-1.5-4.52-.32-5l.2-.06a11.42,11.42,0,0,1,1.22,1.69C733.58,655.31,733.89,657.67,733,658.6Z"/><path class="cls-46" d="M743.45,639.47a7.82,7.82,0,0,1-2.64.09c-2.4-.31-4.33-1.46-4.31-2.58a1.13,1.13,0,0,1,0-.18,10.81,10.81,0,0,1,1.86.07C740.92,637.19,743,638.3,743.45,639.47Z"/><path class="cls-46" d="M743.07,641.7a12.68,12.68,0,0,1-3.3-.24c-3-.6-5.32-2-5.21-3.11a.85.85,0,0,1,0-.17,16.78,16.78,0,0,1,2.32.3C740.06,639.11,742.6,640.47,743.07,641.7Z"/><path class="cls-46" d="M735.4,640.1a7.9,7.9,0,0,1,2.52.77c2.18,1.07,3.64,2.78,3.25,3.83a.8.8,0,0,1-.08.16,9.68,9.68,0,0,1-1.74-.67C737.06,643.08,735.43,641.35,735.4,640.1Z"/><path class="cls-51" d="M736.12,646s0,.11,0,.16a5,5,0,0,1-.19.87,3.12,3.12,0,0,1-.15.43h0a4.72,4.72,0,0,1-.42.8,6.07,6.07,0,0,1-.55.73l-.1.11-.19.21-.17.16c-.15.15-.32.3-.49.44s-.42.34-.65.5l0,0h0l-.07,0-.25.17-.46.29-.41.23q-.36.21-.75.39h0l-.08,0h0l-.5.24-.55.23-.86.34-.24.08c-.55.2-1.14.39-1.74.57l-.28.08,0,0h0l-.69.19h0l-.61.16-.27.06-.23.06-.47.11-.5.11-.19,0h0l-.34.07-.3.06-.29.05-.13,0-.46.08-1.31.23h0l-.21,0-1.15.17-.83.1-.52.07-1.35.14-.13,0-.28,0-.18,0-.29,0-.75.06-.87,0-.46,0c-.71,0-1.41,0-2.08,0h-.79l-.51,0h-.07l-.3,0h-.2l-.37,0c-.67-.06-1.31-.14-1.91-.25l-.24,0-.21,0-.18,0-.31-.07h0c-.37-.09-.72-.18-1.05-.29l0,0-.47-.16h0l0,0-.53-.22-.43-.2-.26-.14-.19-.12a1.86,1.86,0,0,1-.19-.11h0a6.87,6.87,0,0,1-.84-.64h0l-.11-.1h0l-.26-.26-.08-.1a4.92,4.92,0,0,1-.86-1.38s0,0,0-.05a.42.42,0,0,1,0-.1,5.76,5.76,0,0,1-.18-.59,3.4,3.4,0,0,1-.09-.46h0v-.12c0-.17,0-.33,0-.5v-.13a5.6,5.6,0,0,1,.06-1l0-.21,0-.13a6,6,0,0,1,.26-.92c0-.13.09-.25.14-.37l.15-.34c.11-.22.23-.44.36-.65l0-.06.09-.15A11.83,11.83,0,0,1,703,644l.06-.06a.69.69,0,0,1,.11-.13c.15-.17.31-.35.47-.51a10.31,10.31,0,0,1,.83-.78l.08-.07a16.14,16.14,0,0,1,1.49-1.13l0,0h0q.54-.36,1.11-.69l.67-.37.06,0a23.81,23.81,0,0,1,2.33-1.07l.31-.13h0c.35-.14.7-.26,1.07-.39l.27-.09c.48-.15,1-.3,1.47-.43l.06,0c.57-.15,1.16-.29,1.76-.41l.1,0c.58-.11,1.17-.21,1.77-.29l.36,0h0c.67-.09,1.34-.15,2-.19h.14c.69,0,1.38-.06,2.06,0h.1c.58,0,1.16,0,1.72.08l.35,0c.59.06,1.16.13,1.72.22l.35.06c.56.1,1.1.21,1.63.34l.44.12c.5.14,1,.29,1.44.46l.2.07a16.2,16.2,0,0,1,1.78.8l0,0a11.47,11.47,0,0,1,1.7,1.08l.14.11h0a8.77,8.77,0,0,1,1.08,1h0l.28.32c.07.09.14.17.2.26a4.87,4.87,0,0,1,.32.47,5.94,5.94,0,0,1,.52,1l0,.08c0,.11.08.22.11.33a3.37,3.37,0,0,1,.1.34c0,.11,0,.22.07.33l0,.2c0,.12,0,.25,0,.37v.07A4,4,0,0,1,736.12,646Z"/><path class="cls-51" d="M706.85,648l-.45.22-.35.15a8.33,8.33,0,0,1-.8.27c-.21.06-.43.12-.65.16h0l-.18,0-.53.09h-.08a9.88,9.88,0,0,1-2.22.07h0l-.28,0-.25,0a6.07,6.07,0,0,1-.67-.14,3,3,0,0,1-2-1.25.67.67,0,0,1,.06-.28.55.55,0,0,1,.09-.14,20.65,20.65,0,0,1,2.06.35,7.6,7.6,0,0,1-1.34-.85c.37-.08.77-.16,1.17-.21l.15,0h0a8.3,8.3,0,0,1,1-.09H703a7.92,7.92,0,0,1,2.23.46,5.26,5.26,0,0,1,.79.38h0A2.49,2.49,0,0,1,706.85,648Z"/><path class="cls-51" d="M707.32,647l-.79.1-.55,0h-1l-.83,0-.71-.07c-.42,0-.82-.11-1.2-.19l-.26-.05-.56-.14c-.31-.09-.59-.18-.84-.28h0a2.6,2.6,0,0,1-1.25-.85.56.56,0,0,1-.11-.4.57.57,0,0,1,0-.14,16.77,16.77,0,0,1,2.23,0h.16l.36,0,.18,0,.47,0c.56.08,1.09.18,1.57.29h0l.5.13c.23.06.44.13.64.2a3.87,3.87,0,0,1,1.81,1.06A1,1,0,0,1,707.32,647Z"/><path class="cls-51" d="M701.84,643.43c-.39-.08-.78-.14-1.15-.2a1.09,1.09,0,0,0-.08.15c-.2.48.22,1.08,1,1.64l.42.27.09.05a2.55,2.55,0,0,0,.33.17c.29.15.61.29,1,.43s.87.31,1.35.44l.25.06a10.84,10.84,0,0,0,1.18.25c.33.06.65.09,1,.12h0l.48,0h.22a1.54,1.54,0,0,0-.34-.71,5.28,5.28,0,0,0-1.3-1.06l-.71-.39c-.33-.16-.67-.32-1-.46s-.76-.28-1.17-.41l-.15,0-.36-.1-.33-.08-.37-.1Z"/><path class="cls-51" d="M700.6,641.57a12.9,12.9,0,0,1,3.08.54c2.67.81,4.5,2.2,4.08,3.12a1,1,0,0,1-.08.14,16.6,16.6,0,0,1-2.13-.49C702.74,644,700.71,642.64,700.6,641.57Z"/><path class="cls-51" d="M703.61,639.45a10.42,10.42,0,0,1,2.38,1.68c1.9,1.77,2.75,3.75,1.89,4.41l-.15.1a13.81,13.81,0,0,1-1.59-1.27C704.14,642.51,703.12,640.46,703.61,639.45Z"/><path class="cls-51" d="M706.5,638.09a8.78,8.78,0,0,1,1.5,2.31c1,2.25,1,4.38-.09,4.76l-.18,0a10.75,10.75,0,0,1-.93-1.68C705.73,641.16,705.64,638.9,706.5,638.09Z"/><path class="cls-51" d="M711,642.64a6.62,6.62,0,0,1-2.23-1.52c-1.65-1.69-2-3.74-.86-4.58a.82.82,0,0,1,.2-.12,8.28,8.28,0,0,1,1.44,1.18C711.27,639.37,711.83,641.47,711,642.64Z"/><path class="cls-51" d="M712.51,642.79a9.1,9.1,0,0,1-1.52-2c-1.09-2-1.27-3.91-.4-4.28l.14,0a10,10,0,0,1,1,1.48C712.86,640,713.16,642,712.51,642.79Z"/><path class="cls-51" d="M712.92,643.09a7.57,7.57,0,0,1-1-2.28c-.55-2.17-.17-4.1.85-4.32l.17,0a9.57,9.57,0,0,1,.56,1.64C714.11,640.39,713.82,642.45,712.92,643.09Z"/><path class="cls-51" d="M714.45,635.56a7.28,7.28,0,0,1,.89,2.31c.47,2.18,0,4.1-1,4.29l-.17,0a9.78,9.78,0,0,1-.5-1.66C713.16,638.23,713.52,636.17,714.45,635.56Z"/><path class="cls-51" d="M721.52,641.48a11.94,11.94,0,0,0,2.33-1.89c1.87-1.91,2.75-3.91,1.95-4.46l-.14-.08a16.55,16.55,0,0,0-1.56,1.4C722.13,638.47,721.09,640.56,721.52,641.48Z"/><path class="cls-51" d="M721,641.73a10.13,10.13,0,0,0,1.84-2.25c1.35-2.2,1.63-4.32.62-4.74l-.17,0a13,13,0,0,0-1.19,1.64C720.66,638.64,720.24,640.88,721,641.73Z"/><path class="cls-51" d="M721.69,633.94a10.19,10.19,0,0,0-1.77,2.29c-1.27,2.23-1.47,4.36-.45,4.76l.17,0a13.78,13.78,0,0,0,1.13-1.66C722.11,637,722.46,634.77,721.69,633.94Z"/><path class="cls-51" d="M717.86,634.29a8.12,8.12,0,0,0-.37,2.68c0,2.44,1,4.37,2.15,4.31l.18,0a11.45,11.45,0,0,0,.13-1.89C719.9,636.8,719,634.71,717.86,634.29Z"/><path class="cls-51" d="M715.26,634.7a7.9,7.9,0,0,0,.07,2.68c.45,2.39,1.73,4.18,2.86,4l.17,0a10.38,10.38,0,0,0-.18-1.88C717.71,636.93,716.47,635,715.26,634.7Z"/><path class="cls-51" d="M725.54,642a8.12,8.12,0,0,1-.06-2.68c.33-2.45,1.5-4.4,2.62-4.36l.18,0a10.29,10.29,0,0,1-.09,1.89C727.85,639.45,726.72,641.56,725.54,642Z"/><path class="cls-51" d="M725.73,642.48a8.07,8.07,0,0,1,.65-2.67c1-2.36,2.74-4.07,3.9-3.82l.18.06a10.81,10.81,0,0,1-.6,1.86C728.82,640.39,727.08,642.28,725.73,642.48Z"/><path class="cls-51" d="M732.57,635.84a8.11,8.11,0,0,1-.75,2.66c-1.07,2.34-2.88,4-4,3.73l-.18-.06a10.41,10.41,0,0,1,.67-1.85C729.41,637.85,731.22,636,732.57,635.84Z"/><path class="cls-51" d="M738.65,638.23a10.73,10.73,0,0,1-2.74,1.41c-2.7,1-5.38,1.08-6,.18a.61.61,0,0,1-.07-.14,15.12,15.12,0,0,1,2-.9C734.72,637.74,737.54,637.54,738.65,638.23Z"/><path class="cls-51" d="M736.88,640.57a13.92,13.92,0,0,1-3,1.47c-2.88,1.05-5.58,1.19-6,.31a.88.88,0,0,1,0-.15,18.76,18.76,0,0,1,2.15-.93C733,640.16,735.86,639.9,736.88,640.57Z"/><path class="cls-51" d="M708.64,650.64a8.38,8.38,0,0,1-.61,2.66c-.92,2.35-2.53,4.06-3.61,3.83l-.17-.06a11.64,11.64,0,0,1,.56-1.85C705.77,652.74,707.39,650.86,708.64,650.64Z"/><path class="cls-51" d="M708.57,650.13a8.62,8.62,0,0,1-1.29,2.52c-1.54,2.15-3.65,3.53-4.72,3.07l-.16-.08a11.49,11.49,0,0,1,1-1.73C705.06,651.64,707.21,650.1,708.57,650.13Z"/><path class="cls-51" d="M700.3,655.47a8.85,8.85,0,0,1,1.38-2.49c1.63-2.12,3.79-3.45,4.84-3a.46.46,0,0,1,.15.09,11.88,11.88,0,0,1-1.1,1.7C703.87,654,701.66,655.54,700.3,655.47Z"/><path class="cls-51" d="M707,650.1l-.37.25-.17.11-.29.17-.15.09-.21.12c-.24.14-.5.27-.76.41h0a17.77,17.77,0,0,1-2.68,1.09l-.23.07h0c-.32.1-.62.18-.91.24l-.67.12h-.05a5.61,5.61,0,0,1-1.56.05h-.06a2.13,2.13,0,0,1-.57-.17l.07-.06.57-.46a13.11,13.11,0,0,1,1.85-1.14l.17-.09.07,0,.17-.09h0l.15-.07c.36-.16.72-.32,1.06-.45h0l.42-.15h0a10.31,10.31,0,0,1,1.42-.4,6.16,6.16,0,0,1,1.62-.15,2.52,2.52,0,0,1,.41.06,1.13,1.13,0,0,1,.61.34A1,1,0,0,1,707,650.1Z"/><path class="cls-51" d="M706.48,650h0l-.89.24-.85.19h0l-.44.08h0l-.1,0-.3,0c-.71.11-1.41.18-2.06.22h-1a12.44,12.44,0,0,1-1.57-.1,4.79,4.79,0,0,1-1.64-.48l.63-.09.18,0c.38,0,.75-.07,1.11-.08a14.14,14.14,0,0,1,1.46,0c0-.15.06-.3.1-.45h0v-.12c0-.17,0-.33,0-.5l.15,0h.08l.3,0h0a14.14,14.14,0,0,1,2.3-.08h0a8.45,8.45,0,0,1,1.26.16h0a2.2,2.2,0,0,1,1.18.57.58.58,0,0,1,.13.26.5.5,0,0,1,0,.12Z"/><path class="cls-51" d="M716.67,650.88A8.62,8.62,0,0,1,718,653.4c.83,2.45.62,4.75-.45,5.13l-.18.05a13,13,0,0,1-.79-1.84C715.68,654.17,715.76,651.74,716.67,650.88Z"/><path class="cls-51" d="M716.27,650.49a8.38,8.38,0,0,1,.62,2.78c.16,2.62-.69,4.91-1.91,5.11h-.19a11.87,11.87,0,0,1-.3-2C714.33,653.64,715.1,651.2,716.27,650.49Z"/><path class="cls-51" d="M713.78,658.55a8.38,8.38,0,0,1-1.69-2.24c-1.19-2.22-1.28-4.44-.21-4.95l.18-.07a10.41,10.41,0,0,1,1.07,1.65C714.39,655.28,714.62,657.61,713.78,658.55Z"/><path class="cls-51" d="M709.86,658.55a8.29,8.29,0,0,1-.24-2.78c.18-2.57,1.28-4.69,2.45-4.75h.19a12.92,12.92,0,0,1,0,2C712.1,655.71,711.06,658,709.86,658.55Z"/><path class="cls-51" d="M706.66,658a9.6,9.6,0,0,1,.93-2.79c1.21-2.45,3.06-4.18,4.13-3.87a.76.76,0,0,1,.16.06,13.11,13.11,0,0,1-.78,1.94C709.83,655.91,708,657.82,706.66,658Z"/><path class="cls-51" d="M729.3,644.42a12.38,12.38,0,0,1,2.67-1.53c2.61-1.13,5.14-1.37,5.65-.54a1,1,0,0,1,.07.15,18.62,18.62,0,0,1-2,1C733,644.67,730.32,645,729.3,644.42Z"/><path class="cls-51" d="M728.91,644.83a12.21,12.21,0,0,1,3-1c2.86-.6,5.43-.29,5.75.7l0,.16a17.29,17.29,0,0,1-2.16.6C732.52,645.9,729.78,645.69,728.91,644.83Z"/><path class="cls-51" d="M738.93,646.08a12.41,12.41,0,0,1-3,.94c-2.88.52-5.44.15-5.72-.84a1,1,0,0,1,0-.17,17.54,17.54,0,0,1,2.19-.54C735.36,644.91,738.09,645.2,738.93,646.08Z"/><path class="cls-51" d="M737.83,649.31a13.66,13.66,0,0,1-3.25-.37c-2.89-.67-5-2-4.74-3a1,1,0,0,1,.07-.15,18.53,18.53,0,0,1,2.27.38C735.21,646.89,737.54,648.21,737.83,649.31Z"/><path class="cls-51" d="M736.29,651.83a12.64,12.64,0,0,1-2.93-1.33c-2.46-1.5-3.93-3.37-3.27-4.19l.12-.13a19.18,19.18,0,0,1,2,1C734.8,648.8,736.46,650.72,736.29,651.83Z"/><path class="cls-51" d="M724.44,648.8a10.57,10.57,0,0,1,2.51,1.54c2,1.66,3.09,3.59,2.32,4.32a.71.71,0,0,1-.14.1,13.3,13.3,0,0,1-1.69-1.18C725.29,651.84,724.07,649.84,724.44,648.8Z"/><path class="cls-51" d="M723.87,648.64a9,9,0,0,1,2,2c1.54,2.05,2,4.23,1,4.85l-.17.09a12.24,12.24,0,0,1-1.33-1.5C723.78,651.93,723.18,649.66,723.87,648.64Z"/><path class="cls-51" d="M725.54,657.12a8.69,8.69,0,0,1-2-2.07c-1.46-2.1-1.83-4.29-.82-4.89l.18-.08a12.28,12.28,0,0,1,1.27,1.53C725.74,653.82,726.26,656.11,725.54,657.12Z"/><path class="cls-51" d="M721.62,657.47a8.5,8.5,0,0,1-.57-2.74c-.14-2.56.7-4.76,1.86-4.91a.61.61,0,0,1,.19,0,11.61,11.61,0,0,1,.27,2C723.51,654.46,722.76,656.82,721.62,657.47Z"/><path class="cls-51" d="M718.94,657.57a8.87,8.87,0,0,1-.09-2.86c.3-2.62,1.47-4.73,2.61-4.71l.18,0a11.73,11.73,0,0,1-.06,2C721.26,654.8,720.14,657.08,718.94,657.57Z"/><path class="cls-51" d="M734.54,653.42a10.41,10.41,0,0,1-2.73-1.31c-2.26-1.5-3.52-3.41-2.81-4.26a.8.8,0,0,1,.13-.13,13.67,13.67,0,0,1,1.84,1C733.35,650.32,734.8,652.28,734.54,653.42Z"/><path class="cls-51" d="M731,654.92a9.33,9.33,0,0,1-1.68-2.35c-1.2-2.31-1.33-4.59-.29-5.09l.18-.06a12,12,0,0,1,1.07,1.72C731.5,651.58,731.77,654,731,654.92Z"/><path class="cls-52" d="M724.14,637.19a4.73,4.73,0,0,1,1.9,0c1.67.37,2.85,1.44,2.64,2.4a.83.83,0,0,1,0,.15,6.12,6.12,0,0,1-1.32-.14C725.56,639.26,724.26,638.22,724.14,637.19Z"/><path class="cls-52" d="M729.81,636.84a6.57,6.57,0,0,1-.75,1.72c-.89,1.46-2.08,2.36-2.66,2l-.09-.06a8.85,8.85,0,0,1,.61-1.18C727.85,637.79,729.07,636.77,729.81,636.84Z"/><path class="cls-52" d="M732.85,639a7.14,7.14,0,0,1-2,.66c-1.87.35-3.54,0-3.73-.75a.5.5,0,0,1,0-.12,8.17,8.17,0,0,1,1.42-.38C730.52,638,732.3,638.25,732.85,639Z"/><path class="cls-52" d="M731.75,642.85a7.47,7.47,0,0,1-2-.78c-1.73-.94-2.87-2.26-2.55-3a.53.53,0,0,1,.06-.1,9.77,9.77,0,0,1,1.38.63C730.45,640.63,731.73,642,731.75,642.85Z"/><path class="cls-52" d="M729,645.06a7.87,7.87,0,0,1-1.24-1.8c-.93-1.78-1.15-3.52-.5-3.89l.11,0a11,11,0,0,1,.8,1.32C729.15,642.51,729.48,644.35,729,645.06Z"/><path class="cls-52" d="M723.34,641.75a4.85,4.85,0,0,0,1.9,0c1.68-.32,2.89-1.36,2.71-2.32,0-.06,0-.11,0-.16a6.88,6.88,0,0,0-1.33.11C724.82,639.72,723.48,640.72,723.34,641.75Z"/><path class="cls-52" d="M707.81,646.28a4.73,4.73,0,0,1,1.9.05c1.67.36,2.85,1.44,2.64,2.4a.83.83,0,0,1,0,.15,6.14,6.14,0,0,1-1.32-.15C709.23,648.35,707.93,647.3,707.81,646.28Z"/><path class="cls-52" d="M713.49,645.93a7,7,0,0,1-.76,1.72c-.89,1.46-2.08,2.36-2.66,2a.27.27,0,0,1-.08-.07,9.39,9.39,0,0,1,.6-1.18C711.52,646.88,712.74,645.86,713.49,645.93Z"/><path class="cls-52" d="M716.53,648a7,7,0,0,1-2,.66c-1.87.35-3.54,0-3.73-.74,0-.05,0-.09,0-.13a10.44,10.44,0,0,1,1.42-.38C714.19,647.07,716,647.34,716.53,648Z"/><path class="cls-52" d="M715.42,651.93a7.21,7.21,0,0,1-2-.77c-1.73-.94-2.87-2.27-2.55-3l.06-.1a10.93,10.93,0,0,1,1.38.62C714.12,649.72,715.4,651.06,715.42,651.93Z"/><path class="cls-52" d="M712.68,654.15a8.28,8.28,0,0,1-1.24-1.81c-.93-1.78-1.15-3.52-.5-3.89l.11,0a10.25,10.25,0,0,1,.8,1.32C712.83,651.6,713.15,653.44,712.68,654.15Z"/><path class="cls-52" d="M707,650.83a4.65,4.65,0,0,0,1.9,0c1.68-.32,2.89-1.36,2.71-2.33,0,0,0-.1,0-.15a6,6,0,0,0-1.32.11C708.49,648.81,707.16,649.81,707,650.83Z"/></g></g></svg>