<svg xmlns="http://www.w3.org/2000/svg" viewBox="0 0 177.69 161.88"><defs><style>.cls-1{fill:#e0e2a8;fill-rule:evenodd;}</style></defs><g id="Ebene_2" data-name="Ebene 2"><g id="Ebene_1-2" data-name="Ebene 1"><path id="Fill-33" class="cls-1" d="M177.19,103.38l-56-22.8L138.39.88c0-.4,0-.6-.4-.8s-.6,0-.8.2l-44.1,71.1-91.4-56a.37.37,0,0,0-.6,0c-.2.2-.4.4-.4.6l4.9,60.5h0L.09,86.78c-.2.2,0,.6,0,.8.2.2.4.4.6.2L7.09,86l13.7,36.3h0l2.3,39c0,.2.2.4.4.6h.2a.73.73,0,0,0,.6-.2l10.8-12.8,2.3,12.5a.43.43,0,0,0,.4.4h.6l7.2-3.3v-.2l42-18.4,29.9,9.4a.71.71,0,0,0,.8-.8v-24.4l59-19.5c.2,0,.4-.4.4-.6a2.65,2.65,0,0,0-.5-.6Zm-57.4-23.2h-17c-.2,0-.4,0-.4.2l-4.9,4.7-7.6-6.4,46.3-74.4Zm-57,19.5h0l21.1-24.6L97,86.18l-46.9,57.2,12.7-43.5v-.2Zm-.6-1.2-11.9-19.7,32-3.9Zm29.9-25.9L89,77.68l-4.9-4.4a.62.62,0,0,0-.4-.2l-34,4.1-13.5-22c-.2-.2-.4-.4-.6-.4h-5.5L3,17.48ZM1.89,18.88l26.6,36.3H17.29c-.2,0-.4.2-.6.4L6.59,74.88Zm15.8,37.5,16,.2-31,28.1Zm4.9,11.9V81L8,84.88H8l-.4.2-4.5,1.2ZM8.49,85.78l10-2.5,2.1,35.1Zm15.8,74-4.7-76.9,3.1-.8,12,65.2Zm20.3-2.3-6.2,2.9-14.5-79.2V67.28L35.39,57l26.2,43Zm4.5-10.6,8.4-2.7-10.9,11.1Zm37.9-7.8-39.2,17,12.3-12.7h0l26.9-9Zm29.9,8.8-28.7-9v-5.1l28.7-9.4Zm-66.8-2.5,33.4-40.8h89.6Zm34.4-42,13.6-16.8a.62.62,0,0,0,.2-.4l4.7-4.7h17l53.5,21.9Z"/></g></g></svg>